<svg xmlns="http://www.w3.org/2000/svg" width="42" height="42" fill="none">
  <path fill="#04E0BD"
        d="m25.52 24.563 2.918-5.042a.736.736 0 0 0-.167-.938l-3.084-2.416c.063-.459.105-.938.105-1.417 0-.48-.042-.958-.105-1.437l3.084-2.417a.736.736 0 0 0 .166-.938l-2.916-5.041a.737.737 0 0 0-.896-.313L21 6.063a10.712 10.712 0 0 0-2.458-1.438L18 .771a.758.758 0 0 0-.73-.604h-5.832a.756.756 0 0 0-.73.625l-.541 3.854c-.875.375-1.709.854-2.459 1.437L4.083 4.625a.737.737 0 0 0-.896.313L.271 9.979a.736.736 0 0 0 .166.938l3.084 2.416c-.063.459-.104.938-.104 1.417 0 .48.041.958.104 1.438L.437 18.604a.736.736 0 0 0-.166.938l2.916 5.041c.188.313.563.438.896.313l3.625-1.458c.75.583 1.563 1.062 2.459 1.437l.541 3.854a.758.758 0 0 0 .73.604h5.833c.354 0 .666-.27.729-.625l.542-3.854A11.17 11.17 0 0 0 21 23.417l3.625 1.458c.333.125.708 0 .896-.312Zm-11.166-5.646a4.179 4.179 0 0 1-4.166-4.167 4.179 4.179 0 0 1 4.166-4.167 4.179 4.179 0 0 1 4.167 4.167 4.179 4.179 0 0 1-4.167 4.167Zm27.313 15.979-2-1.542c.041-.291.083-.604.083-.916 0-.313-.02-.625-.083-.917l1.979-1.542a.476.476 0 0 0 .104-.604l-1.875-3.229c-.104-.208-.354-.27-.583-.208l-2.313.937c-.479-.375-1-.687-1.583-.916l-.354-2.459a.45.45 0 0 0-.438-.416h-3.729c-.23 0-.438.166-.458.395l-.355 2.459c-.562.25-1.104.541-1.583.916l-2.312-.937a.48.48 0 0 0-.584.208l-1.875 3.23c-.104.208-.083.458.105.604l1.979 1.541a6.546 6.546 0 0 0-.063.917c0 .312.021.625.063.916l-1.98 1.542a.476.476 0 0 0-.104.604l1.875 3.23c.105.208.355.27.584.208l2.312-.938c.48.375 1 .688 1.584.917l.354 2.458c.041.23.229.396.458.396h3.73c.228 0 .437-.166.458-.396l.354-2.458c.562-.25 1.104-.542 1.562-.917l2.334.938c.208.083.458 0 .583-.209l1.875-3.229c.125-.187.062-.437-.104-.583Zm-8.938.333a2.814 2.814 0 0 1-2.812-2.812 2.8 2.8 0 0 1 2.812-2.813 2.8 2.8 0 0 1 2.813 2.813 2.814 2.814 0 0 1-2.813 2.812Z"/>
</svg>
