<svg xmlns="http://www.w3.org/2000/svg" width="42" height="42" fill="none">
  <path fill="#04E0BD"
        d="M21 .167C9.5.167.167 9.5.167 21 .167 32.5 9.5 41.833 21 41.833c11.5 0 20.833-9.333 20.833-20.833C41.833 9.5 32.5.167 21 .167ZM36.542 15l-5.792 2.396a10.38 10.38 0 0 0-6.146-6.125L27 5.479A16.588 16.588 0 0 1 36.542 15ZM21 27.25A6.242 6.242 0 0 1 14.75 21 6.242 6.242 0 0 1 21 14.75 6.242 6.242 0 0 1 27.25 21 6.242 6.242 0 0 1 21 27.25ZM15.02 5.458l2.438 5.792a10.417 10.417 0 0 0-6.208 6.188L5.458 15.02a16.634 16.634 0 0 1 9.563-9.563ZM5.459 26.98l5.792-2.396a10.35 10.35 0 0 0 6.188 6.167L15 36.542a16.658 16.658 0 0 1-9.542-9.563ZM27 36.542l-2.396-5.792a10.371 10.371 0 0 0 6.146-6.187L36.542 27A16.682 16.682 0 0 1 27 36.542Z"/>
</svg>
