<svg xmlns="http://www.w3.org/2000/svg" width="38" height="46" class="service-icon">
  <path
    d="m27.833 17.98 3.271-3.272-7.812-7.812-3.271 3.27-8.625-8.604a4.175 4.175 0 0 0-5.896 0L1.542 5.521a4.175 4.175 0 0 0 0 5.896l8.604 8.604L.25 29.937v7.813h7.813l9.916-9.917 8.604 8.605c1.98 1.979 4.646 1.25 5.896 0l3.959-3.959a4.175 4.175 0 0 0 0-5.896l-8.605-8.604Zm-14.708-.918L4.5 8.459 8.438 4.5l2.645 2.646-2.458 2.479 2.938 2.938 2.479-2.48 3.02 3.021-3.937 3.959ZM29.542 33.5l-8.605-8.604 3.959-3.959 3.02 3.021-2.479 2.48 2.938 2.937 2.48-2.48 2.645 2.647-3.958 3.958Zm7.604-24.833a2.075 2.075 0 0 0 0-2.938L32.27.854c-.98-.98-2.334-.604-2.938 0L25.52 4.667l7.812 7.812 3.813-3.812Z"/>
</svg>
