<svg xmlns="http://www.w3.org/2000/svg" fill="none" viewBox="0 0 568 604">
  <path stroke="#fff" stroke-miterlimit="10" stroke-opacity=".1" stroke-width="3"
        d="M196.328 601.851c105.711 0 192.486-86.514 193.439-192.867V193.396a63.235 63.235 0 0 0-18.455-44.661 62.93 62.93 0 0 0-44.554-18.499c-35.205 0-63.834 28.325-63.834 63.16V407.17c0 37.249-29.889 67.631-66.628 67.631a67.467 67.467 0 0 1-47.702-19.867 67.792 67.792 0 0 1-19.751-47.844v-80.473c0-34.804-28.645-63.161-63.833-63.161a62.933 62.933 0 0 0-44.555 18.499A63.238 63.238 0 0 0 2 326.617v82.173c.97 106.547 88.068 193.061 194.328 193.061Z"/>
  <path stroke="#fff" stroke-miterlimit="10" stroke-opacity=".1" stroke-width="3"
        d="M65.106 256.735c34.844 0 63.091-28.314 63.091-63.242 0-34.927-28.247-63.241-63.09-63.241-34.844 0-63.091 28.314-63.091 63.241 0 34.928 28.246 63.242 63.09 63.242ZM502.99 601.429a63.303 63.303 0 0 1-35.519-10.617 63.527 63.527 0 0 1-23.531-28.706 63.706 63.706 0 0 1-3.504-36.988 63.6 63.6 0 0 1 17.721-32.632 63.33 63.33 0 0 1 44.705-18.158 63.34 63.34 0 0 1 44.515 18.621 63.643 63.643 0 0 1 18.569 44.626 63.643 63.643 0 0 1-18.122 44.809 64.852 64.852 0 0 1-44.834 19.045Zm0-134.208c-35.204 0-63.833-28.309-63.833-63.16V65.974a63.455 63.455 0 0 1 4.683-24.587 63.343 63.343 0 0 1 13.822-20.846 63.155 63.155 0 0 1 20.8-13.85 63.033 63.033 0 0 1 24.528-4.687c34.736 0 63.01 28.713 63.01 63.986v338.103a63.235 63.235 0 0 1-18.467 44.64 62.931 62.931 0 0 1-44.543 18.488Z"/>
</svg>
