<svg width="88" height="53" fill="none" xmlns="http://www.w3.org/2000/svg"><path d="M27.346 52.712a3.527 3.527 0 0 1-1.442-.297 3.749 3.749 0 0 1-1.225-.869 4.074 4.074 0 0 1-.824-1.307 4.314 4.314 0 0 1-.295-1.548V24.257c.005-3.27 1.003-6.449 2.842-9.051 1.839-2.603 4.418-4.487 7.344-5.365a13 13 0 0 1 8.864.5c2.825 1.203 5.207 3.367 6.783 6.162 1.576 2.795 2.26 6.069 1.947 9.32-.313 3.253-1.605 6.307-3.68 8.695-2.074 2.389-4.817 3.982-7.81 4.537-2.994.554-6.075.04-8.772-1.465v11.101a4.186 4.186 0 0 1-1.094 2.841c-.7.754-1.648 1.178-2.638 1.18ZM37.508 17.34c-1.703.005-3.335.735-4.54 2.031-1.204 1.296-1.883 3.053-1.888 4.887v.055a7.294 7.294 0 0 0 1.108 3.83 6.546 6.546 0 0 0 2.895 2.524 6.004 6.004 0 0 0 3.71.372 6.306 6.306 0 0 0 3.278-1.906 7.102 7.102 0 0 0 1.746-3.543 7.41 7.41 0 0 0-.374-3.99 6.832 6.832 0 0 0-2.368-3.097 6.108 6.108 0 0 0-3.567-1.163ZM75.882 38.997c-1.11 0-2.337-.753-3.058-1.915-1.955 1.3-4.173 1.915-6.853 1.915-7.876 0-14.047-6.474-14.047-14.74 0-8.479 6.17-15.12 14.047-15.12 7.68 0 13.695 6.641 13.695 15.12v10.667a4.256 4.256 0 0 1-.265 1.573c-.186.5-.465.953-.819 1.334-.353.38-.775.68-1.239.88-.464.201-.961.298-1.461.286Zm-9.91-21.822c-3.566 0-6.58 3.243-6.58 7.082 0 3.695 2.953 6.701 6.58 6.701 3.55 0 6.226-2.88 6.226-6.701 0-3.904-2.793-7.082-6.227-7.082ZM11.52 39.107c6.265 0 11.413-5.509 11.47-12.28V13.102a4.209 4.209 0 0 0-1.1-2.861c-.706-.759-1.662-1.185-2.659-1.185-.997 0-1.953.426-2.658 1.185a4.209 4.209 0 0 0-1.101 2.861v13.604c0 .562-.103 1.118-.303 1.637-.2.52-.492.991-.862 1.389-.369.397-.807.712-1.29.927-.482.216-.999.326-1.52.326-.523 0-1.04-.11-1.522-.326a3.97 3.97 0 0 1-1.29-.927 4.315 4.315 0 0 1-.862-1.389 4.566 4.566 0 0 1-.303-1.637v-5.122a4.209 4.209 0 0 0-1.1-2.861c-.706-.759-1.662-1.185-2.659-1.185-.997 0-1.953.426-2.658 1.185a4.209 4.209 0 0 0-1.101 2.861v5.232c.035 3.266 1.263 6.386 3.418 8.686 2.155 2.3 5.065 3.595 8.1 3.605Z" fill="#fff"/><path d="M3.74 17.133c2.065 0 3.74-1.802 3.74-4.025 0-2.223-1.675-4.025-3.74-4.025-2.066 0-3.74 1.802-3.74 4.025 0 2.223 1.674 4.025 3.74 4.025Z" fill="#616CEA"/><path d="M83.92 39.08a3.57 3.57 0 0 1-2.108-.675 3.996 3.996 0 0 1-1.395-1.828 4.335 4.335 0 0 1-.208-2.356c.15-.79.517-1.513 1.052-2.078.705-.759 1.661-1.185 2.658-1.185.997 0 1.954.426 2.659 1.185a4.209 4.209 0 0 1 1.1 2.862 4.209 4.209 0 0 1-1.1 2.861c-.706.76-1.66 1.196-2.659 1.214Z" fill="#04E0BD"/><path d="M83.92 30.536a3.528 3.528 0 0 1-1.441-.297 3.749 3.749 0 0 1-1.225-.869 4.077 4.077 0 0 1-.823-1.307 4.316 4.316 0 0 1-.296-1.546V4.99c0-1.073.396-2.102 1.101-2.861.705-.76 1.661-1.185 2.658-1.185.997 0 1.953.426 2.658 1.185a4.208 4.208 0 0 1 1.101 2.861v21.527a4.186 4.186 0 0 1-1.095 2.84c-.7.754-1.649 1.178-2.639 1.18ZM69.738 46.866v-3.212a.662.662 0 0 1 .185-.43.573.573 0 0 1 .408-.174c.152 0 .299.062.409.175.11.112.177.266.185.43v5.791a3.387 3.387 0 0 1-.653 2.004c-.42.57-1.008.97-1.667 1.134a2.807 2.807 0 0 1-1.962-.225 3.118 3.118 0 0 1-1.407-1.487 3.452 3.452 0 0 1-.246-2.107 3.28 3.28 0 0 1 1.023-1.815 2.877 2.877 0 0 1 1.849-.74 2.86 2.86 0 0 1 1.876.656Zm0 2.58v-.011a2.046 2.046 0 0 0-.538-1.389 1.764 1.764 0 0 0-1.292-.573c-.485.001-.949.209-1.291.578a2.046 2.046 0 0 0-.535 1.39c0 .52.193 1.02.535 1.39.342.368.806.576 1.29.577.485 0 .95-.206 1.293-.573.343-.368.537-.867.538-1.389ZM77.636 49.473a.68.68 0 0 1-.047.245.639.639 0 0 1-.13.206.586.586 0 0 1-.195.136.554.554 0 0 1-.228.045h-4.135c.124.388.357.724.666.963.31.238.68.366 1.062.367a2.24 2.24 0 0 0 1.34-.426c.276-.193.648-.013.792.297.143.31-.011.657-.287.852-.54.4-1.19.596-1.845.554a2.905 2.905 0 0 1-2.128-.948 3.368 3.368 0 0 1-.882-2.29c0-.86.317-1.684.882-2.291a2.905 2.905 0 0 1 2.128-.949c1.451 0 3.007 1.135 3.007 3.24Zm-4.735-.645h3.464c-.25-.904-1.019-1.316-1.736-1.316-.38 0-.749.127-1.058.363-.31.235-.543.568-.67.953ZM82.647 47.124l-1.8 5.162a.658.658 0 0 1-.22.306.587.587 0 0 1-.342.12h-.012a.583.583 0 0 1-.343-.12.655.655 0 0 1-.221-.306l-1.79-5.162a.67.67 0 0 1 .147-.695.578.578 0 0 1 .2-.13.554.554 0 0 1 .457.014.593.593 0 0 1 .19.147.643.643 0 0 1 .121.214l1.253 3.599 1.253-3.6a.621.621 0 0 1 .314-.34.557.557 0 0 1 .445-.011.616.616 0 0 1 .329.324c.066.15.076.321.028.478h-.01ZM62.948 51.504a97.34 97.34 0 0 0-1.611-1.659.455.455 0 0 1-.118-.308.442.442 0 0 1 .118-.297c.016-.017 1.004-1.108 1.59-1.734a.39.39 0 0 1 .276-.123c.051 0 .102.01.15.032a.39.39 0 0 1 .127.091.426.426 0 0 1 .114.298.45.45 0 0 1-.114.297l-1.313 1.43 1.329 1.372a.438.438 0 0 1 .114.298.438.438 0 0 1-.114.297.378.378 0 0 1-.277.124.378.378 0 0 1-.276-.123l.005.005ZM84.673 47.512c.585.62 1.59 1.643 1.61 1.659a.444.444 0 0 1 0 .605c-.015.017-1.003 1.108-1.589 1.734a.377.377 0 0 1-.276.123.377.377 0 0 1-.277-.123.438.438 0 0 1-.114-.298c0-.111.04-.218.114-.297l1.312-1.43-1.328-1.372a.438.438 0 0 1-.115-.298c0-.111.042-.218.115-.297a.377.377 0 0 1 .277-.124c.103 0 .203.045.276.124l-.005-.006Z" fill="#fff"/></svg>