<svg width="88" height="53" viewBox="0 0 88 53" fill="none" xmlns="http://www.w3.org/2000/svg">
  <path d="M27.3459 52.7124C26.852 52.7162 26.3621 52.6152 25.9044 52.4151C25.4468 52.215 25.0302 51.9198 24.6786 51.5463C24.327 51.1729 24.0472 50.7285 23.8552 50.2385C23.6632 49.7486 23.5629 49.2228 23.5598 48.691V24.2566C23.5647 20.9868 24.5628 17.8084 26.4018 15.2058C28.2408 12.6032 30.8199 10.7192 33.7461 9.84088C36.6723 8.9626 39.785 9.13821 42.6098 10.341C45.4347 11.5437 47.8167 13.7076 49.3928 16.5029C50.969 19.2981 51.6529 22.5715 51.3402 25.8239C51.0275 29.0764 49.7354 32.1296 47.6609 34.5183C45.5864 36.9069 42.8432 38.4999 39.8494 39.0546C36.8556 39.6092 33.7754 39.0951 31.0783 37.5904V48.691C31.0774 49.7566 30.684 50.7783 29.9843 51.5321C29.2847 52.2859 28.3359 52.7104 27.3459 52.7124ZM37.5085 17.3392C35.8052 17.3438 34.1729 18.074 32.9683 19.3702C31.7637 20.6664 31.0849 22.4232 31.0801 24.2566V24.3125C31.09 25.6787 31.4754 27.0111 32.1878 28.1419C32.9001 29.2726 33.9075 30.1511 35.083 30.6665C36.2584 31.182 37.5494 31.3113 38.793 31.0383C40.0367 30.7652 41.1774 30.102 42.0714 29.1322C42.9654 28.1624 43.5727 26.9294 43.8167 25.5887C44.0607 24.248 43.9305 22.8595 43.4425 21.5983C42.9546 20.3371 42.1306 19.2596 41.0746 18.5017C40.0186 17.7437 38.7777 17.3392 37.5085 17.3392Z" fill="white"></path>
  <path d="M75.8816 38.9971C74.7717 38.9971 73.5455 38.2437 72.824 37.0818C70.8692 38.3824 68.6513 38.9971 65.9714 38.9971C58.0949 38.9971 51.9243 32.5228 51.9243 24.2566C51.9243 15.7785 58.0949 9.1366 65.9714 9.1366C73.6511 9.1366 79.6659 15.7785 79.6659 24.2566V34.9237C79.6771 35.4619 79.587 35.997 79.4008 36.4967C79.2146 36.9964 78.9362 37.4503 78.5825 37.831C78.2289 38.2116 77.8072 38.5112 77.343 38.7117C76.8788 38.9121 76.3816 39.0092 75.8816 38.9971ZM65.9714 17.1754C62.4055 17.1754 59.3927 20.4183 59.3927 24.2566C59.3927 27.9523 62.3446 30.9582 65.9714 30.9582C69.5213 30.9582 72.1975 28.0776 72.1975 24.2566C72.1975 20.3528 69.4049 17.1754 65.9714 17.1754Z" fill="white"></path>
  <path d="M11.5194 39.1069C17.7848 39.1069 22.9332 33.598 22.9905 26.827V13.1021C22.9905 12.0289 22.5944 10.9997 21.8894 10.2408C21.1844 9.48198 20.2283 9.05566 19.2312 9.05566C18.2342 9.05566 17.278 9.48198 16.573 10.2408C15.868 10.9997 15.472 12.0289 15.472 13.1021V26.7056C15.472 27.2676 15.3691 27.8241 15.1693 28.3434C14.9695 28.8626 14.6767 29.3343 14.3075 29.7317C13.9383 30.1291 13.5 30.4444 13.0176 30.6594C12.5352 30.8745 12.0182 30.9852 11.4961 30.9852C10.974 30.9852 10.457 30.8745 9.97461 30.6594C9.49223 30.4444 9.05394 30.1291 8.68474 29.7317C8.31555 29.3343 8.02269 28.8626 7.82288 28.3434C7.62308 27.8241 7.52024 27.2676 7.52024 26.7056V21.5841C7.52024 20.5109 7.12417 19.4817 6.41917 18.7228C5.71418 17.964 4.75799 17.5377 3.76097 17.5377C2.76395 17.5377 1.80777 17.964 1.10277 18.7228C0.397773 19.4817 0.00170898 20.5109 0.00170898 21.5841V26.8155C0.0369622 30.0819 1.26484 33.2023 3.42001 35.5022C5.57517 37.8021 8.48453 39.097 11.5194 39.1069Z" fill="white"></path>
  <path d="M3.73957 17.133C5.80488 17.133 7.47915 15.3309 7.47915 13.1078C7.47915 10.8848 5.80488 9.08264 3.73957 9.08264C1.67426 9.08264 0 10.8848 0 13.1078C0 15.3309 1.67426 17.133 3.73957 17.133Z" fill="#616CEA"></path>
  <path d="M83.9193 39.0799C83.1702 39.0858 82.4366 38.8507 81.8125 38.4046C81.1884 37.9586 80.7023 37.3221 80.4166 36.5766C80.131 35.8312 80.0587 35.0109 80.2092 34.221C80.3596 33.4311 80.7259 32.7075 81.261 32.1432C81.966 31.3843 82.9223 30.958 83.9193 30.958C84.9164 30.958 85.8726 31.3843 86.5777 32.1432C87.2827 32.9021 87.6788 33.9314 87.6788 35.0046C87.6788 36.0778 87.2827 37.1071 86.5777 37.866C85.8716 38.6268 84.9183 39.0622 83.9193 39.0799Z" fill="#04E0BD"></path>
  <path d="M83.9193 30.5362C83.4257 30.5398 82.9362 30.4386 82.4788 30.2386C82.0214 30.0385 81.6052 29.7434 81.2538 29.3702C80.9024 28.9969 80.6227 28.5528 80.4307 28.0633C80.2388 27.5737 80.1383 27.0482 80.135 26.5168V4.99C80.135 3.91683 80.5311 2.88761 81.2361 2.12876C81.9411 1.36992 82.8973 0.943604 83.8943 0.943604C84.8913 0.943604 85.8475 1.36992 86.5525 2.12876C87.2575 2.88761 87.6535 3.91683 87.6535 4.99V26.5168C87.6521 27.5824 87.2582 28.6038 86.5582 29.3573C85.8583 30.1107 84.9093 30.5347 83.9193 30.5362Z" fill="white"></path>
  <path d="M69.738 46.8663V43.6542C69.7463 43.4909 69.8125 43.3372 69.9228 43.2247C70.0332 43.1123 70.1794 43.0496 70.3314 43.0496C70.4834 43.0496 70.6296 43.1123 70.7399 43.2247C70.8503 43.3372 70.9165 43.4909 70.9248 43.6542V49.4464C70.9233 50.1743 70.6933 50.8803 70.2722 51.4499C69.8511 52.0195 69.2636 52.4193 68.6049 52.5844C67.9462 52.7494 67.2551 52.6701 66.6435 52.3593C66.032 52.0485 65.5359 51.5244 65.2359 50.8721C64.9358 50.2197 64.8492 49.4774 64.9903 48.7654C65.1314 48.0535 65.4918 47.4138 66.013 46.95C66.5343 46.4862 67.1858 46.2256 67.862 46.2104C68.5381 46.1952 69.1992 46.4263 69.738 46.8663ZM69.738 49.4464V49.4348C69.7365 48.9135 69.543 48.4142 69.1998 48.0464C68.8566 47.6786 68.3918 47.4725 67.9076 47.4733C67.4233 47.474 66.9591 47.6816 66.6169 48.0505C66.2747 48.4194 66.0825 48.9193 66.0825 49.4406C66.0825 49.9618 66.2747 50.4618 66.6169 50.8307C66.9591 51.1995 67.4233 51.4071 67.9076 51.4079C68.3918 51.4087 68.8566 51.2025 69.1998 50.8348C69.543 50.467 69.7365 49.9676 69.738 49.4464Z" fill="white"></path>
  <path d="M77.636 49.4734C77.6355 49.5573 77.6196 49.6404 77.5892 49.7177C77.5587 49.7951 77.5143 49.8652 77.4585 49.9239C77.4028 49.9827 77.3368 50.029 77.2643 50.0601C77.1918 50.0913 77.1143 50.1066 77.0363 50.1054H72.9011C73.0248 50.4929 73.2576 50.8292 73.5673 51.0675C73.8769 51.3058 74.2479 51.4343 74.6286 51.4349C75.1052 51.4421 75.5727 51.2936 75.9694 51.0091C76.2451 50.8164 76.6174 50.9956 76.7606 51.3058C76.9038 51.616 76.7499 51.9628 76.4742 52.1575C75.9337 52.5589 75.2841 52.7542 74.6286 52.7124C73.8305 52.7124 73.0651 52.3711 72.5008 51.7637C71.9364 51.1563 71.6194 50.3324 71.6194 49.4734C71.6194 48.6143 71.9364 47.7904 72.5008 47.183C73.0651 46.5756 73.8305 46.2343 74.6286 46.2343C76.0804 46.2343 77.636 47.3692 77.636 49.4734ZM72.9011 48.8279H76.365C76.1144 47.9242 75.3464 47.5118 74.6286 47.5118C74.2496 47.5123 73.8801 47.6391 73.5708 47.8747C73.2615 48.1104 73.0276 48.4433 72.9011 48.8279Z" fill="white"></path>
  <path d="M82.6465 47.1245L80.8474 52.2865C80.8037 52.4096 80.7268 52.5159 80.6267 52.5917C80.5266 52.6676 80.4077 52.7096 80.2853 52.7124H80.2728C80.15 52.7105 80.0305 52.6689 79.9299 52.5929C79.8294 52.517 79.7524 52.4102 79.7089 52.2865L77.9188 47.1245C77.8897 47.046 77.8757 46.9619 77.8775 46.8774C77.8793 46.7929 77.8969 46.7096 77.9294 46.6326C77.9618 46.5556 78.0083 46.4864 78.0662 46.4292C78.1241 46.3721 78.192 46.328 78.2661 46.2998C78.3392 46.2693 78.4173 46.2548 78.4958 46.2571C78.5742 46.2594 78.6514 46.2786 78.7229 46.3134C78.7944 46.3482 78.8587 46.3979 78.9121 46.4598C78.9656 46.5216 79.007 46.5943 79.034 46.6736L80.2871 50.273L81.5402 46.6736C81.6 46.5207 81.7124 46.3987 81.8539 46.3331C81.9954 46.2675 82.1551 46.2634 82.2993 46.3217C82.4435 46.3801 82.5612 46.4962 82.6276 46.6459C82.694 46.7956 82.704 46.9671 82.6555 47.1245H82.6465Z" fill="white"></path>
  <path d="M62.948 51.5043C62.3626 50.8838 61.3584 49.8606 61.3369 49.8452C61.2612 49.7633 61.2188 49.6525 61.2188 49.5369C61.2204 49.4252 61.2629 49.3186 61.3369 49.2402C61.353 49.2229 62.3412 48.1323 62.9265 47.506C62.9628 47.4669 63.006 47.4359 63.0534 47.4148C63.1009 47.3936 63.1517 47.3827 63.2031 47.3827C63.2545 47.3827 63.3053 47.3936 63.3528 47.4148C63.4002 47.4359 63.4434 47.4669 63.4797 47.506C63.516 47.5451 63.5448 47.5915 63.5645 47.6426C63.5841 47.6937 63.5942 47.7484 63.5942 47.8037C63.5942 47.859 63.5841 47.9138 63.5645 47.9648C63.5448 48.0159 63.516 48.0623 63.4797 48.1014L62.1675 49.5312L63.4958 50.9031C63.5691 50.982 63.6103 51.0891 63.6103 51.2008C63.6103 51.3124 63.5691 51.4195 63.4958 51.4985C63.4224 51.5774 63.3229 51.6218 63.2192 51.6218C63.1155 51.6218 63.016 51.5774 62.9426 51.4985L62.948 51.5043Z" fill="white"></path>
  <path d="M84.6728 47.5118C85.2582 48.1323 86.2625 49.1554 86.2839 49.1708C86.3601 49.2526 86.4032 49.3634 86.4039 49.4791C86.4016 49.5911 86.3585 49.6977 86.2839 49.7759C86.2678 49.7932 85.2797 50.8838 84.6943 51.51C84.621 51.589 84.5215 51.6334 84.4177 51.6334C84.314 51.6334 84.2145 51.589 84.1412 51.51C84.0678 51.4311 84.0266 51.324 84.0266 51.2123C84.0266 51.1007 84.0678 50.9936 84.1412 50.9146L85.4533 49.4849L84.1251 48.113C84.0517 48.034 84.0105 47.927 84.0105 47.8153C84.0105 47.7036 84.0517 47.5966 84.1251 47.5176C84.1984 47.4386 84.2979 47.3943 84.4016 47.3943C84.5054 47.3943 84.6049 47.4386 84.6782 47.5176L84.6728 47.5118Z" fill="white"></path>
</svg>
