<svg xmlns="http://www.w3.org/2000/svg" fill="none" viewBox="0 0 675 696">
  <g clip-path="url('#a')">
    <mask id="b" x="-1" y="-1" maskUnits="userSpaceOnUse" style="mask-type: luminance">
      <path fill="#fff" d="M304.941.368c9.304.391 21.685 1.755 30.898 3.041 7.283 1.028 16.932 2.828 24.152 4.228 8.361 1.623 19.377 4.473 27.57 6.819 7.652 2.182 17.784 5.35 25.249 8.1 7.037 2.596 16.387 6.164 23.292 9.092 7.096 3.005 16.487 7.205 23.346 10.71 6.71 3.427 15.64 8.037 22.199 11.737 6.56 3.7 15.135 8.96 21.544 12.919 6.409 3.96 14.771 9.878 21.048 14.192 6.277 4.314 14.293 10.391 20.16 15.17 5.867 4.777 13.696 11.209 19.377 16.209 5.681 5.001 13.059 11.974 18.558 17.211 5.498 5.236 12.567 12.632 17.752 18.246 5.185 5.614 11.73 13.333 16.71 19.093 5.102 5.909 11.379 14.173 16.04 20.433 4.83 6.523 11.111 15.347 15.477 22.197 8.193 12.887 18.243 30.602 25.34 44.094 4.014 7.642 8.648 18.183 11.948 26.175 2.941 7.096 6.487 16.71 9.063 23.947 3.109 8.741 6.555 20.647 8.835 29.638 1.821 7.11 3.824 16.679 5.221 23.879 1.853 9.547 3.496 22.438 4.329 32.13.591 6.919 1.006 16.174 1.16 23.111.237 10.35-.204 24.197-1.415 34.48-.778 6.595-1.871 15.392-2.972 21.942a281.63 281.63 0 0 1-22.728 72.164c-5.462 11.469-13.61 26.434-21.011 36.762-6.373 8.901-15.476 20.338-22.536 28.711-3.642 4.305-8.981 9.592-13.041 13.492-4.579 4.405-10.774 10.219-15.809 14.092-9.103 7.028-21.421 16.265-31.275 22.215-5.462 3.309-12.864 7.637-18.663 10.383-9.722 4.618-22.818 10.596-32.987 14.137-6.222 2.168-14.607 4.832-20.97 6.564a304.836 304.836 0 0 1-31.408 6.755c-6.878 1.028-16.081 2.223-23.009 2.819-14.134 1.213-33.101.959-47.285.663-30.342-1.663-58.85-28.184-75.159-75.851 42.973 2.364 77.039-11.023 98.82-35.202 27.698-30.734 35.536-78.91 16.568-134.319-33.87-98.975-140.455-183.586-238.069-188.936-42.974-2.364-77.04 11.028-98.825 35.202-27.694 30.739-35.532 78.911-16.587 134.324 33.884 98.989 140.474 183.586 238.083 188.95 16.31 47.658 44.818 74.187 75.16 75.851-9.295-.591-21.676-1.737-30.898-3.037-7.283-1.027-16.946-2.728-24.152-4.228-8.343-1.718-19.377-4.473-27.57-6.818-7.652-2.178-17.793-5.323-25.249-8.101-7.028-2.614-16.387-6.159-23.292-9.091-7.096-3.005-16.486-7.206-23.346-10.71-6.71-3.428-15.64-8.037-22.199-11.738a477.883 477.883 0 0 1-42.592-27.111 491.971 491.971 0 0 1-39.546-31.365c-5.699-5.001-13.059-11.974-18.558-17.211-5.499-5.237-12.568-12.637-17.752-18.247-5.185-5.609-11.776-13.296-16.71-19.092-5.057-5.909-11.402-14.174-16.04-20.433-4.83-6.523-11.111-15.347-15.477-22.197-4.096-6.428-9.486-15.033-13.282-21.638-4.315-7.51-9.745-17.729-13.55-25.502-3.346-6.846-7.539-16.11-10.47-23.152-3.642-8.773-8.152-20.624-10.979-29.688-2.217-7.128-5.084-16.665-6.919-23.902-2.417-9.723-5.243-22.833-6.677-32.761C1.825 318.1.19 299.512-.146 285.548a318.225 318.225 0 0 1 1.416-34.475c.65-6.615 1.87-15.392 2.972-21.947a304.359 304.359 0 0 1 8.59-35.758c1.907-6.155 4.784-14.264 7.137-20.265a296.296 296.296 0 0 1 16.773-34.911 289.54 289.54 0 0 1 20.201-30.389c3.906-5.027 9.323-11.573 13.574-16.31A294.172 294.172 0 0 1 99.367 63.9a271.472 271.472 0 0 1 49.924-32.589 283.768 283.768 0 0 1 53.98-20.701c9.295-2.532 21.872-5.332 31.408-6.755 6.878-1.032 16.081-2.223 23.009-2.819C271.79-.177 290.766-.232 304.941.368Z"></path>
    </mask>
    <g mask="url('#b')">
      <path fill="#fff" d="M149.332 537.043c-12.317 11.033-9.868 24.275 7.488 40.485 27.793 23.056 37.803 6.028 42.077-1.246l.136-.254c.779-1.582 1.798-3.701 2.467-5.328a322.363 322.363 0 0 1-44.466-39.153 50.457 50.457 0 0 0-7.702 5.496Zm-.696-.595a49.9 49.9 0 0 1 7.81-5.523 322.416 322.416 0 0 0 45.746 40.275l-.71 1.755a1179.19 1179.19 0 0 1-1.739 3.591c-.045.082-.086.168-.132.254-20.264 34.976-54.926-9.546-57.899-19.274-2.453-8.032-.255-14.732 6.924-21.078Zm-33.707-23.466c-18.371 11.597-14.616 23.679 17.479 56.223 10.902 10.073 25.764 23.183 37.161 32.675 8.053 6.309 10.151 7.791 16.187 11.946l.71.454c.19.408.481.76.846 1.023 7.047 4.819 16.36 11.365 23.547 15.983l21.435 12.86c-8.066-4.473-9.441-20.819-2.468-48.317l1.175-6.105c-37.025-20.96-70.972-50.744-96.799-85.292-11.985 4.132-18.158 7.85-19.273 8.555m-.742-.709c1.138-.705 7.429-4.428 19.514-8.519 26.059 35.075 60.476 65.259 98.024 86.397l-1.143 6.1c-6.828 27.607-5.326 44.026 2.854 48.536-6.778-4.041-15.909-9.274-22.572-13.501-7.406-5.001-17.352-11.533-24.58-16.747a2.266 2.266 0 0 1-.665-.723c-6.313-4.423-8.225-5.818-15.931-11.887-25.877-21.638-25.877-21.638-37.949-33.425l-2.198-2.159-7.556-7.728c-16.114-18.638-28.84-33.321-7.766-46.367m-34.407-94.421c-22.96-3.091-29.542 3.323-22.71 22.129 9.318 20.611 28.95 39.835 56.084 31.998a244.632 244.632 0 0 1-17.338-38.825 220.966 220.966 0 0 1-4.051-13.183c-6.063-1.264-10.72-1.923-12.004-2.096m-.345-.818c.582.082 5.853.827 12.144 2.159a198.645 198.645 0 0 0 4.256 13.96 244.682 244.682 0 0 0 17.725 39.549l-1.871.55c-13.829 2.841-26.155 1.818-41.363-12.51-10.546-9.924-21.625-31.689-14.73-40.271 4.316-5.364 14.47-4.755 23.839-3.446m-58.541-64.246c-5.249-5.268-6.123-5.836-8.503-5.527-3.405 4.964 1.593 22.983 8.402 36.711l.292.56c-.2 8 1.251 16.014 9.732 37.589 44.926 104.453 81.509 88.106 101.159 79.319-15.512-21.324-27.948-44.394-36.141-68.3-5.166-15.097-8.344-29.657-9.668-43.472l-7.515-2.482c-25.09-8.237-44.608-20.224-57.777-34.398m-.09-.995c13.2 14.251 32.7 26.329 57.808 34.666l7.524 2.514c1.288 14.024 4.483 28.825 9.736 44.176 8.271 24.16 20.875 47.467 36.62 68.973l-5.463 2.482c-20.337 6.646-39.405 9.114-66.912-28.216-11.006-14.942-23.892-39.489-32.113-61.086-1.274-3.346-2.904-7.837-3.91-11.274a187.417 187.417 0 0 1-1.443-5c-1.365-4.941-.837-10.164-2.207-15.106-1.93-6.982-5.831-13.232-7.584-20.283-2.886-11.592-2.216-15.36-1.793-16.437.248-.464.542-.901.878-1.305 1.944-.232 2.923-.355 8.877 5.873"></path>
      <path fill="#fff" d="M230.423 610.912c-.583 8.692-1.821 26.779 27.311 44.244 31.371 18.829 82.046 35.457 90.891 26.689 5.512-5.455-.97-19.211-9.177-36.608-5.917-13.319-6.254-14.119-9.29-23.401a201.783 201.783 0 0 1-31.066-4.873 169.732 169.732 0 0 0 4.788 22.092c3.041 12.933 1.821 19.72-13.382 16.142-19.646-7.828-23.988-19.369-25.577-28.547-.47-6.864-.525-13.75-.164-20.62a277.872 277.872 0 0 1-30.306-14.374 194.074 194.074 0 0 0-4.006 19.256m-.823-.454a193.332 193.332 0 0 1 4.096-19.211 278.423 278.423 0 0 0 31.776 15.074 169.35 169.35 0 0 0 .269 20.66c4.37 24.72 31.335 32.703 36.87 26.125 2.854-3.382 1.643-8.669.359-14.265a169.823 169.823 0 0 1-4.688-22.065 203.047 203.047 0 0 0 32.582 5.11 180.13 180.13 0 0 0 9.395 23.415c15.663 32.848 25.117 52.676-38.194 30.434-76.863-26.997-73.781-53.818-72.488-65.268M19.332 308.254c-7.042-8.783-10.975-8.733-11.68.145-.046.573-.055 1.337-.082 1.91.455 30.043 18.803 50.885 26.942 42.153 7.706-8.265-6.086-32.871-15.18-44.208Zm.036-1c.191.241 19.268 24.383 18.162 41.075-2.08 11.151-13.041 8.233-20.028-2.168-10.37-15.478-14.42-48.349-5.622-45.671 1.821.554 4.352 2.832 7.488 6.764Z"></path>
      <path fill="#fff" d="M63.635 347.879c-16.005-9.005-22.2-8.877-23.67.496 1.99 18.969 18.03 27.456 23.3 30.243a190.355 190.355 0 0 0 22.7 8.346 144.64 144.64 0 0 1 .338-27.275 203.292 203.292 0 0 1-22.66-11.819m.078-.713a204.701 204.701 0 0 0 22.65 11.901 144.428 144.428 0 0 0-.346 28.588 190.29 190.29 0 0 1-22.705-8.223c-27.206-14.338-27.502-36.162-20.273-38.858 5.79-2.159 16.213 3.978 20.665 6.601m141.63-96.162c-5.917-17.219-19.117-46.048-41.062-45.685-16.673 3.51-24.07 25.375-7.583 55.913.073.128.145.255.223.378 1.365 2.168 3.213 5.055 4.706 7.146 14.188-4.123 30.097-5.978 47.494-5.228a185.794 185.794 0 0 0-3.778-12.501m.751-.104c.647 1.9 2.303 6.941 3.783 12.637-17.943-.846-34.316 1.064-48.864 5.373l-1.57-2.182-3.155-4.955-.223-.377c-20.888-38.426-3.186-61.518 14.662-57.082 13.591 3.378 26.482 20.356 35.367 46.586Zm30.52-12.606C216.617 126 154.08 128.636 124.684 161.666l-.615.718c-2.731-28.888 0-56.995 8.326-81.26 4.333-15.278 1.32-20.001-10.397-16.27-14.11 7.228-23.806 18.052-29.587 33.085-15.526 51.594-1.215 119.845 39.897 173.917l5.694 6.65c19.76-11.023 44.517-16.487 73.258-14.91 9.938.566 19.82 1.883 29.559 3.941-.455-4.459-1.443-13.737-4.206-29.256m.851-.109 4.097 29.547a197.665 197.665 0 0 0-30.324-4.091c-28.991-1.596-53.926 3.982-73.772 15.201l-5.658-6.687c-41.28-53.981-55.728-122.154-40.256-173.717 10.72-27.974 37.689-41.635 42.833-33.543 2.499 3.927.683 10.296-.911 15.91-8.138 23.611-11.02 50.886-8.703 78.91 27.976-30.42 91.829-39.162 112.694 78.483m93.681 55.777c2.194-6.328 11.835-38.685-14.365-54.281-25.181-10.665-42.637 11.792-40.853 38.221a283.745 283.745 0 0 1 51.04 25.715 71.1 71.1 0 0 0 4.178-9.655Zm.802.359a72.939 72.939 0 0 1-4.27 9.751 283.256 283.256 0 0 0-52.519-26.475l-.155-2.159c.114-41.044 32.773-47.044 48.796-32.621 12.121 10.91 15.321 31.139 8.148 51.486m71.705-34.057c19.472-29.402-2.131-47.972-21.039-42.899-2.103.564-4.757 1.787-6.718 2.728l-.592.323c-7.889-18.388-15.932-27.148-34.367-37.494-58.445-24.775-108.183 19.092-96.762 85.379 38.85 8.769 77.677 28.716 111.483 55.872l3.678-4.823c12.29-17.274 27.643-37.689 44.303-59.095m.938.754c-16.724 21.347-32.15 41.69-44.54 58.882-1.111 1.441-2.59 3.364-3.705 4.805-34.18-27.607-73.544-47.84-112.886-56.572l-1.283-7.301c-6.582-85.006 71.919-107.553 116.144-67.987 10.642 9.519 15.117 19.615 17.789 25.648 26.942-12.274 41.795 11.182 34.794 31.252-1.279 3.636-4.01 8.141-6.282 11.282"></path>
      <path fill="#fff" d="M117.82 255.777c-16.51-25.488-35.172-54.376-50.366-59.317-25.158-8.183-33.229 22.037-35.118 31.497-3.923 19.761-4.606 58.036 34.895 92.371a214.078 214.078 0 0 0 23.888 16.205 105.32 105.32 0 0 1 9.736-21.924 223.485 223.485 0 0 1-21.913-18.638c-17.688-19.283-16.832-32.248-12.99-39.739 8.234-6.723 18.002 1.386 31.088 16.651a230.085 230.085 0 0 0 19.76 21.365 100.094 100.094 0 0 1 18.781-14.36 231.292 231.292 0 0 1-17.752-24.133m.569-.35a232.398 232.398 0 0 0 17.697 24.188 99.777 99.777 0 0 0-19.691 15.055c-13.027-13.123-13.278-13.373-19.814-21.319-30.142-34.93-32.027-9.869-32.09-8.783-1.261 20.911 23.4 39.549 36.646 49.549a105.695 105.695 0 0 0-10.2 22.984 213.909 213.909 0 0 1-23.911-16.124c-60.858-52.64-36.415-126.764-8.63-127.759 19.69-.705 39.264 29.852 59.984 62.231m327.686 38.358c8.694-9.628 12.745-25.511 1.115-37.639-20.72-16.629-49.21 5.541-47.385 29.724 1.694 22.447 28.936 27.107 46.27 7.915Zm.951.763c-9.354 10.296-29.541 19.011-43.147 5.001-15.799-20.534 5.654-54.386 31.863-50.308 20.611 3.204 26.824 28.183 11.266 45.294"></path>
      <path fill="#fff" d="M399.214 336.642c11.484-11.819 12.831-22.61 4.096-33.038-16.75-11.71-29.045 2.022-33.082 6.536a1306.883 1306.883 0 0 0-12.017 16.088 320.992 320.992 0 0 1 25.699 23.506 945.53 945.53 0 0 0 15.29-13.092m.669.687a902.286 902.286 0 0 1-15.367 13.01 321.755 321.755 0 0 0-26.924-24.648 1262.5 1262.5 0 0 1 11.93-16.16c19.45-21.933 39.424-9.66 40.612 5.455.619 7.883-2.822 15.406-10.228 22.356m7.838-210.701c4.374-6.723 2.731-13.565-4.26-17.856-13.406-6.523-25.75 4.65-21.767 15.619 3.418 9.415 17.948 12.274 25.972 2.323l.055-.072m1.252.731-.05.073c-5.918 7.305-15.517 9.014-23.406 4.164-11.78-9.023-4.984-24.265 8.034-25.911 12.632-1.586 23.283 10.26 15.422 21.665m7.042 4.205c13.323-22.451-9.773-36.03-25.946-32.652-21.107 4.414-25.977 29.72-7.784 40.412 3.961 2.3 8.968 3.245 14.885 2.791l1.493-.164a724.618 724.618 0 0 0-14.484 21.993c-2.167 4.245 1.438 6.573 4.056 5.873 1.365-.373 1.998-1.15 2.594-1.9 8.239-12.66 16.71-24.911 25.186-36.367m1.188.832c-8.471 11.428-16.947 23.638-25.199 36.258-2.436 3.063-5.585 3.6-8.426 1.441-2.226-2.637-1.543-4.928-.582-6.819a748.999 748.999 0 0 1 12.795-19.606c-26.232.645-32.346-26.425-19.195-39.198 15.476-15.029 44.981-5.337 45.104 14.814.036 6.31-2.69 10.406-4.497 13.115"></path>
      <path fill="#fff" d="M427.986 145.392c-2.349 11.692 10.924 20.865 21.544 14.87a526.762 526.762 0 0 0-21.544-14.87Zm-.911-2.3a547.28 547.28 0 0 1 24.981 17.238l-.819.554c-8.749 5.723-16.769.887-19.023-.732-3.118-2.432-7.933-7.887-5.139-17.06Zm35.004 18.588c.492-.946.979-2.846-1.306-4.896a552.048 552.048 0 0 0-28.836-20.079c10.014-6.455 21.648-2.577 27.01 9.015 1.821 3.932 8.298 2.272 7.62-1.941-.4-2.501-2.235-7.51-10.014-12.947l-.2-.141c-21.549-13.41-43.183 4.091-37.721 23.734 6.454 23.229 37.143 19.369 43.442 7.273m1.325.664c-3.031 5.873-20.397 18.369-38.577 4.427-17.961-16.924-5.612-41.366 15.372-42.098 8.53-.291 14.479 3.409 17.015 5l.2.137.209.145c11.293 7.955 13.269 17.883 6.45 19.206-1.648.323-5.13.104-6.523-3.009-3.673-8.183-12.203-14.283-22.977-9.392a553.102 553.102 0 0 1 27.097 18.942c3.186 2.878 2.276 5.61 1.734 6.651m17.82 40.739a4.89 4.89 0 0 0 .61-1.1c12.099-31.821 13.965-38.803 13.975-38.844.427-2.482-2.345-6.25-6.446-4.591-28.221 14.619-36.469 20.11-36.519 20.147-2.877 2.205-1.93 6.05.91 7.096a4.4 4.4 0 0 0 1.86.221 4.4 4.4 0 0 0 1.782-.576c14.661-8.405 16.195-9.282 27.169-15.055-2.589 7.337-6.044 17.124-8.807 24.401-.565 1.496-1.607 3.419-1.821 5.001-.61 4.168 3.387 5.609 5.681 4.582a4.325 4.325 0 0 0 1.629-1.282m1.152.886c-3.095 3.978-9.559 2.21-10.014-2.727-.032-.35-.032-.35 9.559-27.816-15.304 8.301-15.595 8.46-23.797 13.26-.911.455-3.76 1.819-6.559-.454-3.041-2.855-2.176-6.655.409-8.678.064-.046 16.633-10.124 36.597-20.229 4.775-1.955 9.176 1.941 8.68 6.155-.082.677-6.277 19.065-14.042 39.021a6.528 6.528 0 0 1-.833 1.482M371.439 93.038c.65-1.472-.843-3.123-3.046-2.659-5.999 1.468-10.469 2.578-17.556 4.546-.974.273-3.25.91-2.708 3.127.132.414.983 3.214 3.113 10.419 1.684 5.692 1.684 5.692 1.821 5.883.988 1.659 3.605 1.4 4.52-.455a2.135 2.135 0 0 0 .168-1.541l-4.028-13.787c17.265-4.46 17.265-4.46 17.752-5.55m1.429.367c-.769 1.75-.769 1.75-17.324 6.01l3.641 12.519c.761 3.359-3.022 6.014-6.227 4.369a3.254 3.254 0 0 1-1.502-1.887c-1.82-5.223-3.09-10.619-4.77-15.887-.806-3.141 2.481-4.424 2.513-4.437.186-.068 19.04-6.332 22.263-4.51 1.233.7 2.157 2.155 1.424 3.823m143.747 116.127a2.64 2.64 0 0 0 .455-1.596c-.819-19.019-.942-19.137-1.884-20.096-1.794-1.523-4.097-.546-4.015 1.713l.91 15.938c-15.881 0-15.881 0-16.15.077a2.484 2.484 0 0 0-1.849 2.742 2.481 2.481 0 0 0 2.519 2.145c4.183-.105 8.648-.182 17.21 0 1.193 0 2.053.041 2.768-.909m1.151.936a3.835 3.835 0 0 1-3.013 1.459c-19.714.119-19.714.119-21.116-1.313-2.021-2.496-.815-5.414 1.611-6.364.547-.214.547-.214 15.345-.251l-.838-14.451c.105-4.309 4.552-4.809 6.655-2.459.678.75 1.702 1.887 2.112 20.847a4.042 4.042 0 0 1-.756 2.528m-49.687 340.86c25.244 10.806 48.472 5.705 51.772-11.364-.205-16.078-17.351-28.566-52.432-38.185l-.401-.109c-2.308-.582-5.385-1.363-7.706-1.873 1.165 16.102-.21 31.144-3.901 44.795a91.685 91.685 0 0 0 12.668 6.732m-.028.691a90.988 90.988 0 0 1-12.799-6.819c3.864-14.005 5.284-29.484 4.005-46.08l2.376.522 5.33 1.328.401.104c67.408 18.183 56.743 44.817 45.482 51.94-8.321 5.264-24.457 7.774-44.795-.982m7.247 32.521c67.872 27.352 120.623-21.165 105.743-61.618-2.785-7.555-6.44-11.887-10.31-16.469l-.614-.678c29.227-4.25 57.098-13.046 80.472-25.72 14.384-9.641 20.77-22.77 19.523-40.144-4.133-15.223-12.786-18.596-28.062-10.909-50.184 30.72-120.747 47.853-180.207 41.366l-7.424-.554c9.458 37.925 5.949 71.718-8.094 97.802 14.985 11.178 27.585 16.401 28.973 16.96m-.027.723c-2.349-.973-14.812-6.364-29.219-17.174 14.361-26.324 17.93-60.581 8.194-99.057l7.415.523c59.401 6.264 129.909-11.074 180.075-41.871 26.933-13.574 33.383 11.655 27.766 29.374-4.661 14.724-14.22 21.125-18.818 24.198-22.727 12.273-49.696 20.91-78.041 25.192 38.186 46.526-16.427 95.789-74.923 85.343a120.963 120.963 0 0 1-22.445-6.528m-69.042 37.776c17.201 18.905 40.466 26.601 55.318 18.301 11.744-9.869 2.84-25.061-30.729-52.431a101.66 101.66 0 0 1-33.229 22.947 92.097 92.097 0 0 0 8.649 11.183m-.487.381a89.785 89.785 0 0 1-8.703-11.319 101.73 101.73 0 0 0 34.175-23.606l2.098 1.7c12.622 10.601 29.906 25.116 33.93 37.985 3.045 9.737-3.788 16.901-16.61 17.419-11.562.455-29.423-5.114-44.89-22.179Zm21.152 56.064c22.85 11.878 48.359 6.505 46.301-1.137-.255-.936-1.065-2-1.638-2.782l-.237-.264c18.999-1.395 29.332-4.482 42.523-12.696 31.057-24.915 11.894-37.957-68.76-92.857a98.025 98.025 0 0 1-12.335 17.079c-14.803 16.433-35.281 27.879-60.371 32.789l4.01 7.123c14.566 23.683 32.031 41.439 50.525 52.731m-.91.177c-18.403-11.319-35.782-29.093-50.261-52.795l-3.983-7.127c25.385-4.837 46.087-16.338 61.017-32.912a98.18 98.18 0 0 0 12.622-17.578l7.238 4.9c57.694 38.257 69.702 46.222 74.053 59.627 10.115 31.152-39.396 40.257-41.508 40.63-3.577.632-8.411 1.073-12.035 1.364 7.707 11.064-18.585 12.274-31.312 9.76a52.41 52.41 0 0 1-15.831-5.91"></path>
      <path fill="#fff" d="M480.022 468.065c75.729-3.309 88.674-74.509 48.982-106.371-12.29-9.855-47.006-29.452-103.781 1.364a397.977 397.977 0 0 1-19.746 10.992 292.557 292.557 0 0 1 19.809 28.111c7.01-1.864 14.298-4.16 21.79-6.819 12.29-3.541 29.906-6.414 41.285 9.437 3.419 9.787 2.454 22.611-21.566 28.143-15.231 1.909-15.827 1.982-24.125 2.377a232.852 232.852 0 0 1 6.696 17.274 215.433 215.433 0 0 1 4.187 13.688 226.757 226.757 0 0 0 26.492 1.818m.241.846a227.582 227.582 0 0 1-26.537-1.905 211.872 211.872 0 0 0-4.383-14.433 232.283 232.283 0 0 0-7.024-18.01 234.673 234.673 0 0 0 24.088-2.478c29.956-7.009 24.403-26.979 13.965-33.889-12.003-7.941-27.128-3.636-32.823-2.036-7.506 2.641-14.816 4.909-21.849 6.741a292.522 292.522 0 0 0-20.806-29.502c6.263-3.286 12.85-7.005 19.668-11.082 83.426-45.799 136.701 10.669 126.487 56.754-1.821 8.182-13.77 49.094-70.827 49.817m-94.937 215.902c8.689 5.623 23.974 8.91 38.035 8.182 3.578-.377 14.452-1.518 5.608-9.037-13.788-11.723-51.436-24.388-51.354-9.546 0 3.464 2.827 7.273 7.711 10.428m-.97.041c-10.3-6.687-10.624-16.024-.614-17.833a29.253 29.253 0 0 1 3.832-.296c18.094.846 50.904 18.079 45.592 23.948-4.511 5-34.54 3.445-48.81-5.819Zm-33.051-40.862c2.636 4.677 12.746 20.001 32.318 20.656 9.919-2.096 9.86-8.151-.232-23.143a200.193 200.193 0 0 1-13.5-21.365 152.632 152.632 0 0 1-28.468 2.205c2.759 6.591 6.373 15.455 9.873 21.67m-.828 0c-3.478-6.224-7.046-15.079-9.777-21.666 10.002.207 20-.566 29.851-2.309a202.009 202.009 0 0 0 13.582 21.365c14.994 22.079 6.177 25.266-3.855 24.057-1.958-.237-19.4-2.851-29.801-21.457m209.812 24.866c6.896-2.859 14.648-7.273 18.662-9.633 2.222-1.341 2.964-1.818 3.187-2.154-.952-.237-12.982 5-18.262 7.596-5.353 2.623-8.744 4.827-8.239 5.368.455.455 3.464-.709 4.606-1.154h.064m-.91.454-.064.028c-4.784 1.854-5.399 1.5-5.071.877.455-.841 3.227-2.455 4.274-3.064 8.353-4.614 23.643-10.869 24.899-10.91-.205.877-15.904 9.769-24.038 13.092m-5.262 2.623a229.143 229.143 0 0 0 6.75-3.037c8.781-4.709 20.447-11.091 28.927-16.324l.91-.641c-3.555 0-42.582 16.843-44.498 21.311l-.055.223a96.605 96.605 0 0 1-19.905 2.441c-1.862.095-6.081.768-6.477 2.127.573.323.573.323 1.506.35a91.265 91.265 0 0 0 32.828-6.45m-1.015.477a90.91 90.91 0 0 1-32.709 6.401c-1.707-.055-1.771-.173-2.076-.737.678-.736.678-.736 1.903-1.277a23.368 23.368 0 0 1 6.909-1.364 97.607 97.607 0 0 0 17.752-1.977c4.097-6.433 46.825-22.466 47.23-22.584-1.274 1.1-7.415 5.705-32.9 18.806l-2.185 1.023c-1.179.509-2.731 1.2-3.924 1.691"></path>
      <path fill="#fff" d="M528.9 682.14c3.207-1.1 6.362-2.269 9.463-3.505-6.418 2.314-13.027 4.091-19.341 6.701l9.878-3.183m3.641-1.277-14.943 4.9h-.041c.619-.263 3.213-1.172 5.248-1.872 17.115-5.878 17.115-5.878 18.012-6.21a237.657 237.657 0 0 1-8.276 3.182Zm12.786-4.937 6.828-2.927c-6.177 2.691-13.742 5.168-23.751 8.378-5.767 1.85-16.505 5.291-18.986 6.618h.387c10.751-3.323 25.099-7.814 35.504-12.046m0 0c-10.965 4.055-25.718 9.092-36.933 12.419l-.324.077c.114-.177.383-.586 9.172-3.582 32.737-10.91 32.737-10.91 36.242-12.441-2.449 1.059-5.681 2.536-8.157 3.527Zm-43.565 14.051c-.833.187-.833.187-2.672.568-1.921.401-5.494 1.141-6.123 1.364.103-.004.205-.014.305-.032l.701-.141 7.789-1.745m1.365-.332-10.546 2.368-.692.132c-.123 0-.283.046-.405.055.118-.059.232-.118 1.925-.5 3.232-.719 6.491-1.305 9.718-2.055Zm96.071-44.585a23.852 23.852 0 0 0 2.854-1.946 1.98 1.98 0 0 0 .455-.454 12.486 12.486 0 0 1-2.139-1.364c-.146-.109-.487-.359-2.772 1.027a236.835 236.835 0 0 1-16.637 9.278c-1.079.55-1.703 1.023-1.857 1.405l.086.127c.656.082 1.821-.413 2.654-.841l14.429-8.118c2.017 1.404 2.017 1.404 2.941.881m-.688.573c-1.456.832-1.456.832-3.341-.504l-13.104 7.364c-.984.5-3.369 1.627-4.288 1.277-.087-.273 0-.5.787-1.114.664-.485 1.371-.91 2.112-1.268 7.697-3.905 13.301-7.173 16.642-9.228 2.631-1.577 3.669-1.795 3.992-1.818 1.129-.068 1.552 1.064 2.435 1.418-.077.555-3.714 3.005-5.235 3.869M503.191 67c9.104 6.15 21.28 14.365 30.165 20.852l-3.159-2.237c-7.169-4.546-7.169-4.546-87.746-45.958-37.989-19.692-37.989-19.692-44.362-22.056l13.087 4.36c30.738 11.85 31.33 12.078 47.644 20.065C485.83 56.254 490.683 58.818 503.2 67m88.042 71.701-8.899-8.915c-9.24-8.568-21.685-19.869-31.28-28.038-1.029-.818-6.195 3.378-15.322 12.574-5.79 8.769-1.921 20.256 11.503 34.152 18.412 14.942 28.767 12.537 34.211 7.887 7.925-10.232 11.175-16.192 9.787-17.66Z"></path>
      <path fill="#616CEA" d="M656.142 222.466a29.5 29.5 0 0 0-1.657-2.982l-7.069-11.087c-6.464-9.237-15.108-21.538-21.936-30.507a7.271 7.271 0 0 0-.655-.682l-.228.232c.187 1.296 4.288 14.024 16.719 32.18 11.885 16.551 15.24 15.692 15.376 15.646.201-.418.387-.814-.55-2.8Z"></path>
    </g>
    <mask id="c" width="111" height="108" x="286" y="311" maskUnits="userSpaceOnUse" style="mask-type: luminance">
      <path fill="#fff" d="M286.419 339.461c.406 0 .947-.055 1.366-.105.692-.091 1.62-.213 2.303-.368a61.298 61.298 0 0 0 6.477-1.818c2.035-.732 4.662-1.932 6.61-2.873 1.329-.641 3.004-1.678 4.292-2.405a59.286 59.286 0 0 0 7.893-5.632c2.503-2.096 5.59-5.182 7.856-7.528 4.602-5.109 11.794-7.937 20.871-7.437 20.615 1.132 43.128 19.001 50.284 39.907 4.001 11.701 2.348 21.875-3.501 28.366-1.939 2.309-4.615 5.31-6.195 7.864-.865 1.364-2.116 3.182-2.881 4.605a92.444 92.444 0 0 0-4.097 8.469c-.478 1.218-1.097 2.855-1.456 4.091a91.731 91.731 0 0 0-1.598 6.523c-.18.902-.31 1.812-.387 2.728-.055.7-.141 1.636-.164 2.336v1.996a25.5 25.5 0 0 0-.378-1.664c-.232-.85-.555-1.977-.855-2.8-.865-2.359-2.181-5.455-3.241-7.728-.792-1.7-2.012-3.895-2.95-5.523-.937-1.627-2.276-3.882-3.377-5.455-2.381-3.441-5.722-7.914-8.312-11.201-1.434-1.818-3.518-4.114-5.089-5.818a152.133 152.133 0 0 0-11.102-10.833c-1.734-1.559-4.137-3.536-5.963-5-1.825-1.464-4.174-3.282-6.054-4.546-1.879-1.264-4.274-3.018-6.19-4.173-3.469-2.091-8.143-4.8-11.748-6.646-1.584-.809-3.746-1.782-5.385-2.477-1.566-.669-3.673-1.532-5.289-2.064-2.199-.718-5.153-1.605-7.402-2.146a27.64 27.64 0 0 0-2.503-.454 33.577 33.577 0 0 0-1.835-.191Z"></path>
    </mask>
    <g fill="#fff" mask="url('#c')">
      <path d="M286.419 339.461a23.125 23.125 0 0 0 3.642-.455c3.983-.941 4.22-1 6.586-1.85 8.157-3.141 15.864-7.351 24.18-10.11l1.079.759c-1.544 2.51-10.333 14.888-31.749 12.224-2.668-.455-2.668-.455-3.747-.55m3.888.577 5.321.65c13.127-.791 22.272-5.323 27.174-13.469l-1.083-.8-3.819 1.3c-12.536 5.946-20.82 9.878-27.839 11.269a24.915 24.915 0 0 1-3.642.455c1.308.105 2.606.298 3.888.577"></path>
      <path d="M320.595 353.471c-7.898-4.746-7.898-4.746-11.913-6.728-2.194-1.005-5.12-2.355-7.355-3.273 2.694.973 5.239 1.891 12.103 3.046 4.151.695 6.655 1.118 8.512 2.041 3.423 1.7 1.716 4.896.3 5.314a1.829 1.829 0 0 1-1.397-.246l-.25-.154Zm0 0 .578.368.455.223c2.59.427 3.45-3.105 2.18-4.619-.573-.686-1.525-1.095-2.362-1.454-2.149-.669-2.731-.787-7.706-1.555-7.142-1.105-9.71-2.014-12.691-3.073 2.303.982 5.371 2.305 7.633 3.382 7.629 4.028 7.93 4.187 11.913 6.728Zm12.244 8.732c-8.07-6.077-8.07-6.077-12.244-8.732-7.898-4.746-7.898-4.746-11.913-6.728-6.991-3.209-6.991-3.209-10.51-4.459-1.852-.591-4.324-1.364-6.204-1.869 15.604 3.355 27.589-.109 42.819-5.373 5.312-1.818 10.802-3.732 13.264-2.432 6.828 3.637-13.009 30.184-13.296 30.402a3.352 3.352 0 0 1-.55.273l-.073-.045-1.293-1.037Zm0 0 1.602 1.291.078.041c2.33-1.332 20.437-28.184 14.26-31.575a7.88 7.88 0 0 0-1.643-.413c-3.068.181-3.996.236-11.784 3.018-15.449 5.518-27.621 9.164-43.571 5.805 1.93.532 4.489 1.286 6.373 1.914 6.459 2.504 6.714 2.6 10.51 4.459 7.697 4.064 7.848 4.141 11.912 6.728 7.934 5.346 8.408 5.668 12.245 8.732m14.548 13.128-2.85-2.859c-2.731-2.514-6.372-5.846-9.172-8.25 1.598 1.263 15.217-11.942 40.056-39.49a69.057 69.057 0 0 1 5.403 5.001c-24.762 27.479-35.827 43.044-33.419 45.603m.277.282c-2.494-2.664 8.512-18.288 33.265-45.758a68.634 68.634 0 0 0-5.667-5.237c-24.835 27.561-38.517 40.708-40.22 39.344 2.886 2.505 6.701 5.882 9.477 8.505l3.127 3.141m26.997 35.526c-.487 3.463-.537 3.827-.56 6.164v.909-.087l-.159-.759c-2.918-14.851 2.572-26.652 8.157-32.247l.637.786c-.287.991-.287.991-6.332 18.233-.587 2.082-1.365 4.869-1.748 7.001m0 0c.456-2.219 1.22-5.16 1.858-7.337l3.049-8.469c1.197-3.091 2.731-7.237 3.687-10.414l-.669-.787c-1.324 1.291-12.836 13.215-8.475 33.975v-.823c.017-2.066.204-4.128.56-6.164"></path>
      <path d="m365.316 398.229-2.025-3.183c-1.821-2.595-4.256-6.041-6.177-8.559a6.073 6.073 0 0 1-.778-1.309c-1.175-4.092 1.952-3.696 2.635-3.182 1.325.986 2.007 3.495 3.036 7.273 1.297 4.773 1.725 5.691 2.859 8.155.145.268.291.532.455.795m8.357 18.184c-.241-.796-.551-1.86-.815-2.646-.487-1.277-1.11-2.987-1.643-4.241-3.309-7.901-3.314-17.215.214-27.57 4.097-10.41 7.679-12.842 9.035-13.406l.456.35c0 1.577-.046 2.105-2.117 7.728-2.581 6.978-2.981 8.21-4.552 13.583-2.526 9.182-2.676 18.006-.582 26.224m-8.194-17.896a14.265 14.265 0 0 1-.423-.76c-1.179-2.559-1.666-3.636-2.954-8.637-.947-3.682-1.366-5.205-2.354-6.85-1.178-1.909-3.418-1.287-3.878.573a4.609 4.609 0 0 0 .237 2.05c.203.465.463.903.774 1.304 1.966 2.628 4.552 6.142 6.409 8.851l2.189 3.455m8.225 18.006c-2.062-8.205-1.902-16.997.606-26.134 1.657-5.623 2.125-7.05 4.861-14.278 2.176-5.742 2.317-6.364 2.276-8.078l-.496-.364c-1.457.609-5.321 3.182-9.632 14.092-3.55 10.369-3.55 19.683-.218 27.557.528 1.332 1.261 3.1 1.734 4.455.259.822.619 1.918.847 2.754m-7.456-42.035c-2.968 6.574-4.256 9.142-6.255 6.66-6.527-10.705 10.706-27.979 13.374-26.734 1.611.75-.237 4.842-7.119 20.074Zm.086.264c8.785-19.642 8.949-20.001 7.602-21.133-3-.505-10.602 8.087-13.146 13.183-4.374 8.741-1.784 13.591-.91 14.869 2.043 2.909 3.509-.373 6.431-6.905"></path>
    </g>
    <mask id="d" width="348" height="324" x="112" y="263" maskUnits="userSpaceOnUse" style="mask-type: luminance">
      <path fill="#fff" d="M323.198 318.736c-46.624 51.745-140.984 42.826-210.75-19.924 21.786-24.174 55.851-37.566 98.825-35.202 97.601 5.35 204.186 89.961 238.066 188.954 18.967 55.409 11.129 103.585-16.569 134.319-69.775-62.732-88.542-155.561-41.918-207.31-1.944 2.273-4.397 5.455-6.177 7.859-.805 1.096-1.707 2.673-2.43 3.828-1.644 2.618-3.319 6.409-4.552 9.246a62.517 62.517 0 0 0-2.276 6.905c-.319 1.1-.596 2.605-.801 3.728-.228 1.213-.41 2.85-.501 4.091-.05.623-.055 1.459-.059 2.086 0 .259 0 .609.027.869a.282.282 0 0 1-.023-.046 25.576 25.576 0 0 0-.487-2.046c-.241-.85-.582-1.977-.91-2.804-.91-2.387-2.276-5.496-3.355-7.805-.764-1.632-1.952-3.728-2.858-5.287-.906-1.559-2.217-3.746-3.278-5.278-2.385-3.441-5.744-7.909-8.339-11.196-1.411-1.791-3.459-4.041-5.007-5.714a144.032 144.032 0 0 0-11.074-10.805 146.436 146.436 0 0 0-12.012-9.601 134.671 134.671 0 0 0-12.227-7.792c-1.82-1.031-4.292-2.377-6.204-3.259-2.995-1.364-7.042-3.132-10.137-4.277-1.311-.482-3.09-1.019-4.429-1.401-1.019-.295-2.403-.595-3.436-.845-.733-.177-1.73-.323-2.476-.455-.424-.059-.988-.095-1.412-.141 1.767-.027 5.781-.768 8.954-1.882 5.171-1.818 7.283-2.959 11.252-5.186a63.295 63.295 0 0 0 8.193-5.714c2.704-2.173 5.963-5.414 8.38-7.915Z"></path>
    </mask>
    <g fill="#fff" mask="url('#d')">
      <path d="M256.878 329.655c-9.263-5.604-17.752-12.428-27.352-17.492-8.343-4.4-11.261-4.727-14.766-4.723-9.104 2.028-2.212 13.369 9.623 20.884a77.017 77.017 0 0 0 10.642 5.455l.314.127a97.7 97.7 0 0 0 46.601 5.741 6.425 6.425 0 0 0-1.493-.395c-10.127-1.455-19.896-7.369-23.569-9.597Zm.314-.027c12.404 7.564 19.678 9.21 25.695 9.855a8.026 8.026 0 0 1-1.675.323c-21.767 1.85-35.049-1.709-46.187-5.832l-.31-.123c-26.018-11.423-28.485-24.652-22.499-26.943 4.128-1.582 11.17 1.578 14.005 3.014 10.98 5.546 20.525 13.328 30.953 19.706m8.648-4.546c-15.781-15.492-28.79-33.511-44.721-48.862-7.333-7.069-15.454-11.006-19.355-12.897a148.052 148.052 0 0 0-32.158 3.364c-1.93 3.182-2.181 4.21-3.123 8.033l-.064.604a209.006 209.006 0 0 1-4.429-6.691 113.297 113.297 0 0 0-23.214 9.469c24.971 30.729 54.845 51.281 84.509 60.668 25.559 6.564 43.926 8.114 73.394-1.637-4.493 1.441-4.493 1.441-6.586 1.85a24.645 24.645 0 0 1-3.642.455c1.26.098 2.511.282 3.746.55-5.694-1.6-12.781-3.596-24.311-14.91m.332-.032c11.876 11.524 18.663 13.433 24.125 14.969-2.681-.486-2.731-.495-3.887-.577a25.478 25.478 0 0 0 3.641-.455c3.951-.936 4.274-1.013 6.828-1.945l-5.881 1.991c-22.882 5.991-38.9 7.505-68.036-.114-29.733-9.346-59.688-29.847-84.755-60.527 7.7-4.24 15.868-7.571 24.338-9.928l2.986 4.591a48.03 48.03 0 0 1 2.08-5.909c11.239-2.673 23.47-3.982 36.588-3.787l3.714 1.819c22.418 17.046 38.236 40.457 58.264 59.877"></path>
      <path d="M318.942 351.289c-2.836-4.869-4.711-10.269-8.157-14.801-4.192-5.514-6.709-7.21-10.068-9.169-10.47-4.669-13.128 1.432-11.562 5.878.674 1.909 3.186 6.727 12.172 10.273 2.216.955 5.175 2.232 7.355 3.273 7.697 4.064 7.848 4.141 11.912 6.728l.251.154c-.387-.263-1.006-.8-1.903-2.336Zm.355.209a7.67 7.67 0 0 0 1.78 2.273l-.483-.3c-7.897-4.746-7.897-4.746-11.912-6.728-2.276-1.045-5.316-2.436-7.633-3.382l-.059-.027c-15.891-6.819-14.612-16.365-9.136-18.142 4.511-1.469 10.519 1.7 14.475 5.491a38.984 38.984 0 0 1 6.049 7.423c2.668 4.282 4.429 9.023 6.919 13.392Zm27.662-11.624c2.203-3.836 6.304-10.978 3.049-20.165a320.634 320.634 0 0 0-12.704-9.255c-3.564.591-4.643.773-8.562 3.496l-.337.268c-2.94-7.441-6.372-11.728-9.44-15.51a287.146 287.146 0 0 0-29.587-15.274c-25.873-.909-36.123 27.897-16.619 46.726 7.065 6.819 14.657 8.969 19.191 10.255 1.871.523 4.36 1.26 6.204 1.869 6.459 2.504 6.714 2.6 10.51 4.459 7.697 4.064 7.847 4.141 11.912 6.728 8.225 5.546 8.225 5.546 12.245 8.732l1.292 1.037-.141-.509c-.127-2.273 4.129-9.878 12.968-22.857m.569.455c-8.93 12.905-13.264 20.456-13.2 22.665l.118.491-1.602-1.291c-8.07-6.078-8.07-6.078-12.244-8.732-7.898-4.746-7.898-4.746-11.912-6.728-6.992-3.209-6.992-3.209-10.51-4.459-1.908-.61-4.457-1.401-6.373-1.914l-3.696-1.032c-35.504-14.369-29.969-45.781-12.29-54.522 2.927-1.446 7.283-2.228 10.533-2.728a286.674 286.674 0 0 1 35.158 18.12l.66.823c3.218 4.773 3.933 5.964 6.6 11.75 2.222-1.481 3.97-2.654 7.242-3.241a324.134 324.134 0 0 1 15.477 11.274l.086.245c.615 4.514 1.452 10.697-4.006 19.274"></path>
      <path d="M205.87 333.278c-20.642-9.482-39.883-21.728-60.78-30.702-13.888-5.964-19.814-7.559-28.827-7.773a97.851 97.851 0 0 0-3.828 4.009 222.31 222.31 0 0 0 52.096 35.121c6.226.359 10.783 1.173 31.088 7.896 31.408 10.524 62.761 11.365 89.189 1.982 5.663-2.196 13.419-5.205 23.538-12.414-7.283 4.309-10.838 5.864-18.495 8.637-25.49 8.591-55.027 6.05-83.981-6.765m.301-.168c28.881 12.851 58.381 15.429 83.817 6.855 5.835-2.127 10.87-3.964 18.581-8.759l-.123.172c-10.711 7.455-17.338 10.037-23.752 12.538-26.446 9.418-57.867 8.609-89.311-1.86-19.227-6.305-23.702-7.096-29.319-7.396a221.888 221.888 0 0 1-53.629-35.848 100.404 100.404 0 0 1 5.007-5.164l2.362.073c32.277 5.496 57.549 26.311 86.362 39.389m166.629 27.548c2.731-2.473 7.146-7.81 6.241-15.792a322.021 322.021 0 0 0-12.773-11.819c-15.626-.805-26.4 17.033-16.682 27.665 5.985 6.555 15.963 6.533 23.214-.059m.587.482c-4.743 4.259-15.189 9.037-24.238-.059-5.868-6.978-4.015-14.092-1.43-18.801 4.484-8.183 15.436-10.91 17.352-10.274a321.76 321.76 0 0 1 15.103 13.974v1.714a19.915 19.915 0 0 1-6.782 13.446m-22.832 14.146a4.585 4.585 0 0 0 2.39-4.727c-.456-3.923-1.626-5.246-3.783-7.655-8.762-6.719-12.859-1.782-13.301-1.2-.664 1.445-.837 2.273-.514 2.55 2.79 2.432 6.486 5.705 9.172 8.25l2.85 2.86c.496.527 1.556.504 3.186-.078Zm.337.35c-1.653.56-2.731.56-3.246 0l-3.127-3.141c-2.799-2.595-6.568-6.027-9.477-8.505-.346-.273-.2-1.141.455-2.605 4.165-5.764 15.772-1.018 17.752 7.274.21.909 1.097 5.414-2.339 6.987m34.721 102.857c10.292 18.501 24.403 25.457 27.079 19.133.157-.493.277-.998.36-1.509-.046-2.614-.091-5.573-5.276-14.028-6.5-10.601-14.816-19.888-21.808-30.134l-.163-.241c-4.229-6.623-4.229-6.623-11.325-24.334-.911 1.982-1.716 28.011 11.133 51.113Zm-.027.418c-14.111-25.456-11.471-52.181-11.434-52.435.294.311.503.693.605 1.109 2.527 9.496 5.695 15.456 11.025 23.779l.164.241c8.402 12.273 19.386 22.679 25.722 36.366 6.295 13.637-2.016 12.956-2.981 12.833-5.663-.714-15.308-7.873-23.101-21.915m2.453 25.665c16.842 26.734 48.514 46.822 68.81 34.093a133.152 133.152 0 0 0 2.85-30.129c-2.604-4.419-3.642-5.723-7.005-10.06l-.551-.663a201.63 201.63 0 0 0 7.196 2.354 176.505 176.505 0 0 0-4.656-29.329c-33.971-5.223-58.264-17.729-71.259-34.353-4.684-6.636-7.283-10.291-9.513-19.124l.159.759v-.822c.012-2.067.199-4.129.56-6.164a114.347 114.347 0 0 1 1.748-7.001c-16 50.595 4.884 89.666 11.666 100.435m-.027.536c-8.749-14.192-27.393-52.467-11.53-101.307-.628 2.182-1.388 5.114-1.857 7.337-.487 3.463-.537 3.827-.56 6.164.025.273.025.549 0 .822l-.182-.863a85.249 85.249 0 0 0 2.781 8.182c8.79 16.224 25.581 35.962 77.836 44.685a176.125 176.125 0 0 1 4.884 30.752l-4.947-1.6a171.778 171.778 0 0 1 5.216 7.183 133.23 133.23 0 0 1-3.255 34.234l-2.398 1.473c-33.06 4.205-54.131-17.82-66.002-37.039"></path>
      <path d="M421.45 575.992c-3.105-10.951-11.662-26.598-19.937-41.731-24.098-44.066-40.375-78.551-30.279-121.163-16.76 48.813 2.03 113.245 50.216 162.894Zm1.301 1.332c-49.587-50.272-68.769-116.141-51.062-165.544l-.246.963c-10.141 43.267 6.323 77.765 30.689 121.773 9.267 16.742 17.269 31.198 20.61 42.808"></path>
      <path d="M391.166 443.309c25.14 19.115 47.08 10.605 51.049-8.991a258.557 258.557 0 0 0-14.566-28.184c-18.662-13.183-30.133-14.065-64.181-16.733-2.945-.282-5.057-1.259-6.322-2.896 1.889 2.541 4.397 5.941 6.177 8.56l2.025 3.182c1.944 3.223 5.053 5.746 9.286 7.491 13.655 5.751 17.793 9.355 21.421 14.797 3.5 9.791-6.477 7.032-8.585 6.082-.91-.405-2.021-1.132-2.886-1.618-6.322-4.21-10.801-9.424-13.337-15.456.501 1.268 1.193 2.95 1.644 4.241.245.791.596 1.846.814 2.646 2.558 10.028 8.467 19.156 17.479 26.915m.11.455c-9.077-7.864-15.021-17.101-17.557-27.238-.25-.828-.573-1.937-.846-2.755-.515-1.364-1.175-3.137-1.735-4.455 2.527 5.973 6.974 11.115 13.246 15.256 12.458 6.955 11.639-1.873 11.621-1.969-.91-5.291-8.025-10.823-21.139-16.446-4.274-1.791-7.41-4.36-9.372-7.637l-2.189-3.455c-1.88-2.686-4.416-6.246-6.409-8.851 1.251 1.605 3.341 2.546 6.254 2.801 32.673 2.241 46.196 3.182 63.27 15.051a258.565 258.565 0 0 1 16.715 32.384l-.456 2.118c-9.445 21.729-33.565 19.674-51.435 5.137"></path>
    </g>
    <mask id="e" width="112" height="244" x="321" y="379" maskUnits="userSpaceOnUse" style="mask-type: luminance">
      <path fill="#fff" d="M432.77 586.883c-21.781 24.179-55.846 37.566-98.82 35.203-26.724-78.083-10.592-183.332 36.032-235.076 9.076.495 16.268-2.332 20.87-7.437-46.624 51.749-27.857 144.56 41.918 207.31Z"></path>
    </mask>
    <g fill="#fff" mask="url('#e')">
      <path d="M354.683 513.551c4.875 25.765 17.27 41.266 25.104 37.916 2.872-2.773 4.01-6.914 1.338-19.874l-19.609-74.097c-.888-3.218-1.116-3.463-1.935-3.982-3.682.964-10.601 29.889-4.898 60.059m-.268.278c-5.808-30.971 1.456-60.664 5.275-61.655.342.223.983.646 1.461 2.414 2.9 10.633 4.429 21.579 7.315 32.216 3.787 13.965 8.685 27.606 12.358 41.607.601 2.273 1.27 5.355 1.716 7.674 1.921 10.078.647 16.41-3.509 17.374-6.873 1.6-19.573-12.706-24.616-39.63Zm4.46 80.796c2.945 6.364 8.43 18.229 18.945 23.866 3.9-.934 7.679-2.031 11.339-3.292.068-3.677.091-4.791-1.821-11.255l-.2-.595c7.123 3.709 9.103 4.627 16.614 5.677a101.936 101.936 0 0 0 19.609-13.01c1.653-7.228.082-12.873-1.902-20.001-48.195-49.695-66.985-114.127-50.225-162.939 2.321-8.737 2.321-8.737 2.471-9.601-.341.096-33.651 30.989-32.732 108.585a253.12 253.12 0 0 0 17.902 82.543m-.564.1a253.59 253.59 0 0 1-17.666-82.565c-.728-78.715 33.129-110.249 33.475-110.349-.119 1.818-.119 1.818-2.422 10-17.716 49.404 1.466 115.272 51.053 165.544l1.457 5.15c.601 3.97.905 7.978.91 11.992a101.9 101.9 0 0 1-23.282 15.501l-.911-.127c-5.685-1.455-6.987-2-12.495-4.741 1.225 4.209 1.43 5.187 1.821 8.673-4.429 2.605-9.035 3.946-13.815 5.037l-.254-.136c-4.794-3.683-11.38-8.719-17.903-23.948"></path>
      <path d="M333.039 600.243c2.017 6.619 6.132 15.82 14.28 22.07 4.897-.109 9.662-.433 14.292-.973 3.519-11.819-16.505-60.391-26.273-53.735-4.784 3.259-6.787 17.91-2.276 32.638m-.61.123c-4.756-15.751-2.849-35.503 5.695-34.898 10.014 3.291 26.905 41.308 24.757 55.718a153.79 153.79 0 0 1-16.915 1.15l-1.702-1.519c-2.681-2.786-8.252-8.577-11.835-20.456"></path>
      <path d="M324.614 531.106c.806 23.279 6.855 29.548 11.785 30.753 6.158-2.519 6.372-13.142 4.656-31.871-5.949-55.431 6.373-110.221 36.237-143.347a32.364 32.364 0 0 1-6.045.414c-29.841 33.121-46.328 88.188-46.633 144.051Zm-.423 0c0-26.529 4.51-93.679 46.883-144.046a32.404 32.404 0 0 0 6.337-.432c-18.886 23.07-43.165 63.027-36.001 143.306 4.097 42.989-7.023 33.452-9.295 31.102-1.324-1.364-7.924-9.228-7.943-29.93"></path>
    </g>
    <mask id="f" width="348" height="325" x="281" y="75" maskUnits="userSpaceOnUse" style="mask-type: luminance">
      <path fill="#fff" d="M323.198 318.736c46.624-51.749 27.857-144.555-41.918-207.314 21.781-24.175 55.847-37.562 98.82-35.203 97.61 5.369 204.2 89.966 238.061 188.954 18.968 55.409 11.129 103.585-16.568 134.324-69.775-62.732-164.135-71.669-210.75-19.924 5.849-6.492 7.501-16.665 3.5-28.366-7.155-20.911-29.669-38.776-50.284-39.907-9.067-.519-16.259 2.327-20.861 7.436Z"></path>
    </mask>
    <g mask="url('#f')">
      <path fill="#fff" d="M361.22 76.519c-2.103 1.923-3.51 2.223-6.314 2.814-2.612.032-5.084.059-8.789-1.491a148.735 148.735 0 0 1 15.385-1.623c-.09.113-.185.22-.287.323m42.419 15c.687-3.636.974-8.6 1.365-12.273a195.539 195.539 0 0 0-24.898-3.05c-28.754-1.577-53.516 3.891-73.285 14.928 32.318 41.949 47.594 80.461 51.063 128.75 1.074 24.002 1.074 24.002 1.971 26.366 3.555-1.473 6.654-13.687 7.71-30.398.911-27.688-3.546-57.095-13.305-85.219 31.563 26.447 44.485-13.183 49.379-39.135m73.73 13.951a31.798 31.798 0 0 1-5.412-1.959c-3.114-1.841-4.051-2.396-5.28-3.541a290.673 290.673 0 0 1 10.788 5.514.769.769 0 0 1-.096 0m33.347 52.681a1210.742 1210.742 0 0 0 14.966-20.456c-32.263-26.166-69.188-45.758-106.372-55.3l1.393 3.81c25.846 68.641 30.498 81.015 61.309 69.095-4.293 26.189 9.104 20.002 17.483 13.951 2.577-1.859 6.619-5.295 11.221-11.132"></path>
      <path fill="#fff" d="M306.748 98.693c14.033 24.093 19.809 52.109 16.386 63.187a221.404 221.404 0 0 0-41.876-50.459 98.928 98.928 0 0 1 22.03-18.228c1.029 1.65 2.458 3.818 3.437 5.5"></path>
      <path fill="#04E0BD" d="M531.795 181.736c-9.691 7.618-32.027 18.478-29.787.127 1.861-15.237 21.102-44.126 38.294-30.293 9.422 9.901 1.784 22.074-8.507 30.166Z"></path>
      <path fill="#fff" d="M428.655 233.13c-4.552 7.273-8.949 12.056-10.692 11.61-2.832-2.727 10.924-27.302 15.021-26.82 1.779.205 1.657 5.155-4.265 15.147l-.05.081m1.902 1.032c8.102-12.823 15.932-25.933 23.215-38.952 1.547-2.987 1.82-4.914.714-5.169-1.038.282-1.994 1.327-3.3 3.609a768.944 768.944 0 0 1-12.162 21.984c1.529-8.615-2.731-6.701-4.074-5.91-7.042 4.155-25.582 37.876-22.19 43.471 3.295 0 9.604-6.709 17.752-18.955l.05-.082"></path>
      <path fill="#fff" d="M436.27 232.139c5.663-7.137 8.917-8.182 9.199-5.536.142 1.3-.4 3.968-3.768 9.305a144.89 144.89 0 0 0-5.431-3.769Zm3.642 10.042c6.372-7.555 15.476-22.897 10.014-25.297-9.787-.7-31.863 38.93-28.709 41.821 3.146 1.977 10.469-7.623 10.401-9.405a1.7 1.7 0 0 0-.086-.337c-1.716-.05-4.552 3.532-4.793 1.219-.187-1.673.91-4.492 3.841-9.733a117.209 117.209 0 0 1 5.991 4.2c.869.187 2.576-1.7 3.268-2.518m20.879-9.392c-9.691 10.001-20.074 19.265-29.828 29.18-1.156 1.127-2.003 1.854-2.668 2.009-.15-.045-.154-.05-.159-.055-.059-.4-.127-.854 1.452-3.086 7.533-10.678 14.038-19.897 22.727-33.757 2.955-4.478 4.907-5.146 5.249-4.5.186.354.755 1.427-17.138 26.733 11.544-11.687 12.745-12.905 20.165-20.074 1.625-1.486 2.49-1.959 3.072-1.686.792 1.395-2.836 5.2-2.872 5.236Zm-48.459 8.037c-.714 1.228-1.297 1.928-1.734 2.082l-.137-.113c-.036-.391 3.278-13.77 4.439-16.101.068-.141 9.199-13.638 10.337-13.592.669.695-.806 3.691-1.266 4.432-.355.582-.355.582-7.66 10.082l-2.732 10.528a14.044 14.044 0 0 1-1.229 2.682m40.257 11.492c-.109.105-13.332 9.764-13.951 9.583-.251-.655 1.665-2.914 3.077-4.119 2.731-2.341 6.877-4.841 9.832-6.91l5.557-9.591c1.43-2.296 3.696-4.114 4.279-3.741.455.909-7.046 13.101-8.794 14.792m174.34 90.679c-1.448-3.441-1.466-4.869-1.498-7.728.455-2.273.91-4.409 3.091-6.223a133.5 133.5 0 0 1-1.338 14.451c-.078-.155-.187-.359-.255-.518m-21.676 23.297c3.455 3.268 8.266 7.423 11.63 10.787 12.672-25.634 15.54-58.25 6.45-94.68-42.788-6.323-92.207.232-135.968 15.752-24.58 9.546-27.279 16.042-27.507 16.751 1.521 1.559 4.771 1.609 29.514-4.446a276.776 276.776 0 0 1 86.817-7.482c-22.372 14.587-22.372 14.587 29.064 63.318Zm-43.275 4.623a225.176 225.176 0 0 1 39.688 28.638 97.555 97.555 0 0 0 9.882-13.01l-3.888-2.018c-10.373-4.6-26.054-11.556-45.682-13.606m54.09-95.343c-47.822-13.855-63.935-18.519-68.733-28.952-8.28-18.028 18.28-47.317 29.214-57.081a283.675 283.675 0 0 1 24.957 37.952c.055 3.314 1.553 6.183 4.702 9.024a238.008 238.008 0 0 1 12.017 28.706 214.828 214.828 0 0 1 3.737 12.047c-1.77-.509-4.133-1.182-5.917-1.696m-235.198 54.222a69.059 69.059 0 0 0-5.403-5l1.471-1.632c11.493-12.469 17.911-17.851 20.82-17.447.382 1.896-1.024 6.164-15.417 22.443l-1.471 1.636Zm.123.128 1.475-1.628c15.053-17.024 16.646-21.479 16.218-23.592l-1.038-.146c-3.027 1.282-7.383 3.878-20.851 18.497l-1.471 1.632a68.409 68.409 0 0 1 5.663 5.237"></path>
    </g>
    <mask id="g" width="59" height="30" x="369" y="358" maskUnits="userSpaceOnUse" style="mask-type: luminance">
      <path fill="#fff" d="M390.852 379.573c-4.602 5.105-11.794 7.932-20.87 7.437 18.166-20.166 38.281-29.23 57.649-28.184-1.762.032-5.772.768-8.954 1.882-2.134.75-4.916 1.927-6.968 2.873-1.325.609-3.027 1.572-4.284 2.313a71.489 71.489 0 0 0-8.193 5.719 99.854 99.854 0 0 0-8.38 7.96Z"></path>
    </mask>
    <g mask="url('#g')">
      <path fill="#fff" d="M371.234 387.055a32.36 32.36 0 0 0 6.044-.414c.489-.539.979-1.071 1.471-1.595a154.865 154.865 0 0 1 11.698-11.16c2.731-2.418 2.772-2.45 3.359-3.287l-.3-.186c-3.642 1-10.242 4.423-20.807 15.047-.487.522-.978 1.054-1.465 1.595Zm-.155 0 1.466-1.595c6.063-6.083 14.775-13.733 21.848-15.615l.319.186c-.628.864-.637.877-3.541 3.373a148.45 148.45 0 0 0-13.77 13.219 32.317 32.317 0 0 1-6.336.432"></path>
    </g>
    <mask id="h" width="212" height="90" x="390" y="345" maskUnits="userSpaceOnUse" style="mask-type: luminance">
      <path fill="#fff" d="M427.631 358.844c-.405 0-.947.059-1.366.109-.696.091-1.62.214-2.303.368a59.035 59.035 0 0 0-6.477 1.819c-2.035.731-4.661 1.927-6.61 2.868-1.329.645-3.004 1.682-4.292 2.405a59.444 59.444 0 0 0-7.893 5.636c-2.503 2.096-5.589 5.183-7.856 7.528 46.624-51.744 140.984-42.826 210.749 19.924-21.78 24.175-55.846 37.562-98.82 35.203-16.282-47.667-44.79-74.192-75.132-75.86Z"></path>
    </mask>
    <g mask="url('#h')">
      <path fill="#fff" d="M579.994 417.416c.592-1.1 1.848-2.273 2.79-3.105 2.276-1.172 2.977-1.527 4.275-1.618a102.47 102.47 0 0 1-7.092 4.796s0-.055.027-.073Zm-57.13-10.96c6.673 8.924 9.723 12.992 17.242 26.043 25.609-4.782 46.479-16.328 61.505-33.002a225.13 225.13 0 0 0-39.688-28.639l-4.378-.454c-30.043-1.141-29.728 8.96-26.856 19.401-13.724-7.605-21.203-8.264-19.518-1.718 1.083 4.218 6.235 11.101 11.684 18.388"></path>
      <path fill="#04E0BD" d="M495.221 405.743c-8.125-14.761-7.911-20.711.646-18.183 22.413 6.6 41.071 38.716 30.297 45.066a8.472 8.472 0 0 1-2.594.778c-12.017-.305-23.829-19.443-28.349-27.657"></path>
      <path fill="#fff" d="M462.093 354.516c-9.496-.795-9.678-.809-10.115-1.15l.123-.2c5.845-2.641 25.586-.268 24.507 1.582-.55.95-6.682.432-14.443-.227h-.072m-1.32.691c11.57 1.073 23.4 4.091 35.153 8.932 1.999.791 4.488 1.609 5.007 1.037-.264-.487-.491-.909-3.054-1.991a132.724 132.724 0 0 0-19.928-6.21c6.063.368 6.459-.227 6.96-.973-4.552-7.064-38.768-5.205-40.666-1.986 5.394 1.664 10.974.727 16.459 1.186h.073"></path>
      <path fill="#fff" d="M461.924 356.694c4.493.85 6.077 1.818 5.494 2.218-.91.609-5.603-.027-10.132-.641a48.212 48.212 0 0 0 4.638-1.577Zm-10.651 1.413c22.682 3.214 22.682 3.214 23.724 2.687 1.607-2.273-15.226-7.778-34.699-4.573-.903.128-1.797.316-2.676.564h-.068l-.324.122c.847.587 8.499.123 8.558.11-.387-.16-.815-.178-1.206-.323l.082-.237c1.233-.327 3.923-.695 9.772-.559a45.45 45.45 0 0 1-5.166 1.705c.196.209.219.236 2.003.491"></path>
      <path fill="#fff" d="M457.263 362.508c-5.275-1.896-12.504-4.496-24.452-4.164-1.32.05-1.32.05-1.58.05h.064c.569-.077 14.111-1.773 33.169 2.605 2.308.577 3.605 1.091 3.96 1.568-.104.104-.346.35-2.731-.282a111.242 111.242 0 0 0-21.63-3.823c10.073 1.818 10.678 1.932 16.842 4.369 1.069.454 1.138.559 1.329.809l-.164.095c-1.256 0-3.983-.936-4.789-1.227m-.4-12.137c-1.443.05-1.634 0-1.821-.082.378-.309 12.559-2.046 15.531-1.955 2.731.082 11.73 2.273 12.017 2.787l-.028.036c-1.101.5-1.552.405-13.118-2.041l-10.087 1.068c-.405.046-1.256.141-2.494.187Z"></path>
      <path fill="#fff" d="M438.851 359.73a58.144 58.144 0 0 0-7.365-.968c2.276-.223 2.394-.2 9.031.964l8.79 1.336c1.365.273 2.908.705 3.14 1.018l-.109.037a4.653 4.653 0 0 1-1.061-.159c-1.697-.364-4.551-.978-8.275-1.578-1.365-.222-2.772-.409-4.151-.65Z"></path>
    </g>
    <mask id="i" width="111" height="108" x="317" y="280" maskUnits="userSpaceOnUse" style="mask-type: luminance">
      <path fill="#fff" d="M427.631 358.844c-19.368-1.064-39.483 8.001-57.649 28.184-20.615-1.137-43.129-19.002-50.284-39.908-4.006-11.7-2.349-21.874 3.5-28.365 1.944-2.273 4.397-5.455 6.177-7.86.806-1.095 1.707-2.677 2.431-3.827 1.643-2.619 3.313-6.415 4.552-9.247a63.148 63.148 0 0 0 2.275-6.905c.315-1.1.597-2.604.802-3.727.227-1.214.409-2.85.5-4.091.046-.628.055-1.464.059-2.087 0-.264 0-.609-.027-.868v.045c.118.619.314 1.441.487 2.046.241.85.583 1.977.911 2.805.91 2.386 2.275 5.495 3.354 7.805.765 1.632 1.953 3.727 2.859 5.286.906 1.56 2.217 3.746 3.277 5.278 2.385 3.441 5.745 7.91 8.335 11.196 1.411 1.791 3.459 4.037 5.007 5.714a163.119 163.119 0 0 0 5.357 5.501c1.648 1.609 3.974 3.741 5.717 5.305 3.851 3.4 7.877 6.597 12.062 9.578a134.7 134.7 0 0 0 12.204 7.809c1.821 1.028 4.292 2.378 6.204 3.255 2.995 1.364 7.042 3.137 10.137 4.278 1.306.482 3.091 1.023 4.429 1.404 1.02.291 2.403.596 3.437.846.732.173 1.729.323 2.476.432.423.041 1.001.077 1.411.118Z"></path>
    </mask>
    <g fill="#fff" mask="url('#i')">
      <path d="M383.847 339.379a3.04 3.04 0 0 1 2.207.409c2.213 1.527 5.139 3.596 7.402 5.05l5.73 3.451a9.878 9.878 0 0 0-3.25-1.105 47.566 47.566 0 0 0-5.694-.418c-4.816-.127-6.272-.168-8.28-1.168-1.789-.91-1.429-3.751.155-5.31a4.068 4.068 0 0 1 1.73-.909Zm-42.829-55.272c.988 3.336 1.366 6.818 2.454 10.128.159.391.2.454.323.454.178-.218.455-2.204-1.588-7.387l-1.016-2.741-.273-.827.1.327v.046Zm.114.636c-.141-.568-.35-1.323-.5-1.886l.546 1.704c.455 1.246 1.083 2.919 1.602 4.151l.483 1.209c.632 1.864 2.558 7.537 1.028 9.814l-.305-.059c-.455-.877-.614-1.264-1.138-5.091a95.93 95.93 0 0 0-1.716-9.842Z"></path>
      <path d="M340.281 282.598a64.69 64.69 0 0 0-.323-2.451v.032c.806 4.71.806 4.71.865 4.823.05-.423-.137-1.564-.546-3.395l.218.795c1.703 6.719.865 8.314.856 8.328-.118-.055-.141-.141-.246-.55v-.082c-.492-2.473-.532-5-.81-7.496m-.333-1.946c.041.755.064 1.51.114 2.273v.091c.037-.354-.045-1.468-.136-2.759v.405m6.072 19.46c.073.641.218 1.727.455 1.787 0 0 .674-2.442.455-3.373-.259-1.182-1.597-4.364-2.685-6.637l-.569-1.2 2.439 6.096-.15 2.227c-.016.368.003.736.055 1.1Zm-28.303 31.202a30.164 30.164 0 0 0-.123 5.732c.487-.54.965-1.086 1.438-1.627 5.148-6.323 11.585-15.324 12.973-22.274l-.182-.214c-.733.768-.733.768-2.872 3.914a136.992 136.992 0 0 1-9.796 12.837c-.473.546-.953 1.09-1.438 1.632Zm0-.136c.487-.541.969-1.082 1.438-1.628 3.746-4.509 6.218-7.486 10.196-13.487 2.199-3.318 2.199-3.318 2.931-4.091l.187.227-.214 1.091c-3.291 10.074-9.272 17.429-13.227 22.275-.456.545-.952 1.086-1.439 1.627a30.603 30.603 0 0 1 .128-6.014Z"></path>
    </g>
    <mask id="j" width="249" height="324" x="254" y="111" maskUnits="userSpaceOnUse" style="mask-type: luminance">
      <path fill="#fff" d="M341.192 284.561c.846 2.364 2.175 5.455 3.24 7.728.797 1.705 2.035 3.887 2.95 5.528a110.051 110.051 0 0 0 7.283 11.069 136.309 136.309 0 0 0 9.477 11.41 151.781 151.781 0 0 0 11.102 10.837c1.766 1.518 4.137 3.537 5.963 5a135.753 135.753 0 0 0 6.054 4.546c1.852 1.309 4.269 3.018 6.19 4.173a269.51 269.51 0 0 0 11.748 6.646c1.571.832 3.747 1.782 5.381 2.477 1.634.696 3.673 1.528 5.293 2.06 2.199.722 5.153 1.609 7.402 2.15.742.177 1.748.354 2.499.454a22.84 22.84 0 0 0 1.852.205c30.343 1.668 58.851 28.184 75.16 75.855-97.605-5.364-204.195-89.961-238.065-188.954-18.977-55.427-11.139-103.585 16.559-134.323 69.775 62.731 88.543 155.565 41.918 207.315 1.921-2.305 4.579-5.324 6.177-7.86.865-1.364 2.112-3.182 2.881-4.605a92.318 92.318 0 0 0 4.097-8.469c.455-1.218 1.097-2.855 1.457-4.114a94.375 94.375 0 0 0 1.597-6.518c.18-.902.31-1.812.387-2.728.055-.704.137-1.636.164-2.341v-1.996c.1.501.241 1.169.378 1.664.218.828.546 1.964.856 2.791Z"></path>
    </mask>
    <g mask="url('#j')">
      <path fill="#fff" d="M340.072 357.953c3.5 1.364 5.043 2.577 7.842 4.773 2.24 2.232 4.352 4.337 5.972 7.755a319.77 319.77 0 0 1-14.356-12.728c.164.055.382.118.542.177m-22.095-37.907c-3.55.068-8.252.764-11.785 1.132 25.404 32.811 58.118 61.072 93.682 81.215 8.771-30.998 7.874-49.313-.688-54.095l-5.73-3.45c-2.231-1.5-5.221-3.478-7.402-5.051 2.135 1.514 1.489 6.846-2.121 15.942-14.17-23.569-37.603-36.238-65.956-35.693Zm-50.98-68.068a39.756 39.756 0 0 1 3.004 5.418c1.065 3.241 1.365 4.219 1.397 5.564a239.68 239.68 0 0 1-4.474-11.073.647.647 0 0 1 .073.091Zm15.672-40.458a184.72 184.72 0 0 0-27.721-10.455c1.256 14.178 4.465 29.152 9.786 44.694 7.461 21.82 18.454 42.917 32.1 62.632l2.312-1.932c16.478-15.72 32.045-30.571-.359-67.278 12.827.418 7.492-8.114.755-15.346a57.689 57.689 0 0 0-16.873-12.329m124.333 189.714c11.357-19.751 21.088-25.911 33.592-21.265 7.907 2.936 35.259 15.528 55.196 54.249a211.902 211.902 0 0 1-41.263-8.182c-3.3-2.65-6.267-3.61-9.34-3.019a269.994 269.994 0 0 1-40.315-17.833c.637-1.182 1.456-2.777 2.13-3.941"></path>
      <path fill="#04E0BD" d="M285.841 188.523c12.691 9.3 24.321 26.729 16.815 27.988-6.482 1.091-45.755-15.597-47.121-31.161 1.297-9.774 17.356-6.323 30.306 3.182"></path>
      <path fill="#fff" d="m341.191 284.561 1.029 2.764c-.455-1.145-.701-1.736-1.652-3.868-.76-1.705-1.479-3.319-1.452-3.764h.036c.064.05.647.591 1.766 4.059l.273.828m-.773-2.455c-2.244-7.323-6.437-14.051-12.463-20.002-.797-.736-1.293-1.1-1.625-.909-.055.214-.041.305.132.732a11.718 11.718 0 0 0 2.326 2.909 47.877 47.877 0 0 1 8.193 10.147 1.062 1.062 0 0 0-.319-.146c-.396.55.269 2.273 2.545 6.596 1.893 3.6 2.467 4.682 3.587 7.273-.487-1.245-1.166-2.891-1.603-4.15l-.546-1.705-.209-.704v-.046"></path>
      <path fill="#fff" d="M338.733 276.479c-.823-2.341-1.788-4.632-2.558-6.992-.537-1.65-.396-1.818-.336-1.9.236 0 .814.819 1.702 3.182.319 1.878.71 3.787 1.192 5.724m1.22 3.636v-.136.136Zm-1.652-7.987c-1.893-6.968-4.707-10.991-5.235-9.941-.163.327 0 1.054.192 1.754 1.989 6.305 5.398 12.047 7.228 18.415l-.219-.795a73.82 73.82 0 0 1-1.256-6.296 36.885 36.885 0 0 0-.71-3.137Z"></path>
      <path fill="#fff" d="M333.18 251.982a86.324 86.324 0 0 1 6.755 28.184v.327-.232c-1.602-10.283-1.602-10.283-5.881-19.411-.482-.886-2.062-3.85-2.107-4.873 1.07 0 5.048 8.71 6.691 15.292-2.931-11.282-3.045-11.723-6.14-18.815-.706-1.609-.965-2.345-1.034-2.913l.037-.164c.482.118 1.174 1.486 1.67 2.614m9.987 37.63c.182.373.337.7.51 1.082l.569 1.2c-.492-1-1.024-1.978-1.498-2.982a.845.845 0 0 1-.082-.205c.194.288.361.592.501.909"></path>
      <path fill="#fff" d="M337.791 258.832c.788 3.273 1.858 12.547 1.789 13.579-.1-.346-.382-2.514-.455-2.946-.364-2.864-1.042-6.651-1.497-9.496l-2.226-4.937c-.456-.909-1.311-3.146-1.366-4l.073-.087s2.868 4.546 3.678 7.887m-14.644-96.957c-.842 2.882-2.594 8.887-11.834 6.646-3.778-.909-3.778-.909-50.553-21.792a102.683 102.683 0 0 1 14.502-27.925c3.073-.55 4.466-2.3 4.379-5.505a91.366 91.366 0 0 1 1.648-1.877 221.403 221.403 0 0 1 41.877 50.458"></path>
    </g>
    <mask id="k" width="716" height="700" x="-1" y="-1" maskUnits="userSpaceOnUse" style="mask-type: luminance">
      <path fill="#fff" d="M70.517 91.502c4.292-4.71 10.2-10.823 14.83-15.206a293.988 293.988 0 0 1 30.856-25.174 316.647 316.647 0 0 1 36.743-21.634c10.537-5.195 25.14-11.041 36.305-14.696 10.469-3.418 24.78-6.846 35.541-9.192 6.755-1.477 15.931-2.727 22.759-3.54 6.96-.819 16.282-1.565 23.278-1.883 10.219-.454 23.888-.454 34.093.191 14.748.96 34.348 3.437 48.901 6.037 9.217 1.627 21.339 4.605 30.347 7.082 7.169 1.973 16.618 5 23.669 7.319 8.13 2.668 18.754 6.819 26.647 10.146 6.909 2.896 16.008 7.032 22.759 10.305 7.246 3.519 16.75 8.537 23.779 12.47 6.577 3.677 15.148 8.937 21.562 12.891 6.618 4.092 15.171 9.956 21.502 14.465 6.209 4.423 14.393 10.455 20.302 15.274 11.761 9.582 26.955 22.965 37.948 33.42 5.503 5.242 12.504 12.574 17.661 18.156 5.157 5.583 11.99 13.233 16.796 19.184 4.807 5.95 11.275 13.728 15.672 19.937 4.516 6.364 10.734 14.756 14.944 21.338 8.193 12.86 18.44 30.48 25.49 44.012 3.747 7.183 8.194 17.038 11.38 24.498 3 7.064 6.609 16.642 9.258 23.847 2.941 8 6.223 18.901 8.449 27.129 1.93 7.11 4.205 16.665 5.635 23.888 1.707 8.637 3.555 20.252 4.552 29.002.782 6.928 1.429 16.211 1.82 23.184.492 9.337.31 21.819-.232 31.166-.592 10.264-2.066 23.938-3.91 34.057-1.161 6.364-2.895 14.819-4.474 21.092-2.69 10.678-7.138 24.72-11.252 34.93-2.367 5.887-5.754 13.637-8.54 19.347a294.79 294.79 0 0 1-19.472 33.557c-6.191 9.032-15.163 20.615-22.537 28.711-4.292 4.709-10.205 10.823-14.829 15.205a269.876 269.876 0 0 1-48.796 36.703 279.831 279.831 0 0 1-55.155 24.815c-10.469 3.423-24.78 6.846-35.54 9.197-6.755 1.477-15.932 2.727-22.759 3.536-6.96.823-16.282 1.569-23.283 1.887-10.214.454-23.87.218-34.089-.196 19.368 1.068 39.483-7.996 57.649-28.184 46.625-51.744 62.756-156.997 36.033-235.076 42.973 2.36 77.039-11.028 98.82-35.202 27.698-30.739 35.536-78.915 16.568-134.323-33.879-98.989-140.469-183.586-238.06-188.955-42.974-2.36-77.04 11.028-98.82 35.203-27.735 30.738-35.573 78.896-16.596 134.323 33.87 98.993 140.46 183.59 238.06 188.954 26.724 78.079 10.592 183.332-36.032 235.076-18.166 20.165-38.281 29.23-57.649 28.184-14.721-1.318-34.348-3.432-48.9-6.037-9.199-1.641-21.321-4.604-30.329-7.082-7.169-1.977-16.619-5-23.67-7.323-8.129-2.664-18.758-6.819-26.646-10.142-6.91-2.895-15.972-7.114-22.759-10.31-7.283-3.432-16.755-8.523-23.779-12.464-6.759-3.796-15.654-9.092-22.163-13.274-6.372-4.091-14.743-9.696-20.902-14.092-6.158-4.396-14.393-10.455-20.301-15.274-11.762-9.582-26.824-23.106-37.949-33.425-5.571-5.164-12.503-12.569-17.661-18.156a478.114 478.114 0 0 1-32.463-39.13c-4.661-6.273-10.734-14.751-14.944-21.338-4.097-6.414-9.64-14.932-13.35-21.578-3.97-7.115-9.327-16.556-12.873-23.907-3.282-6.846-7.656-16.019-10.633-23.024a396.08 396.08 0 0 1-17.684-50.976 352.723 352.723 0 0 1-10.196-52.891c-.783-6.927-1.43-16.21-1.798-23.183-.492-9.337-.196-21.82.232-31.166.305-6.66 1.27-15.506 2.085-22.12a302.763 302.763 0 0 1 6.3-33.02c2.69-10.674 7.137-24.716 11.252-34.93 4.738-11.765 11.88-27.207 18.562-37.989 2.786-4.505 6.313-10.642 9.45-14.91 6.472-8.837 15.162-20.62 22.536-28.716Z"></path>
    </mask>
    <g mask="url('#k')">
      <path fill="#fff" d="M204.878 606.135c6.209-3.683 17.752-5.728 37.525 5.418 19.637 14.301 16.355 22.915 12.65 26.775-9.964 6.768-17.689 8.637-22.759 5.837l-21.435-12.86c-7.083-4.769-16.61-11.006-23.547-15.983 2.486 1.75 8.43-1.291 17.566-9.187Zm-69.466-34.044c9.104 8.51 20.247 18.706 34.139 29.789-11.379-9.546-26.268-22.593-37.161-32.675.91.863 2.089 2.032 3.004 2.886m68.278 33.184c-9.104 7.924-15.021 10.997-17.434 9.283 7.356 5.059 17.088 11.919 24.58 16.747 6.769 4.059 15.695 9.632 22.573 13.501 5.134 2.832 12.899.968 22.873-5.774 12.89-13.364-18.094-37.152-41.313-36.907-7.051.073-9.709 2-11.298 3.15m-68.5-33.42c-1.73-1.623-3.978-3.846-5.685-5.491l2.198 2.159c24.744 22.947 24.744 22.947 37.949 33.425l3.364 2.646-.046-.032c-6.6-5.232-18.885-14.97-37.78-32.73M19.04 357.276c1.948-4.446 5.294-2.487 8.139 4.768 3.937 11.642 2.308 24.579-1.684 22.866-3.842-1.651-9.172-18.879-6.473-27.58v-.054m-.428-1.323v.054c-1.989 6.446-.023 16.747 2.809 24.093 4.383 10.164 6.855 5.719 7.506 4.091 4.046-9.95-2.572-33.738-8.53-30.666-1.011.519-1.503 1.741-1.767 2.396m-2.275-7.414c6.486-12.678 14.065 7.619 14.137 7.823 6.15 16.751 3.683 39.721-2.412 38.708-3.56-.591-9.004-10.997-11.958-27.384l-.25-1.532a46 46 0 0 0-.396 13.746l.032.35c-.76-.454-2.149-6.996-2.203-7.35-1.002-7.646 0-15.833 3.05-24.361Zm-.41-1.255c-3.045 8.524-4.015 16.715-3.009 24.375a66.602 66.602 0 0 0 2.185 8.482c.17.547.374 1.083.61 1.605l.146-.596a45.254 45.254 0 0 1 .159-12.105c3.455 17.342 10.292 32.275 15.308 26.138 7.87-9.614 1.911-52.004-10.615-52.322-2.854-.072-3.983 2.541-4.807 4.455m-4.989-11.501c-3.145 2.178-5.849-13.028-4.811-22.729a329.783 329.783 0 0 0 4.811 22.729Zm.729 1c-2.273-8.909-4.135-17.686-5.586-26.329l-.122.782c-1.125 8.373.587 17.169 1.151 19.67 1.98 8.564 3.87 6.595 4.58 5.855m-5.8-36.758a2.39 2.39 0 0 1 .191-.277l.387-.05c.355.414.428.668.647 1.796 1.547 9.937 3.63 20.065 6.25 30.384 1.938-11.206.755-22.579-2.941-28.307-.91-1.432-.455-5.682-.032-6.678.91-2.227 1.666-1.304 2.645.232 1.693 2.668 2.412 6.055 3.05 9.046 0 .073.027.141.045.209 3.641 19.338-1.043 41.667-5.321 39.685-5.918-2.727-8.617-39.13-4.92-46.04Zm-.114-1.391c-1.898 3.532-3.618 19.224.988 39.621.87 3.387 3.523 13.692 7.024 7.615 2.73-4.783 6.167-22.866 2.881-40.39 0-.072-.032-.141-.046-.209l-.045-.223c-1.734-8.137-4.338-12.728-5.917-10.405-.456.646-2.536 7.142.059 11.169.045.073 4.552 7.273 2.526 23.32-2.406-9.68-4.335-19.197-5.785-28.552-.656-3.355-1.393-2.478-1.68-1.946"></path>
      <path fill="#fff" d="M.26 279.015c0-.181.063-.418.095-.595 4.584-12.815 9.345-13.896 9.65-13.228.369.791.56 3.136-.41 6.364-3.973 14.024-6.15 21.756-6.882 37.116a7.065 7.065 0 0 1-.241 1.928l-.219-.078c-.41-1.413-.56-4.236-.523-6.409 1.147-15.533 1.215-16.461 3.723-27.652-2.877 4.15-2.877 4.15-5.194 10.228-.345-1.287-.163-6.428 0-7.687m0-1.218c-.286 2.377-.327 8.277-.072 10.182 2.062-5.605 2.23-6.059 4.283-8.837-2.581 15.551-2.631 15.851-2.877 24.175-.037 2.25.077 4.501.342 6.736.055.702.208 1.392.455 2.051l.286-.173c.145-.645.228-1.303.246-1.964.679-13.324 2.768-24.547 6.983-37.584 1.648-5.428.951-9.674-.396-9.16-.064 0-6.878 5.168-9.104 13.778-.045.241-.105.559-.132.796m40.261 117.013c.364-.355.988-.255 1.652 1.072.42.95.42.951.679 4.246.195 2.432.682 7.651 1.82 15.274.146.964.483 3.232-.724 2.7-3.377-1.673-7.774-4.382-8.23-4.85-.91-.955-1.82-4.305-1.037-4.682.096-.046.25 0 .35.05l7.006 4c-2.071-17.274-2.071-17.274-1.516-17.792m-.496-1.437c-.91.86-.91.86 1.101 17.415l-6.372-3.605c-1.07-.581-1.334 1.364-.542 4.028.216.729.497 1.438.838 2.118.664 1.237.997 1.855 9.103 6.214 1.539.66 1.443-1.863 1.425-2.154l-2.171-19.643a9.134 9.134 0 0 0-.596-2.345c-.683-1.664-1.917-2.878-2.79-2.028M3.541 242.213c.137-.423.2-.455.269-.455 2.99 1.528 2.99 1.528 2.981 2.328-.068 1.709-.728 4.164-1.247 4.186l-2.358-1.268C.81 265.296.81 265.296.715 265.565c-.055-.141-.155-.405.036-2.696.537-5.832 1.07-10.614 2.208-17.801.13-.964.326-1.918.587-2.855m.118-1.227C2.535 244.413.592 261.232.496 265.937c-.016.358-.003.717.041 1.073.21-.195.21-.195 2.567-18.406l2.162 1.169c1.398-.037 2.276-7.633 1.694-8.087 0 0-2.572-1.296-2.872-1.414-.183.109-.237.141-.428.727m558.086 427.504c13.018-6.546 27.889-15.792 28.012-15.874-8.571 5.086-20.065 11.769-28.927 16.324l.91-.455m-.51.236c-.614.31-1.443.71-2.062 1.014 9.773-5.155 22.673-12.273 32.077-18.097l-.264.173c-1.748 1.077-17.438 10.719-29.751 16.91ZM528.9 682.14l-9.878 3.182 1.025-.382c2.995-.882 5.946-1.82 8.853-2.814m3.641-1.277a202.335 202.335 0 0 1-12.941 4.155l-.455.173c-.359.141-1.115.427-1.547.572l14.939-4.9m-15.886 4.546a55.313 55.313 0 0 1 5.194-1.723 208.277 208.277 0 0 0 24.689-8.301 9.938 9.938 0 0 0 1.793-.982l-.127-.245c-1.703.241-4.552 1.127-14.826 5.105-1.784.695-2.348.732-2.681.75v-.3c2.231-1.7 13.137-5.85 18.208-7.592l.168-.059c3.678-1.232 5.917-1.872 7.105-1.732l.073.341c-.373.373-.91.882-4.096 2.323l-6.828 2.928c-10.556 3.905-24.739 8.841-35.504 12.046 1.247-.395 1.247-.395 6.855-2.559m-.879.191c-5.917 2.273-5.917 2.273-7.283 2.727 11.152-3.386 25.946-8.25 36.82-12.387l8.157-3.528.232-.104c2.453-1.173 3.259-1.646 3.905-2.3l-.081-.378c-1.284-.172-3.642.505-7.557 1.819l-.168.059-.182.059c-6.282 2.155-19.181 7.146-20.529 8.914.505.396 2.335-.282 5.799-1.614 10.597-4.091 11.73-4.036 12.104-4.018a3.553 3.553 0 0 1-.911.686 209.804 209.804 0 0 1-23.282 7.728 82.07 82.07 0 0 0-7.042 2.359m-44.403 9.747 1.02-.205c14.142-3.332 21.93-5.169 36.919-12.483 1.093-.536 5.695-2.477 6.51-1.473l-.205.369c-4.916 4.455-7.625 6.909-13.883 8.437l-7.789 1.745c6.327-2.05 6.71-2.173 10.315-4.877-6.96 2.436-23.255 8.146-33.939 8.796a3.205 3.205 0 0 1 1.052-.309Zm-1.097.109c-.76.159-.942.204-1.366.318.797.168 16.2-1.614 32.673-7.623a54.532 54.532 0 0 1-9.003 3.877l10.547-2.368c5.808-2.082 9.003-3.232 13.896-8.514.132-.205.203-.443.205-.687-2.139-.909-7.806 1.75-7.866 1.778-9.809 4.623-19.955 9.405-37.698 12.95l-1.365.269m-11.53-2.482a11.47 11.47 0 0 1 1.579-.428c8.317-1.695 14.111-3.236 19.173-4.645a9.229 9.229 0 0 1 1.893-.355c.738-.036.938.041 1.079.218-.096.505-1.411.955-2.185 1.178l-16.582 3.959 2.649 2c-.314.514-4.552.991-5.112.827a26.827 26.827 0 0 1-2.958-2.095.544.544 0 0 1-.169-.291c.178-.17.393-.296.628-.368m-1.16 0c-.82.309-.911.491-1.043.668a5.427 5.427 0 0 0 5.044 2.35c2.134-.182 5.612-.705 6.304-1.25l-2.403-1.896 15.021-3.6c1.233-.35 3.327-1.059 3.468-1.877-.737-.909-4.242.077-5.917.55a264.38 264.38 0 0 1-17.998 4.377c-.842.166-1.671.392-2.481.678M295.564 366.29c3.728-2.623 23.364-15.365 43.966-8.514a332.767 332.767 0 0 0 14.356 12.728c3.911 8.141 8.435 25.311-5.198 48.817l-.205.318c-27.229 38.989-68.227 25.229-74.782-4.35-3.914-17.647 4.671-36.871 21.849-48.976m-12.972-39.785c-48.432 17.056-65.843 57.777-68.278 76.928-6.932 54.431 26.751 77.338 46.898 91.025 56.187 20.051 95.638 3.828 124.155-51.063 5.981-14.483 10.925-28.352 14.521-41.048-35.564-20.143-68.278-48.395-93.7-81.215l-5.007.527c-5.58 1.423-13.15 2.914-18.58 4.823"></path>
      <path fill="#fff" d="M216.672 229.63c5.494.041 33.733 1.323 50.229 22.234a238.584 238.584 0 0 0 4.475 11.073c.628 32.612-68.264 51.208-94.506 25.511-22.595-22.12-3.641-59.168 39.806-58.818m38.236-28.579a238.37 238.37 0 0 0-50.366-8.76c-84.341-1.423-115.726 62.868-87.446 121.3 46.62 70.146 134.971 34.011 179.711-5.214-13.655-19.715-24.639-40.826-32.099-62.632-5.321-15.542-8.53-30.516-9.787-44.694m240.865 233.13c5.894 11.819 7.897 20.456 10.014 29.621a272.053 272.053 0 0 1 4.01 40.516c-1.784 32.912-26.023 34.48-36.278 21.197-7.283-9.428-6.705-21.083-6.373-28.047a302.238 302.238 0 0 0 1.912-38.776c-.505-5.632-2.048-22.761-14.566-32.702a211.902 211.902 0 0 0 41.263 8.182m-101.233-5.946c2.485-6.414 5.886-15.201 10.333-23.088a269.994 269.994 0 0 0 40.315 17.833c-10.332 1.882-13.719 17.365-14.993 23.184-5.076 31.629-15.768 66.473-29.906 99.23-9.459 17.246-22.463 22.729-39.751 16.737-14.798-9.328-17.816-22.124-9.486-40.271 17.752-31.366 33.174-64.318 43.488-93.643"></path>
      <path fill="#616CEA" d="M454.905 559.527c10.051-25.952 36.838-31.144 46.984-9.092 9.559 20.711-5.917 49.449-31.904 46.822-20.05-4.487-20.028-25.002-15.08-37.73Z"></path>
      <path fill="#fff" d="M222.607 159.525c25.946 9.001 36.178 25.634 24.553 31.016-7.283 3.368-20.219 1.982-25.099 1.459-55.81-8.237-116.727 2.309-160.866 26.957-15.6 7.405-22.76 4.409-23.888-10.001 1.82-16.819 9.882-29.425 24.703-38.489 44.093-22.093 104.91-26.602 160.597-10.946M362.093 40.126c5.954 10.673 7.775 26.943-.591 36.093a148.52 148.52 0 0 0-15.39 1.646c-13.391-5.455-32.964-21.847-47.02-34.625l-.278-.26c-10.665-10.055-32.855-30.975.373-32.197 18.335-.696 50.198 6.568 62.906 29.343Zm42.369 17.55c-13.464-75.1-150.238-56.235-165.787-53.835-4.966 1.555-11.634 4.091-15.722 7.305-.564 5.555-.564 5.555 3.127 10.383.506.663 1.024 1.69 1.657 2.236 26.228 22.616 56.106 40.958 79.079 67.382 19.769-11.037 44.531-16.505 73.285-14.928a195.573 195.573 0 0 1 24.903 3.023l.505-4.673c-.269-5.069-.164-11.892-1.061-16.892"></path>
      <path fill="#fff" d="M506.004 90.02c-2.185 5.855-12.399 17.879-28.544 15.456a295.092 295.092 0 0 0-10.788-5.514c-13.733-12.66-36.169-57.277-21.503-59.232 10.428-1.363 69.534 25.938 60.835 49.29Zm19.673 47.685c7.283-10.176 12.817-18.321 16.601-24.433 7.205-14.742 1.821-19.547-39.087-46.272-28.421-17.042-28.963-17.37-44.38-24.974-29.633-13.56-30.789-14.092-47.644-20.065l-13.078-4.36-.833-.254c-1.251-.214-3.008-.337-4.228 0-.524 1.19-1.115 2.54.883 7.482 7.861 19.456 17.511 38.121 25.404 57.563 37.184 9.546 74.108 29.134 106.371 55.3m-264.934 9.037c-25.946-10.76-25.946-10.76-30.279-12.524a237.323 237.323 0 0 0-40.247-12.46c-42.005-10.801-19.514-27.225-19.273-27.388 11.639-7.928 26.992-4.041 32.773-2.582a224.103 224.103 0 0 1 37.603 16.187c6.769 3.451 24.757 12.624 33.92 10.842a102.683 102.683 0 0 0-14.502 27.925m21.885-77.988c6.828 6.696 13.296 13.02 20.679 24.452a98.936 98.936 0 0 0-22.031 18.229 88.397 88.397 0 0 0-1.647 1.877c-.101-5.723-3.642-15.27-20.097-28.261-29.969-21.052-62.665-32.766-93.135-34.58-16.141-1.554-19.09-4.86-10.883-12.2 18.749-12.274 35.932-11.302 41.576-10.988 28.586 3.464 58.669 17.574 85.575 41.471"></path>
      <path fill="#616CEA" d="M144.261 82.129c16.419 1.063 25.977 13.428 12.9 24.151-14.711 12.06-56.315 17.511-53.998.146a18.575 18.575 0 0 1 1.097-3.664c7.346-14.07 26.104-21.543 40.001-20.633Z"></path>
      <path fill="#fff" d="M570.349 150.079c-17.889 10.555-38.527 1.027-33.356-21.52.455-2.095 1.739-4.723 2.731-6.623 8.73-12.583 12.427-19.306 11.316-20.188 9.527 8.251 22.113 19.388 31.28 28.039l8.899 8.914c-1.507-1.6-8.489 2.1-20.893 11.364m90.814 234.758c-12.399-12.364-28.367-29.575-34.012-41.366.709-4.79 1.155-9.614 1.339-14.451.619-.528 15.449-12.77 41.376 2.018l.291.186c32.45 22.729 34.289 70.778 22.759 74.306-7.383 2.272-19.618-8.637-31.744-20.716m-23.601 14.092c17.419 19.447 32.632 40.79 51.076 59.359 5.821 5.86 8.22 5.955 14.019 6.178 8.776-8.26 9.914-15.883 11.38-47.776-2.731-79.842-21.157-106.249-49.984-122.973-11.379-5.141-25.035-9.028-40.748-11.364 9.104 36.43 6.223 69.046-6.45 94.679l4.407 4.632c5.007 5.042 11.561 11.947 16.313 17.274"></path>
      <path fill="#fff" d="M589.653 466.361c-14.675-36.676-11.052-45.535-9.686-48.872a104.648 104.648 0 0 0 7.092-4.796c35.613-2.804 77.758 59.55 51.986 93.284-3.673 4.81-23.337 25.511-49.392-39.616Zm-49.547-33.862c10.711 20.647 12.973 26.084 20.174 48.499 15.827 53.727 35.504 120.591 84.992 81.742 42.45-43.225 50.138-131.186-33.779-176.253a97.555 97.555 0 0 1-9.882 13.01c-15.021 16.674-35.896 28.22-61.505 33.002Zm36.415-243.008c6.878-6.255 12.24-8.905 16.965-11.242 7.283-2.923 13.323-4.7 18.098-5.377 14.516.872 34.926 34.743 31.03 38.184-.911.787-2.768.541-3.965.482-5.826-.977-12.95-1.018-21.316-.036-14.639 3.364-15.964 12.273-15.854 15.96a283.719 283.719 0 0 0-24.958-37.971Zm72.397 96.039c-8.999-2.778-18.021-5.455-27.002-8.31a211.413 211.413 0 0 0-3.737-12.046 237.949 237.949 0 0 0-12.016-28.707c3.691 3.396 12.594 9.546 30.711 12.574 24.807 2.845 40.684 12.101 46.488 25.742 3.45 8.737 8.193 20.343 11.288 29.207 2.322 7.569 5.631 17.601 7.693 25.247-.351-1.127-.911-2.6-1.311-3.7-6.923-17.556-24.776-31.82-52.114-40.003"></path>
      <path fill="#616CEA" d="M653.788 218.379a85.877 85.877 0 0 0-2.275-3.363l-26.051-37.126c6.701 9.064 15.609 21.179 21.936 30.507l7.069 11.087c-.21-.332-.483-.773-.697-1.105"></path>
      <path fill="#fff" d="M518.49 466.661c-5.335-30.502 4.738-35.034 17.083-25.997 9.855 7.214 14.68 18.224 16.996 23.515 19.751 53.999 20.274 115.145 2.326 161.375-7.888 16.001-19.841 24.775-37.616 27.602-14.966-.395-19.063-7.764-13.291-23.897 20.651-46.426 26.46-108.035 14.502-162.598Z"></path>
    </g>
  </g>
  <defs>
    <clipPath id="a">
      <path fill="#fff" d="M0 0h714v696H0z"></path>
    </clipPath>
  </defs>
</svg>
