<svg width="675" height="696" viewBox="0 0 675 696" fill="none" xmlns="http://www.w3.org/2000/svg">
<g clip-path="url(#clip0_77_442)">
<mask id="mask0_77_442" style="mask-type:luminance" maskUnits="userSpaceOnUse" x="-1" y="-1">
<!-- <mask id="mask0_77_442" style="mask-type:luminance" maskUnits="userSpaceOnUse" x="-1" y="-1" width="716" height="700"> -->
<path d="M304.941 0.3682C314.245 0.759137 326.626 2.12287 335.839 3.40933C343.122 4.43667 352.771 6.2368 359.991 7.6369C368.352 9.25975 379.368 12.11 387.561 14.4556C395.213 16.6376 405.345 19.806 412.81 22.5562C419.847 25.1518 429.197 28.7202 436.102 31.6477C443.198 34.6525 452.589 38.8528 459.448 42.3576C466.158 45.7851 475.088 50.3945 481.647 54.0948C488.207 57.7951 496.782 63.0545 503.191 67.0139C509.6 70.9733 517.962 76.8919 524.239 81.2058C530.516 85.5198 538.532 91.5975 544.399 96.3751C550.266 101.153 558.095 107.585 563.776 112.585C569.457 117.586 576.835 124.559 582.334 129.796C587.832 135.032 594.901 142.428 600.086 148.042C605.271 153.656 611.816 161.375 616.796 167.135C621.898 173.044 628.175 181.308 632.836 187.568C637.666 194.091 643.947 202.915 648.313 209.765C656.506 222.652 666.556 240.367 673.653 253.859C677.667 261.501 682.301 272.042 685.601 280.034C688.542 287.13 692.088 296.744 694.664 303.981C697.773 312.722 701.219 324.628 703.499 333.619C705.32 340.729 707.323 350.298 708.72 357.498C710.573 367.045 712.216 379.936 713.049 389.628C713.64 396.547 714.055 405.802 714.209 412.739C714.446 423.089 714.005 436.936 712.794 447.219C712.016 453.814 710.923 462.611 709.822 469.161C705.527 494.126 697.882 518.4 687.094 541.325C681.632 552.794 673.484 567.759 666.083 578.087C659.71 586.988 650.607 598.425 643.547 606.798C639.905 611.103 634.566 616.39 630.506 620.29C625.927 624.695 619.732 630.509 614.697 634.382C605.594 641.41 593.276 650.647 583.422 656.597C577.96 659.906 570.558 664.234 564.759 666.98C555.037 671.598 541.941 677.576 531.772 681.117C525.55 683.285 517.165 685.949 510.802 687.681C500.459 690.483 489.975 692.738 479.394 694.436C472.516 695.464 463.313 696.659 456.385 697.255C442.251 698.468 423.284 698.214 409.1 697.918C378.758 696.255 350.25 669.734 333.941 622.067C376.914 624.431 410.98 611.044 432.761 586.865C460.459 556.131 468.297 507.955 449.329 452.546C415.459 353.571 308.874 268.96 211.26 263.61C168.286 261.246 134.22 274.638 112.435 298.812C84.7415 329.551 76.9032 377.723 95.8479 433.136C129.732 532.125 236.322 616.722 333.931 622.086C350.241 669.744 378.749 696.273 409.091 697.937C399.796 697.346 387.415 696.2 378.193 694.9C370.91 693.873 361.247 692.172 354.041 690.672C345.698 688.954 334.664 686.199 326.471 683.854C318.819 681.676 308.678 678.531 301.222 675.753C294.194 673.139 284.835 669.594 277.93 666.662C270.834 663.657 261.444 659.456 254.584 655.952C247.874 652.524 238.944 647.915 232.385 644.214C217.719 635.933 203.502 626.884 189.793 617.103C176.082 607.331 162.883 596.862 150.247 585.738C144.548 580.737 137.188 573.764 131.689 568.527C126.19 563.29 119.121 555.89 113.937 550.28C108.752 544.671 102.161 536.984 97.2271 531.188C92.17 525.279 85.8248 517.014 81.1865 510.755C76.357 504.232 70.0755 495.408 65.7103 488.558C61.6136 482.13 56.2242 473.525 52.428 466.92C48.1129 459.41 42.6825 449.191 38.8772 441.418C35.5316 434.572 31.3394 425.308 28.408 418.266C24.7665 409.493 20.2557 397.642 17.429 388.578C15.2123 381.45 12.3446 371.913 10.5102 364.676C8.09319 354.953 5.26651 341.843 3.83268 331.915C1.82532 318.1 0.191217 299.512 -0.145619 285.548C-0.297535 274.039 0.17503 262.53 1.27 251.073C1.92091 244.458 3.1408 235.681 4.24235 229.126C6.38191 217.045 9.25023 205.104 12.8316 193.368C14.7389 187.213 17.6156 179.104 19.9689 173.103C24.7923 161.114 30.3954 149.451 36.7424 138.192C42.8299 127.648 49.577 117.499 56.9434 107.803C60.8489 102.776 66.2656 96.2296 70.517 91.4929C79.4967 81.6535 89.1354 72.4346 99.3665 63.9C114.759 51.2387 131.501 40.3098 149.291 31.3113C166.531 22.5918 184.618 15.6552 203.271 10.6098C212.566 8.07784 225.143 5.27764 234.679 3.85481C241.557 2.82292 250.76 1.63193 257.688 1.03643C271.79 -0.177294 290.766 -0.231843 304.941 0.3682Z" fill="white"/>
</mask>
<g mask="url(#mask0_77_442)">
<path d="M149.332 537.043C137.015 548.076 139.464 561.318 156.82 577.528C184.613 600.584 194.623 583.556 198.897 576.282L199.033 576.028C199.812 574.446 200.831 572.327 201.5 570.7C185.506 559.04 170.621 545.934 157.034 531.547C154.3 533.134 151.721 534.974 149.332 537.043ZM148.636 536.448C151.056 534.361 153.672 532.512 156.446 530.925C170.387 545.763 185.704 559.248 202.192 571.2L201.482 572.955C200.963 574.032 200.267 575.469 199.743 576.546C199.698 576.628 199.657 576.714 199.611 576.8C179.347 611.776 144.685 567.254 141.712 557.526C139.259 549.494 141.457 542.794 148.636 536.448ZM114.929 512.982C96.558 524.579 100.313 536.661 132.408 569.205C143.31 579.278 158.172 592.388 169.569 601.88C177.622 608.189 179.72 609.671 185.756 613.826L186.466 614.28C186.656 614.688 186.947 615.04 187.312 615.303C194.359 620.122 203.672 626.668 210.859 631.286L232.294 644.146C224.228 639.673 222.853 623.327 229.826 595.829L231.001 589.724C193.976 568.764 160.029 538.98 134.202 504.432C122.217 508.564 116.044 512.282 114.929 512.987M114.187 512.278C115.325 511.573 121.616 507.85 133.701 503.759C159.76 538.834 194.177 569.018 231.725 590.156L230.582 596.256C223.754 623.863 225.256 640.282 233.436 644.792C226.658 640.751 217.527 635.518 210.864 631.291C203.458 626.29 193.512 619.758 186.284 614.544C186.012 614.354 185.785 614.108 185.619 613.821C179.306 609.398 177.394 608.003 169.688 601.934C143.811 580.296 143.811 580.296 131.739 568.509L129.541 566.35L121.985 558.622C105.871 539.984 93.1441 525.301 114.219 512.255" fill="white"/>
<path d="M79.8117 417.834C56.8523 414.743 50.2704 421.157 57.1027 439.963C66.4203 460.574 86.0523 479.798 113.186 471.961C106.29 459.546 100.489 446.555 95.8478 433.136C94.3306 428.687 92.9802 424.293 91.7967 419.953C85.7337 418.689 81.0771 418.03 79.7935 417.857M79.4476 417.039C80.0302 417.121 85.3012 417.866 91.5919 419.198C92.8057 423.792 94.2243 428.446 95.8478 433.158C100.574 446.838 106.506 460.073 113.573 472.707L111.702 473.257C97.8734 476.098 85.547 475.075 70.3394 460.747C59.7928 450.823 48.7136 429.058 55.6097 420.476C59.9248 415.112 70.0799 415.721 79.4476 417.03M20.9065 352.784C15.6582 347.516 14.7843 346.948 12.4037 347.257C8.99892 352.221 13.9968 370.24 20.8064 383.968L21.0977 384.528C20.8974 392.528 22.3494 400.542 30.8295 422.117C75.7561 526.57 112.339 510.223 131.989 501.436C116.477 480.112 104.041 457.042 95.8478 433.136C90.6815 418.039 87.5043 403.479 86.1797 389.664L78.6647 387.182C53.575 378.945 34.0567 366.958 20.8883 352.784M20.7973 351.789C33.9976 366.04 53.4976 378.118 78.6055 386.455L86.1297 388.969C87.4178 402.993 90.6132 417.794 95.866 433.145C104.137 457.305 116.741 480.612 132.486 502.118L127.023 504.6C106.686 511.246 87.6181 513.714 60.1114 476.384C49.1051 461.442 36.2189 436.895 27.9983 415.298C26.7237 411.952 25.0942 407.461 24.0882 404.024C23.6331 402.533 23.0595 400.547 22.6453 399.024C21.2798 394.083 21.8078 388.86 20.4377 383.918C18.5077 376.936 14.6068 370.686 12.8543 363.635C9.96846 352.043 10.6376 348.275 11.0609 347.198C11.3086 346.734 11.6029 346.297 11.9394 345.893C13.883 345.661 14.8617 345.538 20.8155 351.766" fill="white"/>
<path d="M230.423 610.912C229.84 619.604 228.602 637.691 257.734 655.156C289.105 673.985 339.78 690.613 348.625 681.845C354.137 676.39 347.655 662.634 339.448 645.237C333.531 631.918 333.194 631.118 330.158 621.836C319.691 621.022 309.304 619.393 299.092 616.963C300.195 624.425 301.795 631.805 303.88 639.055C306.921 651.988 305.701 658.775 290.498 655.197C270.852 647.369 266.51 635.828 264.921 626.65C264.451 619.786 264.396 612.9 264.757 606.03C254.374 601.853 244.254 597.053 234.451 591.656C232.791 598.003 231.454 604.43 230.445 610.912M229.622 610.458C230.661 603.989 232.028 597.577 233.718 591.247C243.981 596.936 254.595 601.971 265.494 606.321C265.163 613.207 265.253 620.106 265.763 626.981C270.133 651.701 297.098 659.684 302.633 653.106C305.487 649.724 304.276 644.437 302.992 638.841C300.942 631.598 299.376 624.227 298.304 616.776C309.008 619.36 319.905 621.069 330.886 621.886C333.466 629.9 336.606 637.725 340.281 645.301C355.944 678.149 365.398 697.977 302.087 675.735C225.224 648.738 228.306 621.917 229.599 610.467" fill="white"/>
<path d="M19.3316 308.254C12.2899 299.471 8.35717 299.521 7.65163 308.399C7.60611 308.972 7.59701 309.736 7.5697 310.309C8.02488 340.352 26.3733 361.194 34.512 352.462C42.2182 344.197 28.4262 319.591 19.3316 308.254ZM19.368 307.254C19.5592 307.495 38.6359 331.637 37.5298 348.329C35.4497 359.48 24.4889 356.562 17.5018 346.161C7.13272 330.683 3.0816 297.812 11.8803 300.49C13.701 301.044 16.2318 303.322 19.368 307.254Z" fill="white"/>
<path d="M63.6345 347.879C47.6303 338.874 41.4353 339.002 39.965 348.375C41.9542 367.344 57.9948 375.831 63.2658 378.618C70.6474 381.878 78.2294 384.666 85.9658 386.964C85.2186 377.882 85.3314 368.75 86.3026 359.689C78.5088 356.228 70.9408 352.281 63.6436 347.87M63.721 347.157C71.0148 351.592 78.5796 355.567 86.3709 359.058C85.3104 368.552 85.1945 378.128 86.025 387.646C78.2899 385.388 70.7064 382.642 63.3205 379.423C36.1142 365.085 35.8183 343.261 43.0466 340.565C48.8365 338.406 59.2602 344.543 63.7119 347.166" fill="white"/>
<path d="M205.342 251.004C199.425 233.785 186.225 204.956 164.28 205.319C147.607 208.829 140.21 230.694 156.697 261.232C156.77 261.36 156.842 261.487 156.92 261.61C158.285 263.778 160.133 266.665 161.626 268.756C175.814 264.633 191.723 262.778 209.12 263.528C207.659 257.978 206.125 253.314 205.342 251.027M206.093 250.923C206.74 252.823 208.396 257.864 209.876 263.56C191.933 262.714 175.56 264.624 161.012 268.933L159.442 266.751L156.287 261.796L156.064 261.419C135.176 222.993 152.878 199.901 170.726 204.337C184.317 207.715 197.208 224.693 206.093 250.923ZM236.613 238.317C216.617 126 154.08 128.636 124.684 161.666L124.069 162.384C121.338 133.496 124.069 105.389 132.395 81.124C136.728 65.8456 133.715 61.1225 121.998 64.8546C107.888 72.0824 98.1921 82.9059 92.4113 97.9388C76.885 149.533 91.196 217.784 132.308 271.856L138.002 278.506C157.762 267.483 182.519 262.019 211.26 263.596C221.198 264.162 231.08 265.479 240.819 267.537C240.364 263.078 239.376 253.8 236.613 238.281M237.464 238.172L241.561 267.719C231.574 265.574 221.436 264.206 211.237 263.628C182.246 262.032 157.311 267.61 137.465 278.829L131.807 272.142C90.5269 218.161 76.0793 149.988 91.551 98.4252C102.271 70.4505 129.24 56.7904 134.384 64.8819C136.883 68.8094 135.067 75.1781 133.473 80.7921C125.335 104.403 122.453 131.678 124.77 159.702C152.746 129.282 216.599 120.54 237.464 238.185" fill="white"/>
<path d="M331.145 293.962C333.339 287.634 342.98 255.277 316.78 239.681C291.599 229.016 274.143 251.473 275.927 277.902C293.764 284.735 310.864 293.35 326.967 303.617C328.596 300.506 329.993 297.279 331.145 293.962ZM331.947 294.321C330.763 297.671 329.336 300.93 327.677 304.072C311.139 293.449 293.537 284.577 275.158 277.597L275.003 275.438C275.117 234.394 307.776 228.394 323.799 242.817C335.92 253.727 339.12 273.956 331.947 294.303M403.652 260.246C423.124 230.844 401.521 212.274 382.613 217.347C380.51 217.911 377.856 219.134 375.895 220.075L375.303 220.398C367.414 202.01 359.371 193.25 340.936 182.904C282.491 158.129 232.753 201.996 244.174 268.283C283.024 277.052 321.851 296.999 355.657 324.155L359.335 319.332C371.625 302.058 386.978 281.643 403.638 260.237M404.576 260.991C387.852 282.338 372.426 302.681 360.036 319.873C358.925 321.314 357.446 323.237 356.331 324.678C322.151 297.071 282.787 276.838 243.445 268.106L242.162 260.805C235.58 175.799 314.081 153.252 358.306 192.818C368.948 202.337 373.423 212.433 376.095 218.466C403.037 206.192 417.89 229.648 410.889 249.718C409.61 253.354 406.879 257.859 404.607 261" fill="white"/>
<path d="M117.82 255.777C101.31 230.289 82.6476 201.401 67.4536 196.46C42.2956 188.277 34.2252 218.497 32.3362 227.957C28.4125 247.718 27.7298 285.993 67.2305 320.328C74.8188 326.26 82.7997 331.675 91.1185 336.533C93.5181 328.879 96.7847 321.523 100.855 314.609C93.1574 308.873 85.8381 302.647 78.9424 295.971C61.254 276.688 62.1097 263.723 65.9515 256.232C74.1857 249.509 83.954 257.618 97.0405 272.883C103.169 280.414 109.769 287.55 116.8 294.248C122.47 288.737 128.774 283.917 135.581 279.888C129.148 272.235 123.218 264.174 117.829 255.755M118.398 255.405C123.77 263.839 129.681 271.919 136.095 279.593C128.93 283.774 122.315 288.832 116.404 294.648C103.377 281.525 103.126 281.275 96.5898 273.329C66.4476 238.399 64.5632 263.46 64.4994 264.546C63.2386 285.457 87.9004 304.095 101.146 314.095C96.843 321.324 93.4186 329.04 90.9456 337.079C82.6211 332.248 74.6327 326.861 67.0348 320.955C6.17684 268.315 30.6202 194.191 58.4045 193.196C78.0958 192.491 97.6686 223.048 118.389 255.427" fill="white"/>
<path d="M446.075 293.785C454.769 284.157 458.82 268.274 447.19 256.146C426.47 239.517 397.98 261.687 399.805 285.87C401.499 308.317 428.741 312.977 446.075 293.785ZM447.026 294.548C437.672 304.844 417.485 313.559 403.879 299.549C388.08 279.015 409.533 245.163 435.742 249.241C456.353 252.445 462.566 277.424 447.008 294.535" fill="white"/>
<path d="M399.214 336.642C410.698 324.823 412.045 314.032 403.31 303.604C386.56 291.894 374.265 305.626 370.228 310.14C365.949 315.782 361.93 321.164 358.211 326.228C367.197 333.593 375.776 341.44 383.91 349.734C388.74 345.693 393.856 341.311 399.2 336.642M399.869 337.329C394.503 341.97 389.359 346.325 384.502 350.339C376.002 341.621 367.013 333.392 357.578 325.691C361.265 320.605 365.262 315.195 369.508 309.531C388.958 287.598 408.932 299.871 410.12 314.986C410.739 322.869 407.298 330.392 399.892 337.342" fill="white"/>
<path d="M407.73 126.641C412.104 119.918 410.461 113.076 403.47 108.785C390.064 102.262 377.72 113.435 381.703 124.404C385.121 133.819 399.651 136.678 407.675 126.727L407.73 126.655M408.982 127.386L408.932 127.459C403.014 134.764 393.415 136.473 385.526 131.623C373.746 122.6 380.542 107.358 393.56 105.712C406.192 104.126 416.843 115.972 408.982 127.377M416.024 131.582C429.347 109.131 406.251 95.5523 390.078 98.9298C368.971 103.344 364.101 128.65 382.294 139.342C386.255 141.642 391.262 142.587 397.179 142.133L398.672 141.969C393.783 149.102 388.94 156.457 384.188 163.962C382.021 168.207 385.626 170.535 388.244 169.835C389.609 169.462 390.242 168.685 390.838 167.935C399.077 155.275 407.548 143.024 416.024 131.568M417.212 132.4C408.741 143.828 400.265 156.038 392.013 168.658C389.577 171.721 386.428 172.258 383.587 170.099C381.361 167.462 382.044 165.171 383.005 163.28C387.21 156.613 391.476 150.077 395.8 143.674C369.568 144.319 363.454 117.249 376.605 104.476C392.081 89.4473 421.586 99.1389 421.709 119.29C421.745 125.6 419.019 129.696 417.212 132.405" fill="white"/>
<path d="M427.986 145.392C425.637 157.084 438.91 166.257 449.53 160.262C442.447 155.11 435.266 150.153 427.986 145.392ZM427.075 143.092C435.527 148.583 443.853 154.329 452.056 160.33L451.237 160.884C442.488 166.607 434.468 161.771 432.214 160.152C429.096 157.72 424.281 152.265 427.075 143.092ZM462.079 161.68C462.571 160.734 463.058 158.834 460.773 156.784C451.341 149.762 441.729 143.069 431.937 136.705C441.951 130.25 453.585 134.128 458.947 145.72C460.768 149.652 467.245 147.992 466.567 143.779C466.167 141.278 464.332 136.269 456.553 130.832L456.353 130.691C434.804 117.281 413.17 134.782 418.632 154.425C425.086 177.654 455.775 173.794 462.074 161.698M463.399 162.362C460.368 168.235 443.002 180.731 424.822 166.789C406.861 149.865 419.21 125.423 440.194 124.691C448.724 124.4 454.673 128.1 457.209 129.691L457.409 129.828L457.618 129.973C468.911 137.928 470.887 147.856 464.068 149.179C462.42 149.502 458.938 149.283 457.545 146.17C453.872 137.987 445.342 131.887 434.568 136.778C443.753 142.797 452.786 149.111 461.665 155.72C464.851 158.598 463.941 161.33 463.399 162.371" fill="white"/>
<path d="M481.219 203.11C481.469 202.771 481.674 202.401 481.829 202.01C493.928 170.189 495.794 163.207 495.804 163.166C496.231 160.684 493.459 156.916 489.358 158.575C461.137 173.194 452.889 178.685 452.839 178.722C449.962 180.927 450.909 184.772 453.749 185.818C454.346 186.024 454.98 186.1 455.609 186.039C456.237 185.977 456.845 185.781 457.391 185.463C472.052 177.058 473.586 176.181 484.56 170.408C481.971 177.745 478.516 187.532 475.753 194.809C475.188 196.305 474.146 198.228 473.932 199.81C473.322 203.978 477.319 205.419 479.613 204.392C480.252 204.103 480.811 203.663 481.242 203.11M482.394 203.996C479.299 207.974 472.835 206.206 472.38 201.269C472.348 200.919 472.348 200.919 481.939 173.453C466.635 181.754 466.344 181.913 458.142 186.713C457.231 187.168 454.382 188.532 451.583 186.259C448.542 183.404 449.407 179.604 451.992 177.581C452.056 177.535 468.625 167.457 488.589 157.352C493.364 155.397 497.765 159.293 497.269 163.507C497.187 164.184 490.992 182.572 483.227 202.528C483.015 203.056 482.735 203.555 482.394 204.01" fill="white"/>
<path d="M371.439 93.0385C372.089 91.5656 370.596 89.9155 368.393 90.3792C362.394 91.8475 357.924 92.9566 350.837 94.925C349.863 95.1977 347.587 95.8341 348.129 98.0525C348.261 98.4661 349.112 101.266 351.242 108.471C352.926 114.163 352.926 114.163 353.063 114.354C354.051 116.013 356.668 115.754 357.583 113.899C357.83 113.425 357.89 112.875 357.751 112.358L353.723 98.5707C370.988 94.1113 370.988 94.1113 371.475 93.0203M372.904 93.3885C372.135 95.1386 372.135 95.1386 355.58 99.398L359.221 111.917C359.982 115.276 356.199 117.931 352.994 116.286C352.27 115.872 351.732 115.197 351.492 114.399C349.672 109.176 348.402 103.78 346.722 98.5116C345.916 95.3705 349.203 94.0885 349.235 94.0749C349.421 94.0067 368.275 87.7426 371.498 89.5655C372.731 90.2655 373.655 91.7202 372.922 93.3885" fill="white"/>
<path d="M516.669 209.515C516.988 209.046 517.148 208.486 517.124 207.919C516.305 188.9 516.182 188.782 515.24 187.823C513.446 186.3 511.143 187.277 511.225 189.536L512.135 205.474C496.254 205.474 496.254 205.474 495.985 205.551C495.394 205.701 494.878 206.064 494.537 206.57C494.196 207.075 494.053 207.689 494.136 208.293C494.219 208.897 494.521 209.449 494.986 209.845C495.45 210.241 496.044 210.452 496.655 210.438C500.838 210.333 505.303 210.256 513.865 210.438C515.058 210.438 515.918 210.479 516.633 209.529M517.784 210.465C517.425 210.92 516.968 211.288 516.446 211.541C515.924 211.794 515.351 211.925 514.771 211.924C495.057 212.043 495.057 212.043 493.655 210.611C491.634 208.115 492.84 205.197 495.266 204.247C495.813 204.033 495.813 204.033 510.611 203.996L509.773 189.545C509.878 185.236 514.325 184.736 516.428 187.086C517.106 187.836 518.13 188.973 518.54 207.933C518.578 208.836 518.312 209.726 517.784 210.461" fill="white"/>
<path d="M468.097 551.321C493.341 562.127 516.569 557.026 519.869 539.957C519.664 523.879 502.518 511.391 467.437 501.772L467.036 501.663C464.728 501.081 461.651 500.3 459.33 499.79C460.495 515.892 459.12 530.934 455.429 544.585C459.469 547.156 463.704 549.407 468.097 551.317M468.069 552.008C463.628 550.079 459.348 547.799 455.27 545.189C459.134 531.184 460.554 515.705 459.275 499.109L461.651 499.631L466.981 500.959L467.382 501.063C534.79 519.246 524.125 545.88 512.864 553.003C504.543 558.267 488.407 560.777 468.069 552.021M475.316 584.542C543.188 611.894 595.939 563.377 581.059 522.924C578.274 515.369 574.619 511.037 570.749 506.455L570.135 505.777C599.362 501.527 627.233 492.731 650.607 480.057C664.991 470.416 671.377 457.287 670.13 439.913C665.997 424.69 657.344 421.317 642.068 429.004C591.884 459.724 521.321 476.857 461.861 470.37L454.437 469.816C463.895 507.741 460.386 541.534 446.343 567.618C461.328 578.796 473.928 584.019 475.316 584.578M475.289 585.301C472.94 584.328 460.477 578.937 446.07 568.127C460.431 541.803 464 507.546 454.264 469.07L461.679 469.593C521.08 475.857 591.588 458.519 641.754 427.722C668.687 414.148 675.137 439.377 669.52 457.096C664.859 471.82 655.3 478.221 650.702 481.294C627.975 493.567 601.006 502.204 572.661 506.486C610.847 553.012 556.234 602.275 497.738 591.829C490.063 590.383 482.546 588.196 475.293 585.301" fill="white"/>
<path d="M406.251 623.077C423.452 641.982 446.717 649.678 461.569 641.378C473.313 631.509 464.409 616.317 430.84 588.947C421.413 598.739 410.113 606.542 397.611 611.894C400.203 615.837 403.094 619.576 406.26 623.077M405.773 623.458C402.576 619.922 399.666 616.137 397.07 612.139C409.966 606.703 421.601 598.666 431.245 588.533L433.343 590.233C445.965 600.834 463.249 615.349 467.273 628.218C470.318 637.955 463.485 645.119 450.663 645.637C439.101 646.092 421.24 640.523 405.773 623.458ZM426.925 679.522C449.775 691.4 475.284 686.027 473.226 678.385C472.971 677.449 472.161 676.385 471.588 675.603L471.351 675.339C490.35 673.944 500.683 670.857 513.874 662.643C544.931 637.728 525.768 624.686 445.114 569.786C441.628 575.905 437.493 581.631 432.779 586.865C417.976 603.298 397.498 614.744 372.408 619.654L376.418 626.777C390.984 650.46 408.449 668.216 426.943 679.508M426.033 679.685C407.63 668.366 390.251 650.592 375.772 626.89L371.789 619.763C397.174 614.926 417.876 603.425 432.806 586.851C437.649 581.474 441.882 575.578 445.428 569.273L452.666 574.173C510.36 612.43 522.368 620.395 526.719 633.8C536.834 664.952 487.323 674.057 485.211 674.43C481.634 675.062 476.8 675.503 473.176 675.794C480.883 686.858 454.591 688.068 441.864 685.554C436.301 684.453 430.955 682.457 426.033 679.644" fill="white"/>
<path d="M480.022 468.065C555.751 464.756 568.696 393.556 529.004 361.694C516.714 351.839 481.998 332.242 425.223 363.058C418.395 367.108 411.772 370.786 405.477 374.05C412.626 383.024 419.24 392.411 425.286 402.161C432.296 400.297 439.584 398.001 447.076 395.342C459.366 391.801 476.982 388.928 488.361 404.779C491.78 414.566 490.815 427.39 466.795 432.922C451.564 434.831 450.968 434.904 442.67 435.299C445.14 440.991 447.372 446.749 449.366 452.573C450.944 457.189 452.339 461.751 453.553 466.261C462.341 467.384 471.186 467.991 480.045 468.079M480.286 468.925C471.411 468.808 462.55 468.172 453.749 467.02C452.493 462.268 451.032 457.457 449.366 452.587C447.29 446.526 444.949 440.523 442.342 434.577C450.409 434.166 458.449 433.339 466.43 432.099C496.386 425.09 490.833 405.12 480.395 398.21C468.392 390.269 453.267 394.574 447.572 396.174C440.066 398.815 432.756 401.083 425.723 402.915C419.402 392.663 412.454 382.81 404.917 373.413C411.18 370.127 417.767 366.408 424.585 362.331C508.011 316.532 561.286 373 551.072 419.085C549.251 427.267 537.302 468.179 480.245 468.902" fill="white"/>
<path d="M385.308 684.804C393.997 690.427 409.282 693.714 423.343 692.986C426.921 692.609 437.795 691.468 428.951 683.949C415.163 672.226 377.515 659.561 377.597 674.403C377.597 677.867 380.424 681.676 385.308 684.831M384.338 684.872C374.038 678.185 373.714 668.848 383.724 667.039C384.993 666.856 386.274 666.758 387.556 666.743C405.65 667.589 438.46 684.822 433.148 690.691C428.637 695.691 398.608 694.136 384.338 684.872Z" fill="white"/>
<path d="M351.287 644.01C353.923 648.687 364.033 664.011 383.605 664.666C393.524 662.57 393.465 656.515 383.373 641.523C378.427 634.692 373.918 627.556 369.873 620.158C360.474 621.781 350.943 622.519 341.405 622.363C344.164 628.954 347.778 637.818 351.278 644.033M350.45 644.033C346.972 637.809 343.404 628.954 340.673 622.367C350.675 622.574 360.673 621.801 370.524 620.058C374.6 627.456 379.136 634.592 384.106 641.423C399.1 663.502 390.283 666.689 380.251 665.48C378.293 665.243 360.851 662.629 350.45 644.023" fill="white"/>
<path d="M560.262 668.889C567.158 666.03 574.91 661.616 578.924 659.256C581.146 657.915 581.888 657.438 582.111 657.102C581.159 656.865 569.129 662.102 563.849 664.698C558.496 667.321 555.105 669.525 555.61 670.066C556.065 670.521 559.074 669.357 560.216 668.912H560.28M559.37 669.366L559.306 669.394C554.522 671.248 553.907 670.894 554.235 670.271C554.69 669.43 557.462 667.816 558.509 667.207C566.862 662.593 582.152 656.338 583.408 656.297C583.203 657.174 567.504 666.066 559.37 669.389M554.108 672.012C556.147 671.135 558.851 669.925 560.858 668.975C569.639 664.266 581.305 657.884 589.785 652.651L590.695 652.01C587.14 652.01 548.113 668.853 546.197 673.321L546.142 673.544C539.61 675.046 532.939 675.864 526.237 675.985C524.375 676.08 520.156 676.753 519.76 678.112C520.333 678.435 520.333 678.435 521.266 678.462C532.514 678.353 543.644 676.166 554.094 672.012M553.079 672.489C542.665 676.62 531.575 678.79 520.37 678.89C518.663 678.835 518.599 678.717 518.294 678.153C518.972 677.417 518.972 677.417 520.197 676.876C522.418 676.075 524.747 675.615 527.106 675.512C533.072 675.397 539.014 674.735 544.858 673.535C548.955 667.102 591.683 651.069 592.088 650.951C590.814 652.051 584.673 656.656 559.188 669.757L557.003 670.78C555.824 671.289 554.272 671.98 553.079 672.471" fill="white"/>
<path d="M528.9 682.14C532.107 681.04 535.262 679.871 538.363 678.635C531.945 680.949 525.336 682.726 519.022 685.336L528.9 682.153M532.541 680.876L517.598 685.776H517.557C518.176 685.513 520.77 684.604 522.805 683.904C539.92 678.026 539.92 678.026 540.817 677.694C538.086 678.803 535.327 679.864 532.541 680.876ZM545.327 675.939L552.155 673.012C545.978 675.703 538.413 678.18 528.404 681.39C522.637 683.24 511.899 686.681 509.418 688.008H509.805C520.556 684.685 534.904 680.194 545.309 675.962M545.309 675.962C534.344 680.017 519.591 685.054 508.376 688.381L508.052 688.458C508.166 688.281 508.435 687.872 517.224 684.876C549.961 673.966 549.961 673.966 553.466 672.435C551.017 673.494 547.785 674.971 545.309 675.962Z" fill="white"/>
<path d="M501.744 690.013C500.911 690.2 500.911 690.2 499.072 690.581C497.151 690.982 493.578 691.722 492.949 691.945C493.052 691.941 493.154 691.931 493.254 691.913L493.955 691.772L501.744 690.027M503.109 689.695L492.563 692.063L491.871 692.195C491.748 692.195 491.588 692.241 491.466 692.25C491.584 692.191 491.698 692.132 493.391 691.75C496.623 691.031 499.882 690.445 503.109 689.695Z" fill="white"/>
<path d="M599.18 645.11C600.177 644.531 601.131 643.881 602.034 643.164C602.21 643.038 602.363 642.885 602.489 642.71C601.731 642.329 601.015 641.872 600.35 641.346C600.204 641.237 599.863 640.987 597.578 642.373C590.468 646.701 585.379 649.388 580.941 651.651C579.862 652.201 579.238 652.674 579.084 653.056L579.17 653.183C579.826 653.265 580.991 652.77 581.824 652.342L596.253 644.224C598.27 645.628 598.27 645.628 599.194 645.105M598.506 645.678C597.05 646.51 597.05 646.51 595.165 645.174L582.061 652.538C581.077 653.038 578.692 654.165 577.773 653.815C577.686 653.542 577.773 653.315 578.56 652.701C579.224 652.216 579.931 651.791 580.672 651.433C588.369 647.528 593.973 644.26 597.314 642.205C599.945 640.628 600.983 640.41 601.306 640.387C602.435 640.319 602.858 641.451 603.741 641.805C603.664 642.36 600.027 644.81 598.506 645.674" fill="white"/>
<path d="M503.191 67.0002C512.295 73.1506 524.471 81.3649 533.356 87.8517L530.197 85.6152C523.028 81.0694 523.028 81.0694 442.451 39.6573C404.462 19.965 404.462 19.965 398.089 17.6012L411.176 21.9606C441.914 33.8115 442.506 34.0387 458.82 42.0257C485.83 56.254 490.683 58.8178 503.2 67.0002" fill="white"/>
<path d="M591.242 138.701L582.343 129.786C573.103 121.218 560.658 109.917 551.063 101.748C550.034 100.93 544.868 105.126 535.741 114.322C529.951 123.091 533.82 134.578 547.244 148.474C565.656 163.416 576.011 161.011 581.455 156.361C589.38 146.129 592.63 140.169 591.242 138.701Z" fill="white"/>
<path d="M656.142 222.466C655.648 221.441 655.094 220.445 654.485 219.484L647.416 208.397C640.952 199.16 632.308 186.859 625.48 177.89C625.277 177.649 625.058 177.421 624.825 177.208L624.597 177.44C624.784 178.736 628.885 191.464 641.316 209.62C653.201 226.171 656.556 225.312 656.692 225.266C656.893 224.848 657.079 224.452 656.142 222.466Z" fill="#616CEA"/>
</g>
<mask id="mask1_77_442" style="mask-type:luminance" maskUnits="userSpaceOnUse" x="286" y="311" width="111" height="108">
<path d="M286.419 339.461C286.825 339.461 287.366 339.406 287.785 339.356C288.477 339.265 289.405 339.143 290.088 338.988C292.279 338.501 294.441 337.894 296.565 337.17C298.6 336.438 301.227 335.238 303.175 334.297C304.504 333.656 306.179 332.619 307.467 331.892C310.248 330.233 312.888 328.349 315.36 326.26C317.863 324.164 320.95 321.078 323.216 318.732C327.818 313.623 335.01 310.795 344.087 311.295C364.702 312.427 387.215 330.296 394.371 351.202C398.372 362.903 396.719 373.077 390.87 379.568C388.931 381.877 386.255 384.878 384.675 387.432C383.81 388.796 382.559 390.614 381.794 392.037C380.285 394.789 378.918 397.616 377.697 400.506C377.219 401.724 376.6 403.361 376.241 404.597C375.681 406.534 375.044 409.143 374.643 411.12C374.463 412.022 374.333 412.932 374.256 413.848C374.201 414.548 374.115 415.484 374.092 416.184C374.092 416.73 374.092 417.453 374.092 418.003V418.18C373.992 417.68 373.851 417.007 373.714 416.516C373.482 415.666 373.159 414.539 372.859 413.716C371.994 411.357 370.678 408.261 369.618 405.988C368.826 404.288 367.606 402.093 366.668 400.465C365.731 398.838 364.392 396.583 363.291 395.01C360.91 391.569 357.569 387.096 354.979 383.809C353.545 381.991 351.461 379.695 349.89 377.991C346.376 374.194 342.671 370.578 338.788 367.158C337.054 365.599 334.651 363.622 332.825 362.158C331 360.694 328.651 358.876 326.771 357.612C324.892 356.348 322.497 354.594 320.581 353.439C317.112 351.348 312.438 348.639 308.833 346.793C307.249 345.984 305.087 345.011 303.448 344.316C301.882 343.647 299.775 342.784 298.159 342.252C295.96 341.534 293.006 340.647 290.757 340.106C290.015 339.929 289.009 339.752 288.254 339.652C287.717 339.579 286.975 339.502 286.419 339.461Z" fill="white"/>
</mask>
<g mask="url(#mask1_77_442)">
<path d="M286.419 339.461C287.643 339.406 288.861 339.254 290.061 339.006C294.044 338.065 294.281 338.006 296.647 337.156C304.804 334.015 312.511 329.805 320.827 327.046L321.906 327.805C320.362 330.315 311.573 342.693 290.157 340.029C287.489 339.574 287.489 339.574 286.41 339.479M290.298 340.056L295.619 340.706C308.746 339.915 317.891 335.383 322.793 327.237L321.71 326.437L317.891 327.737C305.355 333.683 297.071 337.615 290.052 339.006C288.851 339.247 287.634 339.399 286.41 339.461C287.718 339.566 289.016 339.759 290.298 340.038" fill="white"/>
<path d="M320.595 353.471C312.697 348.725 312.697 348.725 308.682 346.743C306.488 345.738 303.562 344.388 301.327 343.47C304.021 344.443 306.566 345.361 313.43 346.516C317.581 347.211 320.085 347.634 321.942 348.557C325.365 350.257 323.658 353.453 322.242 353.871C322.005 353.925 321.759 353.932 321.519 353.89C321.279 353.847 321.05 353.758 320.845 353.625L320.595 353.471ZM320.595 353.471L321.173 353.839L321.628 354.062C324.218 354.489 325.078 350.957 323.808 349.443C323.235 348.757 322.283 348.348 321.446 347.989C319.297 347.32 318.715 347.202 313.74 346.434C306.598 345.329 304.03 344.42 301.049 343.361C303.352 344.343 306.42 345.666 308.682 346.743C316.311 350.771 316.612 350.93 320.595 353.471ZM332.839 362.203C324.769 356.126 324.769 356.126 320.595 353.471C312.697 348.725 312.697 348.725 308.682 346.743C301.691 343.534 301.691 343.534 298.172 342.284C296.32 341.693 293.848 340.92 291.968 340.415C307.572 343.77 319.557 340.306 334.787 335.042C340.099 333.224 345.589 331.31 348.051 332.61C354.879 336.247 335.042 362.794 334.755 363.012C334.58 363.12 334.396 363.211 334.205 363.285L334.132 363.24L332.839 362.203ZM332.839 362.203L334.441 363.494L334.519 363.535C336.849 362.203 354.956 335.351 348.779 331.96C348.248 331.764 347.697 331.625 347.136 331.547C344.068 331.728 343.14 331.783 335.352 334.565C319.903 340.083 307.731 343.729 291.781 340.37C293.711 340.902 296.27 341.656 298.154 342.284C304.613 344.788 304.868 344.884 308.664 346.743C316.361 350.807 316.512 350.884 320.576 353.471C328.51 358.817 328.984 359.139 332.821 362.203" fill="white"/>
<path d="M347.369 375.331L344.519 372.472C341.788 369.958 338.147 366.626 335.347 364.222C336.945 365.485 350.564 352.28 375.403 324.732C377.292 326.302 379.095 327.971 380.806 329.733C356.044 357.212 344.979 372.777 347.387 375.336M347.664 375.618C345.17 372.954 356.176 357.33 380.929 329.86C379.14 328.01 377.248 326.261 375.262 324.623C350.427 352.184 336.745 365.331 335.042 363.967C337.928 366.472 341.743 369.849 344.519 372.472L347.646 375.613" fill="white"/>
<path d="M374.643 411.139C374.156 414.602 374.106 414.966 374.083 417.303C374.083 417.575 374.083 417.939 374.083 418.212V418.125L373.924 417.366C371.006 402.515 376.496 390.714 382.081 385.119L382.718 385.905C382.431 386.896 382.431 386.896 376.386 404.138C375.799 406.22 375.021 409.007 374.638 411.139M374.638 411.139C375.094 408.92 375.858 405.979 376.496 403.802L379.545 395.333C380.742 392.242 382.276 388.096 383.232 384.919L382.563 384.132C381.239 385.423 369.727 397.347 374.088 418.107C374.088 417.857 374.088 417.53 374.088 417.284C374.105 415.218 374.292 413.156 374.648 411.12" fill="white"/>
<path d="M365.316 398.229L363.291 395.046C361.47 392.451 359.035 389.005 357.114 386.487C356.801 386.085 356.539 385.645 356.336 385.178C355.161 381.086 358.288 381.482 358.971 381.996C360.296 382.982 360.978 385.491 362.007 389.269C363.304 394.042 363.732 394.96 364.866 397.424C365.011 397.692 365.157 397.956 365.321 398.219M373.678 416.403C373.437 415.607 373.127 414.543 372.863 413.757C372.376 412.48 371.753 410.77 371.22 409.516C367.911 401.615 367.906 392.301 371.434 381.946C375.531 371.536 379.113 369.104 380.469 368.54L380.925 368.89C380.925 370.467 380.879 370.995 378.808 376.618C376.227 383.596 375.827 384.828 374.256 390.201C371.73 399.383 371.58 408.207 373.674 416.425M365.48 398.529C365.335 398.283 365.189 398.028 365.057 397.769C363.878 395.21 363.391 394.133 362.103 389.132C361.156 385.45 360.737 383.927 359.749 382.282C358.571 380.373 356.331 380.995 355.871 382.855C355.794 383.547 355.875 384.248 356.108 384.905C356.311 385.37 356.571 385.808 356.882 386.209C358.848 388.837 361.434 392.351 363.291 395.06L365.48 398.515M373.705 416.521C371.643 408.316 371.803 399.524 374.311 390.387C375.968 384.764 376.436 383.337 379.172 376.109C381.348 370.367 381.489 369.745 381.448 368.031L380.952 367.667C379.495 368.276 375.631 370.849 371.32 381.759C367.77 392.128 367.77 401.442 371.102 409.316C371.63 410.648 372.363 412.416 372.836 413.771C373.095 414.593 373.455 415.689 373.683 416.525" fill="white"/>
<path d="M366.227 374.49C363.259 381.064 361.971 383.632 359.972 381.15C353.445 370.445 370.678 353.171 373.346 354.416C374.957 355.166 373.109 359.258 366.227 374.49ZM366.313 374.754C375.098 355.112 375.262 354.753 373.915 353.621C370.915 353.116 363.313 361.708 360.769 366.804C356.395 375.545 358.985 380.395 359.859 381.673C361.902 384.582 363.368 381.3 366.29 374.768" fill="white"/>
</g>
<mask id="mask2_77_442" style="mask-type:luminance" maskUnits="userSpaceOnUse" x="112" y="263" width="348" height="324">
<path d="M323.198 318.736C276.574 370.481 182.214 361.562 112.448 298.812C134.234 274.638 168.299 261.246 211.273 263.61C308.874 268.96 415.459 353.571 449.339 452.564C468.306 507.973 460.468 556.149 432.77 586.883C362.995 524.151 344.228 431.322 390.852 379.573C388.908 381.846 386.455 385.028 384.675 387.432C383.87 388.528 382.968 390.105 382.245 391.26C380.601 393.878 378.926 397.669 377.693 400.506C376.801 402.762 376.041 405.067 375.417 407.411C375.098 408.511 374.821 410.016 374.616 411.139C374.388 412.352 374.206 413.989 374.115 415.23C374.065 415.853 374.06 416.689 374.056 417.316C374.056 417.575 374.056 417.925 374.083 418.185C374.074 418.17 374.066 418.155 374.06 418.139C373.942 417.516 373.746 416.698 373.573 416.093C373.332 415.243 372.991 414.116 372.663 413.289C371.753 410.902 370.387 407.793 369.308 405.484C368.544 403.852 367.356 401.756 366.45 400.197C365.544 398.638 364.233 396.451 363.172 394.919C360.787 391.478 357.428 387.01 354.833 383.723C353.422 381.932 351.374 379.682 349.826 378.009C346.331 374.212 342.635 370.605 338.752 367.204C334.919 363.795 330.909 360.591 326.74 357.603C322.807 354.788 318.726 352.187 314.513 349.811C312.693 348.78 310.221 347.434 308.309 346.552C305.314 345.188 301.267 343.42 298.172 342.275C296.861 341.793 295.082 341.256 293.743 340.874C292.724 340.579 291.34 340.279 290.307 340.029C289.574 339.852 288.577 339.706 287.831 339.574C287.407 339.515 286.843 339.479 286.419 339.433C288.186 339.406 292.2 338.665 295.373 337.551C300.544 335.733 302.656 334.592 306.625 332.365C309.503 330.679 312.242 328.768 314.818 326.651C317.522 324.478 320.781 321.237 323.198 318.736Z" fill="white"/>
</mask>
<g mask="url(#mask2_77_442)">
<path d="M256.878 329.655C247.615 324.051 239.126 317.227 229.526 312.163C221.183 307.763 218.265 307.436 214.76 307.44C205.656 309.468 212.548 320.809 224.383 328.324C227.783 330.415 231.341 332.239 235.025 333.779L235.339 333.906C250.173 339.579 266.17 341.55 281.94 339.647C281.46 339.456 280.959 339.323 280.447 339.252C270.32 337.797 260.551 331.883 256.878 329.655ZM257.192 329.628C269.596 337.192 276.87 338.838 282.887 339.483C282.342 339.65 281.78 339.758 281.212 339.806C259.445 341.656 246.163 338.097 235.025 333.974L234.715 333.851C208.697 322.428 206.23 309.199 212.216 306.908C216.344 305.326 223.386 308.486 226.221 309.922C237.201 315.468 246.746 323.25 257.174 329.628M265.822 325.082C250.041 309.59 237.032 291.571 221.101 276.22C213.768 269.151 205.647 265.214 201.746 263.323C190.936 263.267 180.152 264.395 169.588 266.687C167.658 269.869 167.407 270.897 166.465 274.72L166.401 275.324C164.899 273.148 163.423 270.918 161.972 268.633C153.907 270.921 146.121 274.097 138.758 278.102C163.729 308.831 193.603 329.383 223.267 338.77C248.826 345.334 267.193 346.884 296.661 337.133C292.168 338.574 292.168 338.574 290.075 338.983C288.874 339.225 287.657 339.377 286.433 339.438C287.693 339.536 288.944 339.72 290.179 339.988C284.485 338.388 277.398 336.392 265.868 325.078M266.2 325.046C278.076 336.57 284.863 338.479 290.325 340.015C287.644 339.529 287.594 339.52 286.438 339.438C287.661 339.374 288.878 339.222 290.079 338.983C294.03 338.047 294.353 337.97 296.907 337.038L291.026 339.029C268.144 345.02 252.126 346.534 222.99 338.915C193.257 329.569 163.302 309.068 138.235 278.388C145.935 274.148 154.103 270.817 162.573 268.46L165.559 273.051C166.123 271.038 166.818 269.064 167.639 267.142C178.878 264.469 191.109 263.16 204.227 263.355L207.941 265.174C230.359 282.22 246.177 305.631 266.205 325.051" fill="white"/>
<path d="M318.942 351.289C316.106 346.42 314.231 341.02 310.785 336.488C306.593 330.974 304.076 329.278 300.717 327.319C290.247 322.65 287.589 328.751 289.155 333.197C289.829 335.106 292.341 339.924 301.327 343.47C303.543 344.425 306.502 345.702 308.682 346.743C316.379 350.807 316.53 350.884 320.594 353.471L320.845 353.625C320.458 353.362 319.839 352.825 318.942 351.289ZM319.297 351.498C319.741 352.361 320.345 353.133 321.077 353.771L320.594 353.471C312.697 348.725 312.697 348.725 308.682 346.743C306.406 345.698 303.366 344.307 301.049 343.361L300.99 343.334C285.099 336.515 286.378 326.969 291.854 325.192C296.365 323.723 302.373 326.892 306.329 330.683C308.643 332.9 310.675 335.393 312.378 338.106C315.046 342.388 316.807 347.129 319.297 351.498ZM346.959 339.874C349.162 336.038 353.263 328.896 350.008 319.709C345.842 316.515 341.607 313.43 337.304 310.454C333.74 311.045 332.661 311.227 328.742 313.95L328.405 314.218C325.465 306.777 322.033 302.49 318.965 298.708C309.407 293.049 299.528 287.949 289.378 283.434C263.505 282.525 253.255 311.331 272.759 330.16C279.824 336.979 287.416 339.129 291.95 340.415C293.821 340.938 296.31 341.675 298.154 342.284C304.613 344.788 304.868 344.884 308.664 346.743C316.361 350.807 316.511 350.884 320.576 353.471C328.801 359.017 328.801 359.017 332.821 362.203L334.113 363.24L333.972 362.731C333.845 360.458 338.101 352.853 346.94 339.874M347.509 340.329C338.579 353.234 334.245 360.785 334.309 362.994L334.427 363.485L332.825 362.194C324.755 356.116 324.755 356.116 320.581 353.462C312.683 348.716 312.683 348.716 308.669 346.734C301.677 343.525 301.677 343.525 298.159 342.275C296.251 341.665 293.702 340.874 291.786 340.361L288.09 339.329C252.586 324.96 258.121 293.548 275.8 284.807C278.727 283.361 283.083 282.579 286.333 282.079C298.456 287.303 310.204 293.357 321.491 300.199L322.151 301.022C325.369 305.795 326.084 306.986 328.751 312.772C330.973 311.291 332.721 310.118 335.993 309.531C341.243 313.122 346.402 316.88 351.47 320.805L351.556 321.05C352.171 325.564 353.008 331.747 347.55 340.324" fill="white"/>
<path d="M205.87 333.278C185.228 323.796 165.987 311.55 145.09 302.576C131.202 296.612 125.276 295.017 116.263 294.803C114.949 296.103 113.673 297.44 112.435 298.812C128.047 312.924 145.587 324.749 164.531 333.933C170.757 334.292 175.314 335.106 195.619 341.829C227.027 352.353 258.38 353.194 284.808 343.811C290.471 341.615 298.227 338.606 308.346 331.397C301.063 335.706 297.508 337.261 289.851 340.034C264.361 348.625 234.824 346.084 205.87 333.269M206.171 333.101C235.052 345.952 264.552 348.53 289.988 339.956C295.823 337.829 300.858 335.992 308.569 331.197L308.446 331.369C297.735 338.824 291.108 341.406 284.694 343.907C258.248 353.325 226.827 352.516 195.383 342.047C176.156 335.742 171.681 334.951 166.064 334.651C146.534 325.376 128.467 313.299 112.435 298.803C114.043 297.021 115.712 295.3 117.442 293.639L119.804 293.712C152.081 299.208 177.353 320.023 206.166 333.101" fill="white"/>
<path d="M372.795 360.649C375.526 358.176 379.941 352.839 379.036 344.857C374.884 340.802 370.627 336.862 366.263 333.038C350.637 332.233 339.863 350.071 349.581 360.703C355.566 367.258 365.544 367.236 372.795 360.644M373.382 361.126C368.639 365.385 358.193 370.163 349.144 361.067C343.276 354.089 345.129 346.975 347.714 342.266C352.198 334.083 363.15 331.356 365.066 331.992C370.243 336.483 375.277 341.141 380.169 345.966V347.68C379.756 352.875 377.322 357.702 373.387 361.126" fill="white"/>
<path d="M350.555 375.272C351.394 374.828 352.075 374.135 352.503 373.288C352.931 372.442 353.085 371.483 352.945 370.545C352.489 366.622 351.319 365.299 349.162 362.89C340.4 356.171 336.303 361.108 335.861 361.69C335.197 363.135 335.024 363.963 335.347 364.24C338.137 366.672 341.833 369.945 344.519 372.49L347.369 375.35C347.865 375.877 348.925 375.854 350.555 375.272ZM350.892 375.622C349.239 376.182 348.161 376.182 347.646 375.622L344.519 372.481C341.72 369.886 337.951 366.454 335.042 363.976C334.696 363.703 334.842 362.835 335.497 361.371C339.662 355.607 351.269 360.353 353.249 368.645C353.459 369.554 354.346 374.059 350.91 375.632" fill="white"/>
<path d="M385.631 478.489C395.923 496.99 410.034 503.946 412.71 497.622C412.867 497.129 412.987 496.624 413.07 496.113C413.024 493.499 412.979 490.54 407.794 482.085C401.294 471.484 392.978 462.197 385.986 451.951L385.823 451.71C381.594 445.087 381.594 445.087 374.498 427.376C373.587 429.358 372.782 455.387 385.631 478.489ZM385.604 478.907C371.493 453.451 374.133 426.726 374.17 426.472C374.464 426.783 374.673 427.165 374.775 427.581C377.302 437.077 380.47 443.037 385.8 451.36L385.964 451.601C394.366 463.874 405.35 474.28 411.686 487.967C417.981 501.604 409.67 500.923 408.705 500.8C403.042 500.086 393.397 492.927 385.604 478.885M388.057 504.55C404.899 531.284 436.571 551.372 456.867 538.643C458.959 528.741 459.915 518.633 459.717 508.514C457.113 504.095 456.075 502.791 452.712 498.454L452.161 497.791C454.51 498.609 456.908 499.394 459.357 500.145C458.632 490.256 457.074 480.445 454.701 470.816C420.73 465.593 396.437 453.087 383.442 436.463C378.758 429.827 376.159 426.172 373.929 417.339L374.088 418.098V417.276C374.1 415.209 374.287 413.147 374.648 411.112C375.103 408.993 375.795 406.188 376.396 404.111C360.396 454.706 381.28 493.777 388.062 504.546M388.035 505.082C379.286 490.89 360.642 452.615 376.505 403.775C375.877 405.957 375.117 408.889 374.648 411.112C374.161 414.575 374.111 414.939 374.088 417.276C374.113 417.549 374.113 417.825 374.088 418.098L373.906 417.235C374.694 420.007 375.622 422.738 376.687 425.417C385.477 441.641 402.268 461.379 454.523 470.102C457.056 480.189 458.69 490.48 459.407 500.854L454.46 499.254C456.089 501.363 458.183 504.255 459.676 506.437C460.074 517.94 458.981 529.447 456.421 540.671L454.023 542.144C420.963 546.349 399.892 524.324 388.021 505.105" fill="white"/>
<path d="M421.45 575.992C418.345 565.041 409.788 549.394 401.513 534.261C377.415 490.195 361.138 455.71 371.234 413.098C354.474 461.911 373.264 526.343 421.45 575.992ZM422.751 577.324C373.164 527.052 353.982 461.183 371.689 411.78L371.443 412.743C361.302 456.01 377.766 490.508 402.132 534.516C411.399 551.258 419.401 565.714 422.742 577.324" fill="white"/>
<path d="M391.166 443.309C416.306 462.424 438.246 453.914 442.215 434.318C437.941 424.634 433.077 415.222 427.649 406.134C408.987 392.951 397.516 392.069 363.468 389.401C360.523 389.119 358.411 388.142 357.146 386.505C359.035 389.046 361.543 392.446 363.323 395.065L365.348 398.247C367.292 401.47 370.401 403.993 374.634 405.738C388.289 411.489 392.427 415.093 396.055 420.535C399.555 430.326 389.578 427.567 387.47 426.617C386.56 426.212 385.449 425.485 384.584 424.999C378.262 420.789 373.783 415.575 371.247 409.543C371.748 410.811 372.44 412.493 372.891 413.784C373.136 414.575 373.487 415.63 373.705 416.43C376.263 426.458 382.172 435.586 391.184 443.345M391.294 443.8C382.217 435.936 376.273 426.699 373.737 416.562C373.487 415.734 373.164 414.625 372.891 413.807C372.376 412.443 371.716 410.67 371.156 409.352C373.683 415.325 378.13 420.467 384.402 424.608C396.86 431.563 396.041 422.735 396.023 422.639C395.113 417.348 387.998 411.816 374.884 406.193C370.61 404.402 367.474 401.833 365.512 398.556L363.323 395.101C361.443 392.415 358.907 388.855 356.914 386.25C358.165 387.855 360.255 388.796 363.168 389.051C395.841 391.292 409.364 392.233 426.438 404.102C432.765 414.491 438.35 425.312 443.153 436.486L442.697 438.604C433.252 460.333 409.132 458.278 391.262 443.741" fill="white"/>
</g>
<mask id="mask3_77_442" style="mask-type:luminance" maskUnits="userSpaceOnUse" x="321" y="379" width="112" height="244">
<path d="M432.77 586.883C410.989 611.062 376.924 624.449 333.95 622.086C307.226 544.003 323.358 438.754 369.982 387.01C379.058 387.505 386.25 384.678 390.852 379.573C344.228 431.322 362.995 524.133 432.77 586.883Z" fill="white"/>
</mask>
<g mask="url(#mask3_77_442)">
<path d="M354.683 513.551C359.558 539.316 371.953 554.817 379.787 551.467C382.659 548.694 383.797 544.553 381.125 531.593L361.516 457.496C360.628 454.278 360.4 454.033 359.581 453.514C355.899 454.478 348.98 483.403 354.683 513.573M354.415 513.851C348.607 482.88 355.871 453.187 359.69 452.196C360.032 452.419 360.673 452.842 361.151 454.61C364.051 465.243 365.58 476.189 368.466 486.826C372.253 500.791 377.151 514.432 380.824 528.433C381.425 530.706 382.094 533.788 382.54 536.107C384.461 546.185 383.187 552.517 379.031 553.481C372.158 555.081 359.458 540.775 354.415 513.851ZM358.875 594.647C361.82 601.011 367.305 612.876 377.82 618.513C381.72 617.579 385.499 616.482 389.159 615.221C389.227 611.544 389.25 610.43 387.338 603.966L387.138 603.371C394.261 607.08 396.241 607.998 403.752 609.048C410.769 605.482 417.35 601.117 423.361 596.038C425.014 588.81 423.443 583.165 421.459 576.037C373.264 526.342 354.474 461.91 371.234 413.098C373.555 404.361 373.555 404.361 373.705 403.497C373.364 403.593 340.054 434.486 340.973 512.082C342.275 540.403 348.326 568.304 358.875 594.625M358.311 594.725C347.849 568.381 341.878 540.473 340.645 512.16C339.917 433.445 373.774 401.911 374.12 401.811C374.001 403.629 374.001 403.629 371.698 411.811C353.982 461.215 373.164 527.083 422.751 577.355L424.208 582.505C424.809 586.475 425.113 590.483 425.118 594.497C418.108 600.709 410.273 605.925 401.836 609.998L400.925 609.871C395.24 608.416 393.938 607.871 388.43 605.13C389.655 609.339 389.86 610.317 390.251 613.803C385.822 616.408 381.216 617.749 376.436 618.84L376.182 618.704C371.388 615.021 364.802 609.985 358.279 594.756" fill="white"/>
<path d="M333.039 600.243C335.056 606.862 339.171 616.063 347.319 622.313C352.216 622.204 356.981 621.88 361.611 621.34C365.13 609.521 345.106 560.949 335.338 567.605C330.554 570.864 328.551 585.515 333.062 600.243M332.452 600.366C327.696 584.615 329.603 564.863 338.147 565.468C348.161 568.759 365.052 606.776 362.904 621.186C357.291 621.88 351.645 622.264 345.989 622.336L344.287 620.817C341.606 618.031 336.035 612.24 332.452 600.361" fill="white"/>
<path d="M324.614 531.106C325.42 554.385 331.469 560.654 336.399 561.859C342.557 559.34 342.771 548.717 341.055 529.988C335.106 474.557 347.428 419.767 377.292 386.641C375.295 386.968 373.271 387.106 371.247 387.055C341.406 420.176 324.919 475.243 324.614 531.106ZM324.191 531.106C324.191 504.577 328.701 437.427 371.074 387.06C373.196 387.124 375.318 386.979 377.411 386.628C358.525 409.698 334.246 449.655 341.41 529.934C345.507 572.923 334.387 563.386 332.115 561.036C330.791 559.672 324.191 551.808 324.172 531.106" fill="white"/>
</g>
<mask id="mask4_77_442" style="mask-type:luminance" maskUnits="userSpaceOnUse" x="281" y="75" width="348" height="325">
<path d="M323.198 318.736C369.822 266.987 351.055 174.181 281.28 111.422C303.061 87.2471 337.127 73.8598 380.1 76.219C477.71 81.5876 584.3 166.185 618.161 265.173C637.129 320.582 629.29 368.758 601.593 399.497C531.818 336.765 437.458 327.828 390.843 379.573C396.692 373.081 398.344 362.908 394.343 351.207C387.188 330.296 364.674 312.431 344.059 311.3C334.992 310.781 327.8 313.627 323.198 318.736Z" fill="white"/>
</mask>
<g mask="url(#mask4_77_442)">
<path d="M361.22 76.519C359.117 78.4419 357.71 78.7419 354.906 79.3328C352.294 79.3647 349.822 79.3919 346.117 77.8418C351.213 77.0344 356.349 76.4927 361.502 76.219C361.412 76.3317 361.317 76.4395 361.215 76.5417M403.634 91.5428C404.321 87.9062 404.608 82.9422 404.999 79.2692C396.774 77.7207 388.457 76.7018 380.101 76.219C351.347 74.6416 326.585 80.1102 306.816 91.1473C339.134 133.096 354.41 171.608 357.879 219.897C358.953 243.899 358.953 243.899 359.85 246.263C363.405 244.79 366.504 232.576 367.56 215.865C368.471 188.177 364.014 158.77 354.255 130.646C385.818 157.093 398.74 117.463 403.634 91.511" fill="white"/>
<path d="M477.364 105.462C475.504 104.974 473.693 104.318 471.952 103.503C468.838 101.662 467.901 101.107 466.672 99.9616C470.289 101.716 473.885 103.554 477.46 105.476C477.428 105.478 477.396 105.478 477.364 105.476M510.711 158.157C516.109 150.929 521.13 144.065 525.677 137.701C493.414 111.535 456.489 91.9428 419.305 82.4012L420.698 86.2106C446.544 154.852 451.196 167.226 482.007 155.306C477.714 181.495 491.111 175.308 499.49 169.257C502.067 167.398 506.109 163.962 510.711 158.125" fill="white"/>
<path d="M306.748 98.6933C320.781 122.786 326.557 150.802 323.134 161.88C311.76 143.078 297.646 126.072 281.258 111.421C287.678 104.312 295.099 98.1712 303.288 93.1929C304.317 94.843 305.746 97.0113 306.725 98.6933" fill="white"/>
<path d="M531.795 181.736C522.104 189.354 499.768 200.214 502.008 181.863C503.869 166.626 523.11 137.737 540.302 151.57C549.724 161.471 542.086 173.644 531.795 181.736Z" fill="#04E0BD"/>
<path d="M428.655 233.13C424.103 240.403 419.706 245.186 417.963 244.74C415.131 242.013 428.887 217.438 432.984 217.92C434.763 218.125 434.641 223.075 428.719 233.067L428.669 233.148M430.571 234.18C438.673 221.357 446.503 208.247 453.786 195.228C455.333 192.241 455.606 190.314 454.5 190.059C453.462 190.341 452.506 191.386 451.2 193.668C447.304 200.996 443.234 208.347 439.038 215.652C440.567 207.037 436.307 208.951 434.964 209.742C427.922 213.897 409.382 247.618 412.774 253.213C416.069 253.213 422.378 246.504 430.526 234.258L430.576 234.176" fill="white"/>
<path d="M436.27 232.139C441.933 225.002 445.187 223.957 445.469 226.603C445.611 227.903 445.069 230.571 441.701 235.908C439.916 234.608 438.106 233.352 436.27 232.139ZM439.912 242.181C446.284 234.626 455.388 219.284 449.926 216.884C440.139 216.184 418.063 255.814 421.217 258.705C424.363 260.682 431.686 251.082 431.618 249.3C431.601 249.185 431.572 249.072 431.532 248.963C429.816 248.913 426.98 252.495 426.739 250.182C426.552 248.509 427.649 245.69 430.58 240.449C432.611 241.779 434.607 243.18 436.571 244.649C437.44 244.836 439.147 242.949 439.839 242.131" fill="white"/>
<path d="M460.718 232.739C451.027 242.74 440.644 252.004 430.89 261.919C429.734 263.046 428.887 263.773 428.222 263.928C428.072 263.883 428.068 263.878 428.063 263.873C428.004 263.473 427.936 263.019 429.515 260.787C437.048 250.109 443.553 240.89 452.242 227.03C455.197 222.552 457.149 221.884 457.491 222.53C457.677 222.884 458.246 223.957 440.353 249.263C451.897 237.576 453.098 236.358 460.518 229.189C462.143 227.703 463.008 227.23 463.59 227.503C464.382 228.898 460.754 232.703 460.718 232.739Z" fill="white"/>
<path d="M412.259 240.776C411.545 242.004 410.962 242.704 410.525 242.858L410.388 242.745C410.352 242.354 413.666 228.975 414.827 226.644C414.895 226.503 424.026 213.006 425.164 213.052C425.833 213.747 424.358 216.743 423.898 217.484C423.543 218.066 423.543 218.066 416.238 227.566L413.506 238.094C413.191 239.029 412.78 239.928 412.277 240.776" fill="white"/>
<path d="M452.534 252.268C452.425 252.373 439.202 262.032 438.583 261.851C438.332 261.196 440.248 258.937 441.66 257.732C444.391 255.391 448.537 252.891 451.492 250.822L457.049 241.231C458.479 238.935 460.745 237.117 461.328 237.49C461.783 238.399 454.282 250.591 452.534 252.282" fill="white"/>
<path d="M626.874 342.961C625.426 339.52 625.408 338.092 625.376 335.233C625.831 332.96 626.286 330.824 628.467 329.01C628.283 333.848 627.837 338.672 627.129 343.461C627.051 343.306 626.942 343.102 626.874 342.943M605.198 366.24C608.653 369.508 613.464 373.663 616.828 377.027C629.5 351.393 632.368 318.777 623.278 282.347C580.49 276.024 531.071 282.579 487.31 298.099C462.73 307.645 460.031 314.141 459.803 314.85C461.324 316.409 464.574 316.459 489.317 310.404C517.678 303.342 546.981 300.816 576.134 302.922C553.762 317.509 553.762 317.509 605.198 366.24Z" fill="white"/>
<path d="M561.923 370.863C576.156 378.94 589.463 388.543 601.611 399.501C605.263 395.448 608.569 391.096 611.493 386.491L607.605 384.473C597.232 379.873 581.551 372.917 561.923 370.867" fill="white"/>
<path d="M616.013 275.524C568.191 261.669 552.078 257.005 547.28 246.572C539 228.544 565.56 199.255 576.494 189.491C585.815 201.456 594.161 214.147 601.451 227.443C601.506 230.757 603.004 233.626 606.153 236.467C610.781 245.764 614.795 255.353 618.17 265.173C619.557 269.228 620.803 273.244 621.907 277.22C620.137 276.711 617.774 276.038 615.99 275.524" fill="white"/>
<path d="M380.792 329.746C379.082 327.985 377.278 326.316 375.389 324.746L376.86 323.114C388.353 310.645 394.771 305.263 397.68 305.667C398.062 307.563 396.656 311.831 382.263 328.11L380.792 329.746ZM380.915 329.874L382.39 328.246C397.443 311.222 399.036 306.767 398.608 304.654L397.57 304.508C394.543 305.79 390.187 308.386 376.719 323.005L375.248 324.637C377.233 326.275 379.123 328.023 380.911 329.874" fill="white"/>
</g>
<mask id="mask5_77_442" style="mask-type:luminance" maskUnits="userSpaceOnUse" x="369" y="358" width="59" height="30">
<path d="M390.852 379.573C386.25 384.678 379.058 387.505 369.982 387.01C388.148 366.844 408.263 357.78 427.631 358.826C425.869 358.858 421.859 359.594 418.677 360.708C416.543 361.458 413.761 362.635 411.709 363.581C410.384 364.19 408.682 365.153 407.425 365.894C404.564 367.607 401.826 369.518 399.232 371.613C396.287 374.103 393.489 376.76 390.852 379.573Z" fill="white"/>
</mask>
<g mask="url(#mask5_77_442)">
<path d="M371.234 387.055C373.257 387.106 375.281 386.968 377.278 386.641C377.767 386.102 378.257 385.57 378.749 385.046C382.451 381.125 386.356 377.4 390.447 373.886C393.178 371.468 393.219 371.436 393.806 370.599L393.506 370.413C389.864 371.413 383.264 374.836 372.699 385.46C372.212 385.982 371.721 386.514 371.234 387.055ZM371.079 387.055L372.545 385.46C378.608 379.377 387.32 371.727 394.393 369.845L394.712 370.031C394.084 370.895 394.075 370.908 391.171 373.404C386.302 377.511 381.702 381.926 377.401 386.623C375.309 386.975 373.186 387.119 371.065 387.055" fill="white"/>
</g>
<mask id="mask6_77_442" style="mask-type:luminance" maskUnits="userSpaceOnUse" x="390" y="345" width="212" height="90">
<path d="M427.631 358.844C427.226 358.844 426.684 358.903 426.265 358.953C425.569 359.044 424.645 359.167 423.962 359.321C421.77 359.804 419.607 360.411 417.485 361.14C415.45 361.871 412.824 363.067 410.875 364.008C409.546 364.653 407.871 365.69 406.583 366.413C403.803 368.073 401.163 369.959 398.69 372.049C396.187 374.145 393.101 377.232 390.834 379.577C437.458 327.833 531.818 336.751 601.583 399.501C579.803 423.676 545.737 437.063 502.763 434.704C486.481 387.037 457.973 360.512 427.631 358.844Z" fill="white"/>
</mask>
<g mask="url(#mask6_77_442)">
<path d="M579.994 417.416C580.586 416.316 581.842 415.143 582.784 414.311C585.06 413.139 585.761 412.784 587.059 412.693C584.78 414.378 582.416 415.977 579.967 417.489C579.967 417.489 579.967 417.434 579.994 417.416ZM522.864 406.456C529.537 415.38 532.587 419.448 540.106 432.499C565.715 427.717 586.585 416.171 601.611 399.497C589.463 388.538 576.156 378.935 561.923 370.858L557.545 370.404C527.502 369.263 527.817 379.364 530.689 389.805C516.965 382.2 509.486 381.541 511.171 388.087C512.254 392.305 517.406 399.188 522.855 406.475" fill="white"/>
<path d="M495.221 405.743C487.096 390.982 487.31 385.032 495.867 387.56C518.28 394.16 536.938 426.276 526.164 432.626C525.347 433.023 524.471 433.285 523.57 433.404C511.553 433.099 499.741 413.961 495.221 405.747" fill="#04E0BD"/>
<path d="M462.093 354.516C452.597 353.721 452.415 353.707 451.978 353.366L452.101 353.166C457.946 350.525 477.687 352.898 476.608 354.748C476.058 355.698 469.926 355.18 462.165 354.521H462.093M460.773 355.212C472.343 356.285 484.173 359.303 495.926 364.144C497.925 364.935 500.414 365.753 500.933 365.181C500.669 364.694 500.442 364.272 497.879 363.19C491.41 360.6 484.747 358.524 477.951 356.98C484.014 357.348 484.41 356.753 484.911 356.007C480.359 348.943 446.143 350.802 444.245 354.021C449.639 355.685 455.219 354.748 460.704 355.207H460.777" fill="white"/>
<path d="M461.924 356.694C466.417 357.544 468.001 358.512 467.418 358.912C466.508 359.521 461.815 358.885 457.286 358.271C458.858 357.824 460.406 357.298 461.924 356.694ZM451.273 358.107C473.955 361.321 473.955 361.321 474.997 360.794C476.604 358.521 459.771 353.016 440.298 356.221C439.395 356.349 438.501 356.537 437.622 356.785H437.554L437.23 356.907C438.077 357.494 445.729 357.03 445.788 357.017C445.401 356.857 444.973 356.839 444.582 356.694L444.664 356.457C445.897 356.13 448.587 355.762 454.436 355.898C452.75 356.569 451.025 357.138 449.27 357.603C449.466 357.812 449.489 357.839 451.273 358.094" fill="white"/>
<path d="M457.263 362.508C451.988 360.612 444.759 358.012 432.811 358.344C431.491 358.394 431.491 358.394 431.231 358.394H431.295C431.864 358.317 445.406 356.621 464.464 360.999C466.772 361.576 468.069 362.09 468.424 362.567C468.32 362.671 468.078 362.917 465.693 362.285C458.627 360.3 451.382 359.02 444.063 358.462C454.136 360.28 454.741 360.394 460.905 362.831C461.974 363.285 462.043 363.39 462.234 363.64L462.07 363.735C460.814 363.735 458.087 362.799 457.281 362.508" fill="white"/>
<path d="M456.881 350.371C455.438 350.421 455.247 350.371 455.06 350.289C455.438 349.98 467.619 348.243 470.591 348.334C473.322 348.416 482.321 350.607 482.608 351.121L482.58 351.157C481.479 351.657 481.028 351.562 469.462 349.116L459.375 350.184C458.97 350.23 458.119 350.325 456.881 350.371Z" fill="white"/>
<path d="M438.851 359.73C436.419 359.251 433.959 358.927 431.486 358.762C433.762 358.539 433.88 358.562 440.517 359.726L449.307 361.062C450.672 361.335 452.215 361.767 452.447 362.08L452.338 362.117C451.98 362.105 451.624 362.052 451.277 361.958C449.58 361.594 446.726 360.98 443.002 360.38C441.637 360.158 440.23 359.971 438.851 359.73Z" fill="white"/>
</g>
<mask id="mask7_77_442" style="mask-type:luminance" maskUnits="userSpaceOnUse" x="317" y="280" width="111" height="108">
<path d="M427.631 358.844C408.263 357.78 388.148 366.845 369.982 387.028C349.367 385.891 326.853 368.026 319.698 347.12C315.692 335.42 317.349 325.246 323.198 318.755C325.142 316.482 327.595 313.3 329.375 310.895C330.181 309.8 331.082 308.218 331.806 307.068C333.449 304.449 335.119 300.653 336.358 297.821C337.248 295.565 338.008 293.26 338.633 290.916C338.948 289.816 339.23 288.312 339.435 287.189C339.662 285.975 339.844 284.339 339.935 283.098C339.981 282.47 339.99 281.634 339.994 281.011C339.994 280.747 339.994 280.402 339.967 280.143C339.967 280.143 339.967 280.175 339.967 280.188C340.085 280.807 340.281 281.629 340.454 282.234C340.695 283.084 341.037 284.211 341.365 285.039C342.275 287.425 343.64 290.534 344.719 292.844C345.484 294.476 346.672 296.571 347.578 298.13C348.484 299.69 349.795 301.876 350.855 303.408C353.24 306.849 356.6 311.318 359.19 314.604C360.601 316.395 362.649 318.641 364.197 320.318C365.744 321.996 367.906 324.21 369.554 325.819C371.202 327.428 373.528 329.56 375.271 331.124C379.122 334.524 383.148 337.721 387.333 340.702C391.258 343.522 395.332 346.129 399.537 348.511C401.358 349.539 403.829 350.889 405.741 351.766C408.736 353.13 412.783 354.903 415.878 356.044C417.184 356.526 418.969 357.067 420.307 357.448C421.327 357.739 422.71 358.044 423.744 358.294C424.476 358.467 425.473 358.617 426.22 358.726C426.643 358.767 427.221 358.803 427.631 358.844Z" fill="white"/>
</mask>
<g mask="url(#mask7_77_442)">
<path d="M383.847 339.379C384.608 339.229 385.398 339.375 386.054 339.788C388.267 341.315 391.193 343.384 393.456 344.838L399.186 348.289C398.176 347.734 397.076 347.36 395.936 347.184C394.048 346.931 392.147 346.791 390.242 346.766C385.426 346.639 383.97 346.598 381.962 345.598C380.173 344.688 380.533 341.847 382.117 340.288C382.611 339.849 383.205 339.537 383.847 339.379Z" fill="white"/>
<path d="M341.018 284.107C342.006 287.443 342.384 290.925 343.472 294.235C343.631 294.626 343.672 294.689 343.795 294.689C343.973 294.471 344.25 292.485 342.207 287.302L341.191 284.561L340.918 283.734L341.018 284.061V284.107ZM341.132 284.743C340.991 284.175 340.782 283.42 340.632 282.857L341.178 284.561C341.633 285.807 342.261 287.48 342.78 288.712L343.263 289.921C343.895 291.785 345.821 297.458 344.291 299.735L343.986 299.676C343.531 298.799 343.372 298.412 342.848 294.585C342.447 291.277 341.875 287.992 341.132 284.743Z" fill="white"/>
<path d="M340.281 282.598C340.208 281.966 340.095 281.025 339.958 280.147V280.179C340.764 284.889 340.764 284.889 340.823 285.002C340.873 284.579 340.686 283.438 340.277 281.607L340.495 282.402C342.198 289.121 341.36 290.716 341.351 290.73C341.233 290.675 341.21 290.589 341.105 290.18V290.098C340.613 287.625 340.573 285.098 340.295 282.602" fill="white"/>
<path d="M339.962 280.656C340.003 281.411 340.026 282.166 340.076 282.929V283.02C340.113 282.666 340.031 281.552 339.94 280.261V280.493C339.94 280.543 339.94 280.616 339.94 280.666" fill="white"/>
<path d="M346.012 300.126C346.085 300.767 346.23 301.853 346.467 301.913C346.467 301.913 347.141 299.471 346.922 298.54C346.663 297.358 345.325 294.176 344.237 291.903L343.668 290.703L346.107 296.799L345.957 299.026C345.941 299.394 345.96 299.762 346.012 300.126Z" fill="white"/>
<path d="M317.709 331.328C317.486 333.231 317.445 335.15 317.586 337.06C318.073 336.52 318.551 335.974 319.024 335.433C324.172 329.11 330.609 320.109 331.997 313.159L331.815 312.945C331.082 313.713 331.082 313.713 328.943 316.859C325.933 321.327 322.662 325.613 319.147 329.696C318.674 330.242 318.194 330.786 317.709 331.328ZM317.709 331.192C318.196 330.651 318.678 330.11 319.147 329.564C322.893 325.055 325.365 322.078 329.343 316.077C331.542 312.759 331.542 312.759 332.274 311.986L332.461 312.213L332.247 313.304C328.956 323.378 322.975 330.733 319.02 335.579C318.564 336.124 318.068 336.665 317.581 337.206C317.426 335.202 317.469 333.188 317.709 331.192Z" fill="white"/>
</g>
<mask id="mask8_77_442" style="mask-type:luminance" maskUnits="userSpaceOnUse" x="254" y="111" width="249" height="324">
<path d="M341.192 284.561C342.038 286.925 343.367 290.016 344.432 292.289C345.229 293.994 346.467 296.176 347.382 297.817C349.585 301.649 352.017 305.346 354.665 308.886C357.614 312.858 360.778 316.667 364.142 320.296C367.655 324.095 371.361 327.712 375.244 331.133C377.01 332.651 379.381 334.67 381.207 336.133C383.032 337.597 385.408 339.37 387.261 340.679C389.113 341.988 391.53 343.697 393.451 344.852C396.915 346.943 401.622 349.602 405.199 351.498C406.77 352.33 408.946 353.28 410.58 353.975C412.214 354.671 414.253 355.503 415.873 356.035C418.072 356.757 421.026 357.644 423.275 358.185C424.017 358.362 425.023 358.539 425.774 358.639C426.329 358.726 427.071 358.808 427.626 358.844C457.969 360.512 486.477 387.028 502.786 434.699C405.181 429.335 298.591 344.738 264.721 245.745C245.744 190.318 253.582 142.16 281.28 111.422C351.055 174.153 369.823 266.987 323.198 318.737C325.119 316.432 327.777 313.413 329.375 310.877C330.24 309.513 331.487 307.695 332.256 306.272C333.765 303.52 335.132 300.694 336.353 297.803C336.808 296.585 337.45 294.948 337.81 293.689C338.365 291.753 339.007 289.143 339.407 287.171C339.587 286.269 339.717 285.359 339.794 284.443C339.849 283.739 339.931 282.807 339.958 282.102C339.958 281.561 339.958 280.834 339.958 280.284V280.106C340.058 280.607 340.199 281.275 340.336 281.77C340.554 282.598 340.882 283.734 341.192 284.561Z" fill="white"/>
</mask>
<g mask="url(#mask8_77_442)">
<path d="M340.072 357.953C343.572 359.317 345.115 360.53 347.914 362.726C350.154 364.958 352.266 367.063 353.886 370.481C348.986 366.393 344.2 362.15 339.53 357.753C339.694 357.808 339.912 357.871 340.072 357.93M317.977 320.023C314.427 320.091 309.725 320.787 306.192 321.155C331.596 353.966 364.31 382.227 399.874 402.37C408.645 371.372 407.748 353.057 399.186 348.275L393.456 344.825C391.225 343.325 388.235 341.347 386.054 339.774C388.189 341.288 387.543 346.62 383.933 355.716C369.763 332.147 346.33 319.478 317.977 320.023Z" fill="white"/>
<path d="M266.997 251.955C268.138 253.68 269.142 255.492 270.001 257.373C271.066 260.614 271.366 261.592 271.398 262.937C269.808 259.267 268.317 255.576 266.924 251.864C266.951 251.892 266.975 251.922 266.997 251.955ZM282.669 211.497C273.724 207.276 264.454 203.779 254.948 201.042C256.204 215.22 259.413 230.194 264.734 245.736C272.195 267.556 283.188 288.653 296.834 308.368L299.146 306.436C315.624 290.716 331.191 275.865 298.787 239.158C311.614 239.576 306.279 231.044 299.542 223.812C294.716 218.71 288.998 214.532 282.669 211.483" fill="white"/>
<path d="M407.002 401.197C418.359 381.446 428.09 375.286 440.594 379.932C448.501 382.868 475.853 395.46 495.79 434.181C481.798 432.829 467.975 430.088 454.527 425.999C451.227 423.349 448.26 422.389 445.187 422.98C431.284 418.144 417.801 412.18 404.872 405.147C405.509 403.965 406.328 402.37 407.002 401.206" fill="white"/>
<path d="M285.841 188.523C298.532 197.823 310.162 215.252 302.656 216.511C296.174 217.602 256.901 200.914 255.535 185.35C256.832 175.576 272.891 179.027 285.841 188.532" fill="#04E0BD"/>
<path d="M341.191 284.561L342.22 287.325C341.765 286.18 341.519 285.589 340.568 283.457C339.808 281.752 339.089 280.138 339.116 279.693H339.152C339.216 279.743 339.799 280.284 340.918 283.752L341.191 284.58M340.418 282.125C338.174 274.802 333.981 268.074 327.955 262.123C327.158 261.387 326.662 261.023 326.33 261.214C326.275 261.428 326.289 261.519 326.462 261.946C327.077 263.033 327.862 264.015 328.788 264.855C331.969 267.848 334.726 271.262 336.981 275.002C336.884 274.936 336.776 274.887 336.662 274.856C336.266 275.406 336.931 277.129 339.207 281.452C341.1 285.052 341.674 286.134 342.794 288.725C342.307 287.48 341.628 285.834 341.191 284.575L340.645 282.87L340.436 282.166V282.12" fill="white"/>
<path d="M338.733 276.479C337.91 274.138 336.945 271.847 336.175 269.487C335.638 267.837 335.779 267.669 335.839 267.587C336.075 267.587 336.653 268.406 337.541 270.769C337.86 272.647 338.251 274.556 338.733 276.493M339.953 280.129V280.106V280.029V279.993C339.953 280.038 339.953 280.084 339.953 280.129ZM338.301 272.142C336.408 265.174 333.594 261.151 333.066 262.201C332.903 262.528 333.066 263.255 333.258 263.955C335.247 270.26 338.656 276.002 340.486 282.37L340.267 281.575C339.746 279.438 339.327 277.34 339.011 275.279C338.834 274.242 338.52 272.942 338.301 272.142Z" fill="white"/>
<path d="M333.18 251.982C337.004 260.93 339.288 270.458 339.935 280.166V280.493V280.261C338.333 269.978 338.333 269.978 334.054 260.85C333.572 259.964 331.992 257 331.947 255.977C333.017 255.977 336.995 264.687 338.638 271.269C335.707 259.987 335.593 259.546 332.498 252.454C331.792 250.845 331.533 250.109 331.464 249.541L331.501 249.377C331.983 249.495 332.675 250.863 333.171 251.991" fill="white"/>
<path d="M343.158 289.621C343.34 289.994 343.495 290.321 343.668 290.703L344.237 291.903C343.745 290.903 343.213 289.925 342.739 288.921C342.703 288.856 342.675 288.788 342.657 288.716C342.851 289.004 343.018 289.308 343.158 289.625" fill="white"/>
<path d="M337.791 258.832C338.579 262.105 339.649 271.379 339.58 272.411C339.48 272.065 339.198 269.897 339.125 269.465C338.761 266.601 338.083 262.814 337.628 259.969L335.402 255.032C334.946 254.123 334.091 251.886 334.036 251.032L334.109 250.945C334.109 250.945 336.977 255.491 337.787 258.832" fill="white"/>
<path d="M323.143 161.875C322.301 164.757 320.549 170.762 311.309 168.521C307.531 167.612 307.531 167.612 260.756 146.729C264.126 136.732 269.017 127.314 275.258 118.804C278.331 118.254 279.724 116.504 279.637 113.299C280.179 112.667 280.725 112.04 281.285 111.422C297.674 126.073 311.787 143.078 323.162 161.88" fill="white"/>
</g>
<mask id="mask9_77_442" style="mask-type:luminance" maskUnits="userSpaceOnUse" x="-1" y="-1" width="716" height="700">
<path d="M70.5168 91.502C74.8091 86.7926 80.7174 80.6785 85.3466 76.2964C95.0503 67.2176 105.36 58.8068 116.203 51.1218C127.95 43.0939 140.225 35.8663 152.946 29.4884C163.483 24.2926 178.086 18.4467 189.251 14.7919C199.72 11.3735 214.031 7.94599 224.792 5.60036C231.547 4.12298 240.723 2.87289 247.551 2.0592C254.511 1.24096 263.833 0.495451 270.829 0.177246C281.048 -0.277332 294.717 -0.277332 304.922 0.368169C319.67 1.32733 339.27 3.80478 353.823 6.40497C363.04 8.03236 375.162 11.0098 384.17 13.4873C391.339 15.4602 400.788 18.4877 407.839 20.806C415.969 23.4744 426.593 27.6247 434.486 30.9522C441.395 33.8478 450.494 37.9845 457.245 41.2575C464.491 44.7759 473.995 49.7944 481.024 53.7265C487.601 57.4041 496.172 62.6636 502.586 66.6184C509.204 70.7096 517.757 76.5736 524.088 81.0831C530.297 85.5061 538.481 91.5384 544.39 96.3569C556.151 105.939 571.345 119.322 582.338 129.777C587.841 135.019 594.842 142.351 599.999 147.933C605.156 153.516 611.989 161.166 616.795 167.117C621.602 173.067 628.07 180.845 632.467 187.054C636.983 193.418 643.201 201.81 647.411 208.392C655.604 221.252 665.851 238.872 672.901 252.404C676.648 259.587 681.095 269.442 684.281 276.902C687.281 283.966 690.89 293.544 693.539 300.749C696.48 308.749 699.762 319.65 701.988 327.878C703.918 334.988 706.193 344.543 707.623 351.766C709.33 360.403 711.178 372.018 712.175 380.768C712.957 387.696 713.604 396.979 713.995 403.952C714.487 413.289 714.305 425.771 713.763 435.118C713.171 445.382 711.697 459.056 709.853 469.175C708.692 475.539 706.958 483.994 705.379 490.267C702.689 500.945 698.241 514.987 694.127 525.197C691.76 531.084 688.373 538.834 685.587 544.544C679.841 556.144 673.336 567.354 666.115 578.101C659.924 587.133 650.952 598.716 643.578 606.812C639.286 611.521 633.373 617.635 628.749 622.017C613.927 636.056 597.557 648.369 579.953 658.72C562.521 668.959 544.028 677.279 524.798 683.535C514.329 686.958 500.018 690.381 489.258 692.732C482.503 694.209 473.326 695.459 466.499 696.268C459.539 697.091 450.217 697.837 443.216 698.155C433.002 698.609 419.346 698.373 409.127 697.959C428.495 699.027 448.61 689.963 466.776 669.775C513.401 618.031 529.532 512.778 502.809 434.699C545.782 437.059 579.848 423.671 601.629 399.497C629.327 368.758 637.165 320.582 618.197 265.174C584.318 166.185 477.728 81.5876 380.137 76.2191C337.163 73.8598 303.097 87.2471 281.317 111.422C253.582 142.16 245.744 190.318 264.721 245.745C298.591 344.738 405.181 429.335 502.781 434.699C529.505 512.778 513.373 618.031 466.749 669.775C448.583 689.94 428.468 699.005 409.1 697.959C394.379 696.641 374.752 694.527 360.2 691.922C351.001 690.281 338.879 687.318 329.871 684.84C322.702 682.863 313.252 679.84 306.201 677.517C298.072 674.853 287.443 670.698 279.555 667.375C272.645 664.48 263.583 660.261 256.796 657.065C249.513 653.633 240.041 648.542 233.017 644.601C226.258 640.805 217.363 635.509 210.854 631.327C204.482 627.236 196.111 621.631 189.952 617.235C183.794 612.839 175.559 606.78 169.651 601.961C157.889 592.379 142.827 578.855 131.702 568.536C126.131 563.372 119.199 555.967 114.041 550.38C102.533 537.921 91.6964 524.859 81.5777 511.25C76.9166 504.977 70.8445 496.499 66.634 489.912C62.5374 483.498 56.9933 474.98 53.2835 468.334C49.3143 461.219 43.9568 451.778 40.4109 444.427C37.1291 437.581 32.7548 428.408 29.7779 421.403C22.731 404.832 16.8228 387.8 12.094 370.427C7.35195 353.081 3.94334 335.4 1.89792 317.536C1.11501 310.609 0.468645 301.326 0.0999471 294.353C-0.39165 285.016 -0.0957816 272.533 0.33209 263.187C0.637063 256.527 1.60205 247.681 2.41683 241.067C3.90349 229.953 6.00664 218.929 8.71656 208.047C11.4067 197.373 15.8538 183.331 19.9687 173.117C24.7071 161.352 31.849 145.91 38.531 135.128C41.3168 130.623 44.8444 124.486 47.9806 120.218C54.4533 111.381 63.1428 99.598 70.5168 91.502Z" fill="white"/>
</mask>
<g mask="url(#mask9_77_442)">
<path d="M204.878 606.135C211.087 602.452 222.63 600.407 242.403 611.553C262.04 625.854 258.758 634.468 255.053 638.328C245.089 645.096 237.364 646.965 232.294 644.165L210.859 631.305C203.776 626.536 194.249 620.299 187.312 615.322C189.798 617.072 195.742 614.031 204.878 606.135ZM135.412 572.091C144.516 580.601 155.659 590.797 169.551 601.88C158.172 592.334 143.283 579.287 132.39 569.205C133.3 570.068 134.479 571.237 135.394 572.091M203.672 605.275C194.568 613.199 188.651 616.272 186.238 614.558C193.594 619.617 203.326 626.477 210.818 631.305C217.587 635.364 226.513 640.937 233.391 644.806C238.525 647.638 246.29 645.774 256.264 639.032C269.154 625.668 238.17 601.88 214.951 602.125C207.9 602.198 205.242 604.125 203.653 605.275M135.153 571.855C133.423 570.232 131.175 568.009 129.468 566.364L131.666 568.523C156.41 591.47 156.41 591.47 169.615 601.948L172.979 604.594L172.933 604.562C166.333 599.33 154.048 589.592 135.153 571.832" fill="white"/>
<path d="M19.0403 357.276C20.9885 352.83 24.3341 354.789 27.179 362.044C31.1163 373.686 29.4867 386.623 25.4948 384.91C21.653 383.259 16.3228 366.031 19.0221 357.33V357.276M18.5942 355.953V356.007C16.6051 362.453 18.5714 372.754 21.4027 380.1C25.7861 390.264 28.2577 385.819 28.9086 384.191C32.9552 374.241 26.3369 350.453 20.3785 353.525C19.368 354.044 18.8764 355.266 18.6124 355.921M16.3365 348.507C22.8229 335.829 30.4016 356.126 30.4745 356.33C36.624 373.081 34.1569 396.051 28.062 395.038C24.5025 394.447 19.0585 384.041 16.1044 367.654L15.854 366.122C15.034 370.658 14.9005 375.292 15.458 379.868L15.4899 380.218C14.7297 379.764 13.3414 373.222 13.2868 372.868C12.2854 365.222 13.2868 357.035 16.3365 348.507ZM15.9268 347.252C12.8817 355.776 11.9121 363.967 12.9181 371.627C13.4595 374.499 14.1894 377.333 15.103 380.109C15.2735 380.656 15.4772 381.192 15.7129 381.714L15.8586 381.118C15.3693 377.094 15.4229 373.023 16.0179 369.013C19.4727 386.355 26.3096 401.288 31.3257 395.151C39.1958 385.537 33.2374 343.147 20.7108 342.829C17.8568 342.757 16.728 345.37 15.9041 347.284" fill="white"/>
<path d="M10.9153 335.783C7.76994 337.961 5.06616 322.755 6.10397 313.054C7.4058 320.521 9.00956 328.098 10.9153 335.783ZM11.6436 336.783C9.37067 327.874 7.50897 319.097 6.05846 310.454L5.93556 311.236C4.81126 319.609 6.52274 328.405 7.08717 330.906C9.06722 339.47 10.9562 337.501 11.6663 336.761M5.86728 300.003C5.92416 299.906 5.98806 299.814 6.05846 299.726L6.44536 299.676C6.8004 300.09 6.87323 300.344 7.09172 301.472C8.63934 311.409 10.7226 321.537 13.3414 331.856C15.2805 320.65 14.097 309.277 10.4009 303.549C9.49054 302.117 9.94572 297.867 10.369 296.871C11.2794 294.644 12.035 295.567 13.0137 297.103C14.7069 299.771 15.4261 303.158 16.0634 306.149C16.0634 306.222 16.0907 306.29 16.1089 306.358C19.7504 325.696 15.0665 348.025 10.7878 346.043C4.87043 343.316 2.17119 306.913 5.86728 300.003ZM5.75348 298.612C3.85537 302.144 2.13478 317.836 6.74123 338.233C7.61063 341.62 10.2643 351.925 13.7647 345.848C16.4958 341.065 19.9324 322.982 16.646 305.458C16.646 305.386 16.6141 305.317 16.6005 305.249C16.5868 305.181 16.5686 305.099 16.555 305.026C14.8207 296.889 12.2171 292.298 10.6376 294.621C10.1824 295.267 8.10223 301.763 10.6968 305.79C10.7423 305.863 15.2486 313.063 13.223 329.11C10.8166 319.43 8.88818 309.913 7.43766 300.558C6.7822 297.203 6.0448 298.08 5.75804 298.612" fill="white"/>
<path d="M0.259474 279.015C0.259474 278.834 0.3232 278.597 0.355063 278.42C4.93876 265.605 9.69997 264.524 10.0049 265.192C10.3736 265.983 10.5648 268.328 9.59528 271.556C5.62153 285.58 3.44575 293.312 2.71291 308.672C2.72169 309.323 2.64051 309.971 2.47166 310.6L2.25318 310.522C1.84351 309.109 1.6933 306.286 1.72972 304.113C2.87678 288.58 2.94505 287.652 5.45311 276.461C2.57636 280.611 2.57636 280.611 0.259474 286.689C-0.0864648 285.402 0.0956084 280.261 0.259474 279.002M0.259474 277.784C-0.027291 280.161 -0.0682575 286.061 0.186645 287.966C2.24862 282.361 2.41704 281.907 4.46992 279.129C1.88903 294.68 1.83896 294.98 1.59316 303.304C1.55609 305.554 1.67014 307.805 1.93455 310.04C1.99021 310.742 2.14341 311.432 2.38973 312.091L2.6765 311.918C2.82143 311.273 2.90375 310.615 2.92229 309.954C3.60052 296.63 5.68981 285.407 9.9048 272.37C11.5526 266.942 10.8561 262.696 9.50879 263.21C9.44507 263.21 2.63098 268.378 0.405133 276.988C0.359615 277.229 0.300441 277.547 0.27313 277.784" fill="white"/>
<path d="M40.534 394.797C40.8982 394.442 41.5218 394.542 42.1863 395.869C42.6051 396.819 42.6051 396.82 42.8646 400.115C43.0603 402.547 43.5473 407.766 44.6853 415.389C44.8309 416.353 45.1678 418.621 43.9615 418.089C40.5841 416.416 36.187 413.707 35.7318 413.239C34.8215 412.284 33.9111 408.934 34.694 408.557C34.7896 408.511 34.9444 408.557 35.0445 408.607L42.0498 412.607C39.9787 395.333 39.9787 395.333 40.534 394.815M40.0379 393.378C39.1275 394.238 39.1275 394.238 41.1394 410.793L34.7668 407.188C33.6972 406.607 33.4332 408.552 34.2252 411.216C34.4413 411.945 34.7216 412.654 35.0627 413.334C35.7273 414.571 36.0596 415.189 44.1664 419.548C45.7049 420.208 45.6093 417.685 45.5911 417.394L43.4199 397.751C43.3261 396.947 43.1256 396.158 42.8236 395.406C42.1408 393.742 40.9073 392.528 40.0333 393.378" fill="white"/>
<path d="M3.54132 242.213C3.67787 241.79 3.7416 241.758 3.80987 241.758C6.80043 243.286 6.80043 243.286 6.79132 244.086C6.72304 245.795 6.06303 248.25 5.54412 248.272L3.18627 247.004C0.810217 265.296 0.810217 265.296 0.714628 265.565C0.660007 265.424 0.559866 265.16 0.751043 262.869C1.28816 257.037 1.82072 252.255 2.95868 245.068C3.08837 244.104 3.28456 243.15 3.54587 242.213M3.66421 240.986C2.53536 244.413 0.591729 261.232 0.496141 265.937C0.479645 266.295 0.493349 266.654 0.537107 267.01C0.746491 266.815 0.746491 266.815 3.10434 248.604L5.26646 249.773C6.66387 249.736 7.54237 242.14 6.95974 241.686C6.95974 241.686 4.38796 240.39 4.08753 240.272C3.90546 240.381 3.85084 240.413 3.65966 240.999" fill="white"/>
<path d="M561.746 668.503C574.764 661.957 589.635 652.711 589.758 652.629C581.187 657.715 569.693 664.398 560.831 668.953L561.741 668.498M561.231 668.734C560.617 669.044 559.788 669.444 559.169 669.748C568.942 664.593 581.842 657.475 591.246 651.651L590.982 651.824C589.234 652.901 573.544 662.543 561.231 668.734Z" fill="white"/>
<path d="M528.9 682.14L519.022 685.322L520.047 684.94C523.042 684.058 525.993 683.12 528.9 682.126M532.541 680.849C528.32 682.364 524.007 683.749 519.6 685.004L519.145 685.177C518.786 685.318 518.03 685.604 517.598 685.749L532.537 680.849M516.651 685.395C517.802 684.94 519.641 684.29 521.845 683.672C530.24 681.423 538.486 678.65 546.534 675.371C547.164 675.106 547.765 674.777 548.327 674.389L548.2 674.144C546.497 674.385 543.648 675.271 533.374 679.249C531.59 679.944 531.026 679.981 530.693 679.999V679.699C532.924 677.999 543.83 673.849 548.901 672.107L549.069 672.048C552.747 670.816 554.986 670.176 556.174 670.316L556.247 670.657C555.874 671.03 555.337 671.539 552.151 672.98L545.323 675.908C534.767 679.813 520.584 684.749 509.819 687.954C511.066 687.559 511.066 687.559 516.674 685.395M515.795 685.586C509.878 687.859 509.878 687.859 508.512 688.313C519.664 684.927 534.458 680.063 545.332 675.926L553.489 672.398L553.721 672.294C556.174 671.121 556.98 670.648 557.626 669.994L557.545 669.616C556.261 669.444 553.903 670.121 549.988 671.435L549.82 671.494L549.638 671.553C543.356 673.708 530.457 678.699 529.109 680.467C529.614 680.863 531.444 680.185 534.908 678.853C545.505 674.762 546.638 674.817 547.012 674.835C546.747 675.111 546.44 675.343 546.101 675.521C538.498 678.549 530.724 681.129 522.819 683.249C519.924 684.067 517.393 684.986 515.777 685.608" fill="white"/>
<path d="M471.374 695.355L472.394 695.15C486.536 691.818 494.324 689.981 509.313 682.667C510.406 682.131 515.008 680.19 515.823 681.194L515.618 681.563C510.702 686.018 507.993 688.472 501.735 690L493.946 691.745C500.273 689.695 500.656 689.572 504.261 686.868C497.301 689.304 481.006 695.014 470.322 695.664C470.653 695.501 471.008 695.397 471.374 695.355ZM470.277 695.464C469.517 695.623 469.335 695.668 468.911 695.782C469.708 695.95 485.111 694.168 501.584 688.159C498.706 689.719 495.693 691.016 492.581 692.036L503.128 689.668C508.936 687.586 512.131 686.436 517.024 681.154C517.156 680.949 517.227 680.711 517.229 680.467C515.09 679.558 509.423 682.217 509.363 682.245C499.554 686.868 489.408 691.65 471.665 695.195L470.3 695.464" fill="white"/>
<path d="M458.77 692.982C459.285 692.802 459.813 692.659 460.349 692.554C468.666 690.859 474.46 689.318 479.522 687.909C480.139 687.725 480.773 687.606 481.415 687.554C482.153 687.518 482.353 687.595 482.494 687.772C482.398 688.277 481.083 688.727 480.309 688.95L463.727 692.909L466.376 694.909C466.062 695.423 461.824 695.9 461.264 695.736C460.232 695.105 459.243 694.405 458.306 693.641C458.22 693.564 458.161 693.462 458.137 693.35C458.315 693.18 458.53 693.054 458.765 692.982M457.605 692.982C456.785 693.291 456.694 693.473 456.562 693.65C457.112 694.46 457.871 695.106 458.759 695.52C459.647 695.934 460.631 696.1 461.606 696C463.74 695.818 467.218 695.295 467.91 694.75L465.507 692.854L480.528 689.254C481.761 688.904 483.855 688.195 483.996 687.377C483.259 686.468 479.754 687.454 478.079 687.927C470.022 690.2 462.807 691.75 460.081 692.304C459.239 692.47 458.41 692.696 457.6 692.982" fill="white"/>
<path d="M295.564 366.29C299.292 363.667 318.928 350.925 339.53 357.776C344.191 362.155 348.977 366.398 353.886 370.504C357.797 378.645 362.321 395.815 348.688 419.321L348.483 419.639C321.254 458.628 280.256 444.868 273.701 415.289C269.787 397.642 278.372 378.418 295.55 366.313M282.578 326.528C234.146 343.584 216.735 384.305 214.3 403.456C207.368 457.887 241.051 480.794 261.198 494.481C317.385 514.532 356.836 498.309 385.353 443.418C391.334 428.935 396.278 415.066 399.874 402.37C364.31 382.227 331.596 353.975 306.174 321.155L301.167 321.682C295.587 323.105 288.017 324.596 282.587 326.505" fill="white"/>
<path d="M216.672 229.63C222.166 229.671 250.405 230.953 266.901 251.864C268.294 255.576 269.785 259.267 271.376 262.937C272.004 295.549 203.112 314.145 176.87 288.448C154.275 266.328 173.229 229.28 216.676 229.63M254.912 201.051C238.486 196.334 221.6 193.397 204.546 192.291C120.205 190.868 88.8198 255.159 117.1 313.591C163.72 383.737 252.071 347.602 296.811 308.377C283.156 288.662 272.172 267.551 264.712 245.745C259.391 230.203 256.182 215.229 254.925 201.051" fill="white"/>
<path d="M495.79 434.181C501.684 446 503.687 454.637 505.804 463.802C508.151 477.188 509.491 490.732 509.814 504.318C508.03 537.23 483.791 538.798 473.536 525.515C466.253 516.087 466.831 504.432 467.163 497.468C468.631 484.597 469.269 471.645 469.075 458.692C468.57 453.06 467.027 435.931 454.509 425.99C467.957 430.079 481.78 432.82 495.772 434.172" fill="white"/>
<path d="M394.539 428.226C397.024 421.812 400.425 413.025 404.872 405.138C417.801 412.171 431.284 418.135 445.187 422.971C434.855 424.853 431.468 440.336 430.194 446.155C425.118 477.784 414.426 512.628 400.288 545.385C390.829 562.631 377.825 568.114 360.537 562.122C345.739 552.794 342.721 539.998 351.051 521.851C368.803 490.485 384.225 457.533 394.539 428.208" fill="white"/>
<path d="M454.905 559.527C464.956 533.575 491.743 528.383 501.889 550.435C511.448 571.146 495.972 599.884 469.985 597.257C449.935 592.77 449.957 572.255 454.905 559.527Z" fill="#616CEA"/>
<path d="M222.607 159.525C248.553 168.526 258.785 185.159 247.16 190.541C239.877 193.909 226.941 192.523 222.061 192C166.251 183.763 105.334 194.309 61.1948 218.957C45.5956 226.362 38.4356 223.366 37.3068 208.956C39.1275 192.137 47.1888 179.531 62.0095 170.467C106.103 148.374 166.92 143.865 222.607 159.521" fill="white"/>
<path d="M362.093 40.1256C368.047 50.7991 369.868 67.0685 361.502 76.2191C356.347 76.5002 351.21 77.0495 346.112 77.8647C332.721 72.4098 313.148 56.0177 299.092 43.2395L298.814 42.9804C288.149 32.9251 265.959 12.0054 299.187 10.7826C317.522 10.0871 349.385 17.3513 362.093 40.1256ZM404.462 57.6769C390.998 -17.424 254.224 1.44102 238.675 3.84119C233.709 5.39585 227.041 7.9324 222.953 11.1463C222.389 16.7012 222.389 16.7012 226.08 21.5288C226.586 22.1925 227.104 23.2199 227.737 23.7654C253.965 46.3806 283.843 64.7228 306.816 91.1475C326.585 80.1103 351.347 74.6417 380.101 76.2191C388.458 76.6928 396.776 77.7025 405.004 79.2421L405.509 74.569C405.24 69.5005 405.345 62.6772 404.448 57.6769" fill="white"/>
<path d="M506.004 90.0201C503.819 95.8751 493.605 107.899 477.46 105.476C473.888 103.557 470.292 101.719 466.672 99.9617C452.939 87.3017 430.503 42.6849 445.169 40.7302C455.597 39.3665 514.703 66.6684 506.004 90.0201ZM525.677 137.705C532.96 127.529 538.494 119.384 542.278 113.272C549.483 98.5298 544.099 93.7249 503.191 67.0003C474.77 49.9581 474.228 49.6308 458.811 42.0258C429.178 28.4657 428.022 27.9338 411.167 21.9607L398.089 17.6013L397.256 17.3467C396.005 17.1331 394.248 17.0103 393.028 17.3467C392.504 18.5377 391.913 19.8878 393.911 24.8291C401.772 44.285 411.422 62.95 419.315 82.3923C456.499 91.9384 493.423 111.526 525.686 137.692" fill="white"/>
<path d="M260.752 146.729C234.806 135.969 234.806 135.969 230.473 134.205C217.454 128.867 203.985 124.697 190.226 121.745C148.221 110.944 170.712 94.5204 170.953 94.3568C182.592 86.4289 197.945 90.3156 203.726 91.7748C216.729 96.0122 229.316 101.431 241.329 107.962C248.098 111.413 266.086 120.586 275.249 118.804C269.008 127.314 264.117 136.732 260.747 146.729" fill="white"/>
<path d="M282.632 68.7413C289.46 75.4372 295.928 81.7604 303.311 93.193C295.122 98.1714 287.701 104.312 281.28 111.422C280.72 112.04 280.174 112.667 279.633 113.299C279.532 107.576 275.991 98.0297 259.536 85.0379C229.567 63.9864 196.871 52.2719 166.401 50.4581C150.26 48.9035 147.311 45.5987 155.518 38.2572C174.267 25.9836 191.45 26.9564 197.094 27.2701C225.68 30.734 255.763 44.8441 282.669 68.7413" fill="white"/>
<path d="M144.261 82.1287C160.68 83.1924 170.238 95.5569 157.161 106.28C142.45 118.34 100.846 123.791 103.163 106.426C103.402 105.17 103.769 103.942 104.26 102.762C111.606 88.6928 130.364 81.2195 144.261 82.1287Z" fill="#616CEA"/>
<path d="M570.349 150.079C552.46 160.634 531.822 151.106 536.993 128.559C537.448 126.464 538.732 123.836 539.724 121.936C548.454 109.353 552.151 102.63 551.04 101.748C560.567 109.999 573.153 121.136 582.32 129.787L591.219 138.701C589.712 137.101 582.73 140.801 570.326 150.065" fill="white"/>
<path d="M661.14 384.823C648.741 372.459 632.773 355.248 627.128 343.457C627.837 338.667 628.283 333.843 628.467 329.006C629.086 328.478 643.916 316.236 669.843 331.024L670.134 331.21C702.584 353.939 704.423 401.988 692.893 405.516C685.51 407.788 673.275 396.879 661.149 384.8M637.548 398.892C654.967 418.339 670.18 439.682 688.624 458.251C694.445 464.111 696.844 464.206 702.643 464.429C711.419 456.169 712.557 448.546 714.023 416.653C711.292 336.811 692.866 310.404 664.039 293.68C652.66 288.539 639.004 284.652 623.291 282.316C632.395 318.746 629.514 351.362 616.841 376.995L621.248 381.627C626.255 386.669 632.809 393.574 637.561 398.901" fill="white"/>
<path d="M589.653 466.361C574.978 429.685 578.601 420.826 579.967 417.489C582.416 415.974 584.78 414.375 587.059 412.693C622.672 409.889 664.817 472.243 639.045 505.977C635.372 510.787 615.708 531.488 589.653 466.361ZM540.106 432.499C550.817 453.146 553.079 458.583 560.28 480.998C576.107 534.725 595.784 601.589 645.272 562.74C687.722 519.515 695.41 431.554 611.493 386.487C608.569 391.092 605.263 395.444 601.611 399.497C586.59 416.171 565.715 427.717 540.106 432.499Z" fill="white"/>
<path d="M576.521 189.491C583.399 183.236 588.761 180.586 593.486 178.249C600.769 175.326 606.809 173.549 611.584 172.872C626.1 173.744 646.51 207.615 642.614 211.056C641.703 211.843 639.846 211.597 638.649 211.538C632.823 210.561 625.699 210.52 617.333 211.502C602.694 214.866 601.369 223.775 601.479 227.462C594.189 214.159 585.843 201.462 576.521 189.491Z" fill="white"/>
<path d="M648.918 285.53C639.919 282.752 630.897 280.075 621.916 277.22C620.815 273.247 619.569 269.232 618.179 265.174C614.805 255.353 610.79 245.764 606.163 236.467C609.854 239.863 618.757 246.013 636.874 249.041C661.681 251.886 677.558 261.142 683.362 274.783C686.812 283.52 691.555 295.126 694.65 303.99C696.972 311.559 700.281 321.591 702.343 329.237C701.992 328.11 701.432 326.637 701.032 325.537C694.109 307.981 676.256 293.717 648.918 285.534" fill="white"/>
<path d="M653.788 218.379C653.133 217.357 652.227 216.011 651.513 215.016L625.462 177.89C632.163 186.954 641.071 199.069 647.398 208.397L654.467 219.484C654.257 219.152 653.984 218.711 653.77 218.379" fill="#616CEA"/>
<path d="M518.49 466.661C513.155 436.159 523.228 431.627 535.573 440.664C545.428 447.878 550.253 458.888 552.569 464.179C572.32 518.178 572.843 579.324 554.895 625.554C547.007 641.555 535.054 650.329 517.279 653.156C502.313 652.761 498.216 645.392 503.988 629.259C524.639 582.833 530.448 521.224 518.49 466.661Z" fill="white"/>
</g>
</g>
<defs>
<clipPath id="clip0_77_442">
<rect width="714" height="696" fill="white"/>
</clipPath>
</defs>
</svg>
