<svg xmlns="http://www.w3.org/2000/svg" width="26" height="26" class="social-icon">
  <path
        d="M21.614 21.841h-3.759v-5.886c0-1.403-.025-3.21-1.955-3.21-1.957 0-2.258 1.529-2.258 3.109v5.988H9.886V9.736h3.609v1.654h.05a3.956 3.956 0 0 1 3.56-1.955c3.81 0 4.511 2.506 4.511 5.765l-.001 6.642ZM5.644 8.082a2.18 2.18 0 1 1-.001-4.361 2.18 2.18 0 0 1 0 4.361Zm1.878 13.76H3.76V9.736h3.763v12.105ZM23.488.23H1.872A1.852 1.852 0 0 0 0 2.058v21.705a1.852 1.852 0 0 0 1.871 1.83h21.617a1.856 1.856 0 0 0 1.878-1.83V2.056A1.856 1.856 0 0 0 23.488.228"/>
</svg>
